{"glyphs":{"0":{"ha":833,"x_min":47,"x_max":787,"o":"m 430 886 q 589 851 522 886 q 700 756 656 816 q 765 619 744 696 q 787 460 787 543 q 767 286 787 372 q 705 129 748 200 q 591 16 662 58 q 419 -27 521 -27 q 245 9 316 -27 q 130 109 174 45 q 67 254 87 172 q 47 428 47 336 q 70 599 47 517 q 140 746 93 681 q 259 848 187 810 q 430 886 332 886 m 422 98 q 451 125 440 98 q 468 194 462 153 q 476 279 474 235 q 479 359 479 323 q 479 407 479 394 q 479 466 479 425 q 477 556 479 507 q 468 653 475 606 q 450 729 462 699 q 417 760 437 760 q 385 736 396 760 q 368 679 373 712 q 360 614 362 645 q 359 569 359 583 q 357 497 358 533 q 357 425 357 460 q 357 358 357 401 q 361 267 358 315 q 371 179 364 219 q 389 121 377 139 q 402 105 395 112 q 422 98 410 98 z "},"1":{"ha":833,"x_min":41,"x_max":808,"o":"m 48 711 q 73 773 48 749 q 136 796 98 796 q 175 796 155 796 q 215 795 195 795 q 314 804 275 795 q 408 836 353 813 q 457 855 432 847 q 510 863 483 863 q 568 842 548 863 q 587 783 587 821 l 587 223 q 610 181 587 193 q 665 165 632 170 q 730 155 697 161 q 785 132 763 149 q 808 75 808 115 q 787 19 808 37 q 728 0 766 0 l 122 0 q 63 19 85 0 q 41 75 41 37 q 66 135 41 117 q 126 157 90 152 q 197 166 161 163 q 257 180 233 169 q 281 223 281 192 l 281 555 q 267 610 281 593 q 214 627 253 627 q 186 626 200 627 q 157 625 172 625 q 80 641 111 625 q 48 711 48 657 z "},"2":{"ha":833,"x_min":47,"x_max":804,"o":"m 47 132 q 70 219 47 184 q 128 273 92 254 l 127 275 l 134 277 q 225 300 173 296 l 227 301 q 256 314 241 304 q 284 331 272 323 q 377 415 347 372 q 418 511 408 458 q 429 635 429 565 q 428 670 429 647 q 423 719 427 694 q 410 763 419 745 q 383 781 400 781 q 352 766 361 781 q 341 733 343 752 q 340 698 340 713 l 340 626 q 303 522 340 562 q 201 481 267 481 q 98 530 131 481 q 66 642 66 578 q 97 758 66 711 q 179 832 128 804 q 290 873 230 861 q 407 886 350 886 q 531 873 471 886 q 640 830 591 860 q 717 751 688 801 q 746 627 746 701 q 712 496 746 552 q 624 398 678 439 q 508 326 569 357 q 470 307 489 316 q 432 291 452 298 q 511 285 471 288 q 591 282 551 282 q 657 295 633 282 q 696 326 681 309 q 725 356 711 342 q 759 369 739 369 q 797 341 789 369 q 804 290 804 313 q 804 277 804 283 q 803 264 804 271 q 787 160 799 212 q 750 65 775 108 q 683 -2 725 23 q 577 -28 641 -28 q 465 3 515 -28 q 396 96 415 33 q 389 121 392 109 q 368 134 387 134 q 346 120 351 134 q 336 94 340 106 q 286 -2 317 24 q 180 -27 254 -27 q 80 22 113 -27 q 47 132 47 71 z "},"3":{"ha":833,"x_min":61,"x_max":803,"o":"m 793 258 q 759 123 793 178 q 669 36 725 68 q 544 -12 612 3 q 408 -27 476 -27 q 299 -19 359 -27 q 185 10 239 -12 q 96 72 131 31 q 61 176 61 112 q 101 285 61 239 q 205 331 140 331 q 303 294 269 331 q 338 195 338 258 l 338 131 q 364 90 338 102 q 414 77 390 77 q 472 99 452 77 q 499 151 492 120 q 507 213 507 182 q 490 298 507 271 q 447 332 473 325 q 391 339 420 340 q 334 340 361 338 q 291 358 308 342 q 275 415 275 374 q 286 466 275 441 q 318 506 298 490 l 452 607 l 313 607 q 266 597 279 607 q 239 556 252 587 q 213 499 226 525 q 159 473 201 473 q 108 492 126 473 q 90 544 90 512 l 109 772 q 140 836 113 814 q 209 858 168 858 l 722 858 q 781 834 760 858 q 803 772 803 810 q 784 717 803 741 q 744 673 764 693 q 736 665 740 669 q 728 657 732 661 l 500 492 q 517 492 508 492 q 651 466 588 492 q 754 388 714 439 q 793 258 793 336 z "},"4":{"ha":833,"x_min":24,"x_max":775,"o":"m 244 75 q 261 131 244 115 q 301 152 278 146 q 342 170 324 159 q 363 214 361 182 l 97 214 q 42 238 60 214 q 24 297 24 263 q 40 353 24 324 q 77 398 56 382 q 131 437 103 418 q 185 477 159 456 q 217 510 200 488 q 247 557 235 532 q 260 601 260 582 q 249 652 260 628 q 226 702 237 677 q 215 757 215 728 q 270 876 215 839 q 398 912 324 912 q 513 876 469 912 q 557 766 557 840 q 538 685 557 724 q 490 612 519 646 q 432 552 461 578 l 213 353 l 365 353 q 373 387 367 370 q 392 417 379 404 l 546 575 q 575 601 559 589 q 610 614 591 614 q 644 595 636 614 q 652 555 652 576 l 653 353 l 707 353 q 757 336 739 353 q 775 288 775 320 q 760 233 775 252 q 706 214 744 214 l 654 214 q 674 174 658 187 q 710 150 690 160 q 745 123 730 139 q 760 75 760 107 q 686 0 760 0 l 317 0 q 244 75 244 0 z "},"5":{"ha":833,"x_min":62,"x_max":775,"o":"m 62 172 q 102 283 62 235 q 208 331 141 331 q 304 293 270 331 q 338 195 338 256 l 338 130 q 359 90 338 103 q 404 77 380 77 q 457 97 441 77 q 478 146 474 117 q 482 203 482 176 q 472 289 482 250 q 433 353 461 328 q 350 377 404 377 l 263 377 q 224 361 245 369 q 184 353 204 353 q 138 372 153 353 q 122 419 122 390 l 122 762 q 144 840 122 810 q 218 869 166 869 q 255 867 237 869 q 292 861 274 864 q 517 840 404 840 q 605 844 560 840 q 690 864 650 848 q 710 873 701 868 q 731 878 720 878 q 766 859 757 878 q 775 819 775 840 q 732 668 775 724 q 617 587 688 612 q 461 563 545 563 q 356 570 408 563 q 252 589 304 577 l 252 495 q 346 523 298 515 q 447 530 395 530 q 605 501 531 530 q 724 412 678 472 q 769 259 769 352 q 736 122 769 178 q 647 34 703 67 q 523 -13 591 1 q 385 -27 454 -27 q 282 -19 338 -27 q 176 11 226 -11 q 94 72 126 33 q 62 172 62 111 z "},"6":{"ha":833,"x_min":48,"x_max":787,"o":"m 473 886 q 567 876 517 886 q 663 843 618 865 q 736 783 708 821 q 765 692 765 746 q 728 584 765 625 q 622 543 690 543 q 519 574 556 543 q 481 673 481 605 l 481 715 q 439 759 481 759 q 396 731 413 759 q 369 661 378 704 q 354 568 359 617 q 349 474 350 518 q 443 515 391 501 q 536 530 494 530 q 721 462 656 530 q 787 275 787 394 q 736 105 787 173 q 604 5 686 38 q 428 -28 522 -28 q 215 30 300 -28 q 90 185 131 87 q 48 401 48 282 q 95 644 48 534 q 235 820 141 754 q 473 886 330 886 m 423 374 q 383 368 403 374 q 348 351 363 363 q 350 279 348 321 q 361 196 353 237 q 386 127 369 155 q 433 100 403 100 q 478 123 465 100 q 496 178 492 147 q 500 232 500 210 q 494 290 500 256 q 473 349 489 323 q 423 374 456 374 z "},"7":{"ha":833,"x_min":73,"x_max":851,"o":"m 593 152 q 540 21 593 71 q 408 -28 488 -28 q 256 28 310 -28 q 203 180 203 84 q 235 298 203 243 q 314 397 267 352 q 406 479 361 442 q 436 504 420 490 q 469 524 453 518 l 597 574 l 303 574 q 246 557 258 574 q 222 501 234 541 q 198 443 214 469 q 142 417 182 417 q 93 435 113 417 q 73 484 73 452 l 73 489 l 91 769 q 116 833 94 808 q 179 858 139 858 l 746 858 q 822 833 793 858 q 851 759 851 808 q 832 687 851 720 q 787 627 812 654 l 733 608 q 697 592 714 601 q 664 574 680 584 l 664 574 l 663 574 q 642 559 652 567 q 619 543 631 551 q 546 483 582 516 q 511 397 511 449 q 531 317 511 355 q 572 240 552 279 q 593 152 593 200 z "},"8":{"ha":833,"x_min":71,"x_max":774,"o":"m 387 -26 q 276 -17 332 -26 q 174 17 220 -7 q 99 84 127 41 q 71 194 71 127 q 96 280 71 247 q 163 332 122 313 q 250 358 204 350 q 161 408 201 380 q 99 479 122 436 q 76 587 76 522 q 109 725 76 668 q 197 817 142 781 q 320 869 252 852 q 458 886 389 886 q 604 861 533 886 q 722 782 675 836 q 768 644 768 729 q 723 516 768 562 q 614 454 679 471 q 693 407 656 433 q 752 342 730 381 q 774 243 774 302 q 738 114 774 166 q 644 32 702 62 q 518 -13 586 1 q 387 -26 450 -26 m 365 693 q 394 589 365 629 q 467 523 423 550 q 480 594 477 557 q 482 665 482 630 q 479 713 482 687 q 464 758 476 739 q 421 777 451 777 q 374 750 384 777 q 365 693 365 723 m 364 210 q 367 159 364 192 q 380 100 369 127 q 419 74 392 74 q 452 89 442 74 q 464 125 462 104 q 467 162 467 146 q 440 258 467 227 q 370 309 414 289 q 365 260 366 285 q 364 210 364 235 z "},"9":{"ha":833,"x_min":47,"x_max":786,"o":"m 359 -28 q 265 -18 315 -28 q 171 15 215 -7 q 98 75 126 38 q 71 167 71 113 q 108 275 71 234 q 214 316 145 316 q 317 285 279 316 q 355 185 355 254 l 355 144 q 362 111 355 123 q 393 99 369 99 q 437 125 420 99 q 465 193 454 151 q 479 282 475 235 q 485 372 484 330 q 392 331 443 345 q 298 317 341 317 q 112 387 177 317 q 47 576 47 458 q 97 749 47 680 q 229 852 147 818 q 406 886 311 886 q 618 828 534 886 q 744 673 703 770 q 786 457 786 576 q 740 213 786 323 q 599 38 693 103 q 359 -28 505 -28 m 335 620 q 340 561 335 595 q 361 499 345 526 q 412 473 378 473 q 451 478 432 473 q 486 495 471 484 q 484 570 486 526 q 473 658 481 614 q 448 730 465 701 q 401 759 431 759 q 355 733 369 759 q 338 675 341 708 q 335 620 335 642 z "}," ":{"ha":347,"x_min":0,"x_max":0,"o":""}," ":{"ha":347,"x_min":0,"x_max":0,"o":""},"A":{"ha":1148,"x_min":42,"x_max":1101,"o":"m 403 74 q 380 18 403 35 q 321 0 357 0 l 125 0 q 65 17 88 0 q 42 74 42 35 q 59 122 42 106 q 98 158 77 138 q 126 197 117 176 q 144 243 136 219 l 298 705 q 306 728 302 716 q 309 753 309 740 q 299 777 309 768 q 275 795 288 786 q 251 820 261 804 q 240 865 240 836 q 263 921 240 903 q 322 939 286 939 l 810 939 q 870 921 847 939 q 892 865 892 904 q 883 822 892 837 q 861 798 873 806 q 840 779 849 789 q 830 753 830 770 q 833 731 830 742 q 840 709 836 720 l 980 298 q 997 241 991 267 q 1017 193 1004 215 q 1059 149 1029 171 q 1091 118 1082 132 q 1101 74 1101 104 q 1078 17 1101 35 q 1019 0 1055 0 l 672 0 q 612 17 635 0 q 589 74 589 35 q 601 117 589 102 q 629 142 613 133 q 657 159 645 151 q 669 178 669 167 q 666 197 669 188 q 661 216 664 207 l 639 285 l 321 285 l 318 275 q 304 239 313 259 q 295 202 295 219 q 311 171 295 183 q 349 148 328 159 q 387 120 370 137 q 403 74 403 103 m 371 436 l 591 436 l 482 776 l 371 436 z "},"B":{"ha":996,"x_min":41,"x_max":987,"o":"m 987 225 q 957 112 987 156 q 877 43 926 68 q 768 9 827 19 q 654 0 710 0 l 122 0 q 63 18 85 0 q 41 74 41 35 q 55 125 41 108 q 87 153 69 142 q 120 179 106 164 q 134 222 134 193 l 134 717 q 120 761 134 747 q 87 786 106 775 q 55 813 69 796 q 41 865 41 830 q 63 921 41 903 q 122 939 85 939 l 536 939 q 673 924 603 939 q 803 878 743 910 q 900 791 863 845 q 937 656 937 736 q 883 519 937 569 q 757 448 830 469 q 868 407 816 435 q 954 335 921 380 q 987 225 987 290 m 471 802 l 467 802 l 467 479 l 492 479 q 597 523 568 479 q 626 637 626 567 q 588 758 626 713 q 471 802 550 802 m 661 239 q 629 329 661 294 q 541 365 597 365 l 467 365 l 467 249 q 492 166 467 197 q 571 136 517 136 q 641 165 621 136 q 661 239 661 194 z "},"C":{"ha":1000,"x_min":47,"x_max":954,"o":"m 954 258 q 943 200 954 228 q 916 148 932 172 q 815 48 876 87 q 682 -9 753 9 q 541 -27 611 -27 q 280 36 391 -27 q 109 211 170 98 q 47 471 47 323 q 83 660 47 571 q 182 819 118 749 q 332 927 245 888 q 521 966 418 966 q 585 963 553 966 q 647 949 616 959 q 685 936 666 943 q 724 928 704 928 q 757 938 743 928 q 786 956 772 947 q 817 964 800 964 q 862 943 851 964 q 880 894 873 921 l 941 682 q 944 663 944 673 q 918 615 944 631 q 864 599 892 599 q 810 622 831 599 q 772 679 789 645 q 731 747 754 713 q 670 804 707 781 q 570 827 632 827 q 473 796 510 827 q 416 715 435 764 q 389 611 396 666 q 382 510 382 556 q 406 351 382 427 q 487 227 431 275 q 639 178 543 178 q 731 199 690 178 q 806 247 772 220 q 864 295 839 275 q 905 316 888 316 q 942 298 930 316 q 954 258 954 280 z "},"D":{"ha":1114,"x_min":56,"x_max":1076,"o":"m 56 74 q 71 126 56 109 q 104 154 85 143 q 137 179 123 165 q 151 222 151 193 l 151 717 q 137 761 151 747 q 104 786 123 775 q 71 813 85 796 q 56 865 56 830 q 79 921 56 903 q 138 939 102 939 l 542 939 q 814 877 694 939 q 1005 703 935 816 q 1076 433 1076 589 q 1013 201 1076 298 q 843 52 949 104 q 607 0 736 0 l 138 0 q 79 18 101 0 q 56 74 56 35 m 575 151 q 656 182 625 151 q 704 258 688 212 q 727 354 721 304 q 733 441 733 404 q 724 553 733 493 q 690 666 714 613 q 624 753 666 720 q 515 787 581 787 l 485 787 l 485 257 q 504 181 485 211 q 575 151 524 151 z "},"E":{"ha":960,"x_min":63,"x_max":932,"o":"m 63 865 q 86 921 63 903 q 145 939 109 939 l 599 939 q 648 942 616 939 q 696 952 681 945 q 726 957 711 952 q 755 961 741 961 q 825 936 802 961 q 859 874 848 911 q 880 803 869 838 q 897 749 887 778 q 907 694 907 721 q 881 646 907 662 q 826 629 854 629 q 782 644 797 629 q 753 682 766 658 q 714 745 730 722 q 672 778 697 768 q 596 787 646 787 l 493 787 l 493 538 l 547 538 q 592 555 579 538 q 611 593 605 571 q 631 631 618 614 q 677 647 644 647 q 722 631 705 647 q 745 590 739 616 l 786 418 q 789 403 787 411 q 790 388 790 395 q 770 340 790 358 q 720 321 749 321 q 686 332 700 321 q 659 357 672 342 q 628 389 640 379 q 601 400 616 398 q 557 402 586 402 l 493 402 l 493 264 q 522 182 493 212 q 604 151 551 151 q 688 161 659 151 q 737 195 718 170 q 781 266 756 220 q 808 304 793 290 q 852 319 823 319 q 908 300 884 319 q 932 247 932 281 q 928 217 932 234 l 890 83 q 856 7 877 38 q 781 -24 835 -24 q 740 -19 760 -24 q 700 -9 720 -14 q 624 0 664 0 l 145 0 q 86 18 109 0 q 63 74 63 35 q 78 126 63 109 q 111 154 92 143 q 145 178 130 164 q 159 222 159 193 l 159 717 q 145 760 159 746 q 111 785 130 774 q 78 812 92 795 q 63 865 63 829 z "},"F":{"ha":918,"x_min":63,"x_max":899,"o":"m 63 865 q 86 921 63 903 q 145 939 109 939 l 585 939 q 624 940 605 939 q 662 947 643 942 q 701 956 682 951 q 742 961 721 961 q 800 947 781 961 q 830 908 819 932 q 851 854 840 884 l 852 852 l 852 852 q 854 846 853 850 q 856 840 855 842 q 873 789 863 819 q 891 730 883 760 q 899 679 899 701 q 872 631 899 648 q 819 615 846 615 q 774 629 789 615 q 747 667 760 644 q 707 737 724 711 q 663 775 690 763 q 582 787 636 787 l 494 787 l 494 504 l 565 504 q 613 520 600 504 q 633 558 627 536 q 652 595 640 579 q 700 612 665 612 q 768 555 753 612 l 809 383 q 812 369 810 376 q 813 353 813 361 q 793 306 813 324 q 743 287 772 287 q 709 297 722 287 q 682 322 696 307 q 649 354 663 345 q 620 366 636 363 q 574 368 604 368 l 494 368 l 494 222 q 511 175 494 189 q 552 153 529 161 q 592 129 574 145 q 610 74 610 113 q 587 18 610 35 q 528 0 565 0 l 145 0 q 86 18 109 0 q 63 74 63 35 q 78 125 63 108 q 112 154 92 142 q 145 179 131 165 q 160 222 160 193 l 160 717 q 145 760 160 745 q 112 785 131 774 q 78 813 92 796 q 63 865 63 830 z "},"G":{"ha":1103,"x_min":47,"x_max":1063,"o":"m 1063 423 q 1049 378 1063 393 q 1018 353 1036 363 q 987 332 1000 344 q 973 297 973 320 l 973 49 q 899 -27 973 -27 q 850 -11 871 -27 q 811 23 829 6 q 771 39 792 39 q 729 29 751 39 q 688 11 706 19 q 608 -17 648 -7 q 524 -26 568 -26 q 265 36 372 -26 q 103 209 159 98 q 47 470 47 321 q 87 666 47 576 q 196 824 126 757 q 358 929 266 891 q 554 966 450 966 q 633 961 594 966 q 711 945 673 956 q 749 934 730 939 q 788 928 768 928 q 820 938 806 928 q 849 956 835 947 q 882 964 864 964 q 927 943 916 964 q 945 894 937 921 q 962 843 951 874 q 984 777 972 812 q 1002 711 995 742 q 1010 663 1010 681 q 984 615 1010 631 q 929 599 958 599 q 884 614 899 599 q 854 652 869 629 q 789 743 821 703 q 714 805 757 783 q 603 827 671 827 q 495 799 538 827 q 428 723 452 770 q 392 620 403 675 q 382 511 382 565 q 387 432 382 472 q 403 353 392 391 q 448 255 418 302 q 523 178 478 208 q 625 149 568 149 q 664 157 650 149 q 678 193 678 165 l 678 297 q 671 321 678 315 q 651 335 665 327 q 613 356 633 346 q 578 382 592 367 q 564 422 564 397 q 587 476 564 460 q 646 492 611 492 l 981 492 q 1039 477 1016 492 q 1063 423 1063 461 z "},"H":{"ha":1114,"x_min":27,"x_max":1087,"o":"m 452 717 l 452 522 l 663 522 l 663 717 q 649 761 663 746 q 617 786 635 775 q 586 814 600 798 q 572 865 572 831 q 594 921 572 903 q 653 939 616 939 l 1006 939 q 1065 921 1042 939 q 1087 865 1087 903 q 1074 813 1087 830 q 1042 786 1060 796 q 1010 761 1023 775 q 996 717 996 747 l 996 222 q 1010 178 996 192 q 1042 153 1023 163 q 1074 126 1060 142 q 1087 74 1087 109 q 1065 18 1087 35 q 1006 0 1042 0 l 653 0 q 594 18 616 0 q 572 74 572 35 q 586 126 572 109 q 617 153 600 142 q 649 178 635 163 q 663 222 663 192 l 663 372 l 452 372 l 452 222 q 465 179 452 193 q 497 154 479 165 q 529 126 515 143 q 543 74 543 109 q 520 18 543 35 q 461 0 498 0 l 109 0 q 50 18 72 0 q 27 74 27 35 q 41 125 27 108 q 73 153 54 142 q 104 178 91 163 q 118 222 118 193 l 118 717 q 104 761 118 746 q 73 786 91 775 q 41 814 54 797 q 27 865 27 831 q 50 921 27 903 q 109 939 72 939 l 461 939 q 520 921 498 939 q 543 865 543 903 q 529 814 543 831 q 497 786 515 797 q 465 761 479 775 q 452 717 452 746 z "},"I":{"ha":574,"x_min":30,"x_max":545,"o":"m 454 717 l 454 222 q 468 179 454 193 q 500 154 481 165 q 532 127 518 144 q 545 74 545 110 q 523 18 545 35 q 464 0 500 0 l 111 0 q 52 18 75 0 q 30 74 30 35 q 43 126 30 109 q 75 154 57 143 q 107 178 94 164 q 121 222 121 193 l 121 717 q 107 760 121 746 q 75 785 94 774 q 43 812 57 795 q 30 865 30 829 q 52 921 30 903 q 111 939 75 939 l 464 939 q 523 921 500 939 q 545 865 545 903 q 532 812 545 829 q 500 785 518 795 q 468 760 481 774 q 454 717 454 746 z "},"J":{"ha":871,"x_min":40,"x_max":808,"o":"m 763 191 q 725 82 763 124 q 627 16 686 39 q 505 -16 568 -7 q 390 -24 441 -24 q 268 -13 330 -24 q 155 27 206 -1 q 72 103 103 55 q 40 224 40 151 q 79 337 40 290 q 187 385 117 385 q 294 340 257 385 q 330 229 330 296 q 330 168 330 202 q 342 109 329 134 q 396 84 355 84 q 441 98 424 84 q 458 141 458 112 q 449 186 458 165 q 428 227 439 208 q 384 325 401 278 q 368 431 368 372 l 368 717 q 354 755 368 743 q 320 774 340 768 q 280 788 300 780 q 246 813 260 795 q 233 865 233 830 q 256 921 233 904 q 315 939 279 939 l 726 939 q 785 921 762 939 q 808 865 808 903 q 792 811 808 828 q 754 784 776 794 q 717 761 733 774 q 701 717 701 747 l 701 465 q 705 404 701 433 q 720 344 709 374 q 748 269 733 307 q 763 191 763 231 z "},"K":{"ha":1149,"x_min":56,"x_max":1136,"o":"m 579 865 q 565 813 579 830 q 532 785 551 796 q 499 760 513 774 q 485 717 485 746 l 485 500 l 695 704 q 716 726 704 713 q 728 752 728 739 q 715 771 728 762 q 687 790 703 779 q 659 819 671 801 q 646 865 646 836 q 669 921 646 903 q 728 939 691 939 l 1008 939 q 1067 921 1044 939 q 1089 865 1089 903 q 1064 812 1089 830 q 1014 780 1040 795 q 964 745 987 765 q 918 704 941 725 l 799 594 l 1048 207 q 1086 165 1066 180 q 1121 132 1107 151 q 1136 74 1136 114 q 1114 18 1136 35 q 1055 0 1092 0 l 701 0 q 641 18 664 0 q 618 74 618 35 q 632 122 618 104 q 659 152 646 140 q 673 176 673 164 q 668 196 673 186 q 659 214 664 205 l 561 376 l 485 307 l 485 217 q 496 170 485 185 q 521 145 507 155 q 547 120 536 135 q 557 74 557 105 q 535 18 557 36 q 476 0 512 0 l 138 0 q 79 18 101 0 q 56 74 56 35 q 71 126 56 109 q 104 154 85 143 q 137 179 123 165 q 151 222 151 193 l 151 717 q 137 761 151 747 q 104 786 123 775 q 71 813 85 796 q 56 865 56 830 q 79 921 56 903 q 138 939 101 939 l 498 939 q 557 921 534 939 q 579 865 579 903 z "},"L":{"ha":879,"x_min":45,"x_max":872,"o":"m 565 865 q 551 813 565 830 q 518 785 537 796 q 486 760 500 774 q 472 717 472 746 l 472 213 q 483 169 472 186 q 524 151 494 151 l 559 151 q 639 172 610 151 q 683 223 667 193 q 711 283 699 253 q 741 334 724 313 q 792 355 759 355 q 849 335 826 355 q 872 281 872 316 q 868 252 872 266 l 822 83 q 788 7 809 38 q 713 -24 768 -24 q 672 -18 692 -24 q 631 -8 651 -13 q 594 -2 612 -3 q 557 0 576 0 l 127 0 q 68 18 90 0 q 45 74 45 35 q 60 126 45 109 q 92 154 74 143 q 125 178 111 164 q 139 222 139 193 l 139 717 q 125 760 139 746 q 92 785 111 774 q 60 812 74 795 q 45 865 45 829 q 68 921 45 903 q 127 939 90 939 l 484 939 q 543 921 520 939 q 565 865 565 903 z "},"M":{"ha":1227,"x_min":-3,"x_max":1231,"o":"m 311 77 q 289 19 311 38 q 229 0 267 0 l 77 0 q 19 18 41 0 q -3 74 -3 35 q 9 122 -3 106 q 39 149 22 138 q 70 175 56 159 q 85 221 83 190 l 119 718 l 119 724 q 106 763 119 749 q 75 787 92 776 q 43 815 57 798 q 30 865 30 832 q 52 921 30 903 q 111 939 75 939 l 351 939 q 454 899 419 939 q 508 802 488 860 l 618 477 l 726 802 q 781 900 746 862 q 884 939 815 939 l 1129 939 q 1188 921 1166 939 q 1211 865 1211 903 q 1197 815 1211 833 q 1165 785 1183 797 q 1134 761 1147 774 q 1120 727 1120 749 l 1120 724 l 1149 222 q 1163 174 1151 189 q 1192 151 1176 159 q 1219 127 1207 142 q 1231 79 1231 113 q 1210 20 1231 41 q 1150 0 1188 0 l 811 0 q 752 18 774 0 q 730 74 730 35 q 744 122 730 104 q 775 152 758 140 q 807 176 793 164 q 821 209 821 189 l 821 213 l 798 536 l 659 137 q 634 79 649 107 q 597 33 620 51 q 537 15 574 15 q 468 31 490 15 q 424 87 446 47 q 398 144 408 115 l 257 543 l 235 221 l 235 216 q 247 178 235 193 q 273 151 258 163 q 299 122 288 139 q 311 77 311 105 z "},"N":{"ha":1153,"x_min":36,"x_max":1114,"o":"m 429 74 q 406 17 429 35 q 347 0 383 0 l 143 0 q 83 17 106 0 q 60 74 60 35 q 77 127 60 110 q 115 154 93 144 q 153 180 136 165 q 169 228 169 195 l 169 635 q 157 704 169 682 q 112 758 144 726 q 63 809 90 779 q 36 872 36 839 q 58 921 36 904 q 110 939 80 939 l 321 939 q 369 935 351 939 q 400 920 386 931 q 433 887 414 909 l 853 406 l 853 711 q 837 760 853 745 q 799 785 821 774 q 762 811 778 795 q 745 865 745 828 q 768 921 745 904 q 828 939 791 939 l 1031 939 q 1091 921 1067 939 q 1114 865 1114 903 q 1094 808 1114 823 q 1043 774 1074 793 q 1013 750 1021 762 q 1006 711 1006 738 l 1006 317 q 1011 253 1006 286 q 1033 192 1016 220 q 1068 136 1049 165 q 1088 74 1088 106 q 1068 20 1088 41 q 1015 0 1048 0 l 784 0 q 738 13 755 0 q 721 57 721 26 q 701 100 721 77 q 669 138 682 123 l 321 541 l 321 228 q 329 189 321 201 q 359 164 336 178 q 409 130 389 145 q 429 74 429 115 z "},"O":{"ha":1081,"x_min":47,"x_max":1034,"o":"m 541 966 q 797 906 686 966 q 971 735 908 845 q 1034 479 1034 626 q 973 217 1034 331 q 803 38 913 102 q 541 -27 692 -27 q 277 36 388 -27 q 107 212 167 98 q 47 476 47 325 q 111 732 47 621 q 286 904 174 842 q 541 966 397 966 m 690 270 q 669 478 690 377 q 652 547 664 504 q 621 637 640 589 q 578 727 602 684 q 525 797 554 770 q 464 823 496 823 q 415 795 429 823 q 397 730 400 766 q 394 669 394 694 q 408 502 394 585 q 451 338 422 418 q 476 279 459 315 q 515 205 492 242 q 565 144 538 169 q 621 119 592 119 q 670 146 655 119 q 687 210 684 174 q 690 270 690 246 z "},"P":{"ha":950,"x_min":26,"x_max":941,"o":"m 941 583 q 910 442 941 500 q 824 349 878 385 q 703 296 770 313 q 562 280 635 280 q 451 292 505 280 l 451 222 q 467 175 451 189 q 505 152 484 161 q 543 126 527 142 q 559 74 559 110 q 537 18 559 35 q 479 0 515 0 l 107 0 q 49 18 71 0 q 26 74 26 36 q 40 126 26 109 q 72 154 54 143 q 104 179 90 165 q 117 222 117 193 l 117 717 q 104 761 117 746 q 72 786 90 775 q 40 814 54 797 q 26 865 26 831 q 49 921 26 903 q 107 939 71 939 l 460 939 q 630 920 545 939 q 785 861 715 902 q 899 751 856 820 q 941 583 941 683 m 621 593 q 576 728 621 670 q 451 788 531 785 l 451 415 q 466 414 458 414 q 583 468 545 414 q 621 593 621 522 z "},"Q":{"ha":1085,"x_min":47,"x_max":1076,"o":"m 924 -193 q 754 -144 826 -193 q 635 -20 683 -95 q 545 -27 592 -27 q 280 35 392 -27 q 108 211 168 98 q 47 476 47 323 q 112 733 47 623 q 288 905 176 843 q 545 966 401 966 q 803 906 691 966 q 978 736 915 846 q 1042 479 1042 627 q 976 209 1042 326 q 794 31 911 92 q 851 4 819 14 q 925 -5 884 -5 q 978 2 951 -5 q 1030 9 1004 9 q 1063 -3 1049 9 q 1076 -35 1076 -16 q 1072 -63 1076 -50 q 1063 -90 1068 -77 q 1032 -151 1047 -129 q 993 -183 1017 -174 q 924 -193 968 -193 m 699 275 q 677 478 699 380 q 659 547 672 505 q 627 637 646 590 q 584 727 608 685 q 530 797 559 770 q 468 823 501 823 q 426 806 441 823 q 404 763 410 789 q 395 710 397 737 q 394 664 394 684 q 452 338 394 493 q 476 281 460 316 q 514 211 492 246 q 562 151 536 175 q 545 225 551 187 q 543 248 543 237 q 555 297 543 274 q 597 321 567 321 q 645 297 632 321 q 667 245 658 273 q 678 211 672 228 q 690 179 684 195 q 697 230 696 203 q 699 275 699 256 z "},"R":{"ha":1078,"x_min":46,"x_max":1059,"o":"m 1001 610 q 963 483 1001 532 q 866 405 926 434 l 969 208 q 1005 164 984 180 q 1042 130 1026 149 q 1059 74 1059 111 q 1036 18 1059 35 q 977 0 1014 0 l 687 0 q 609 74 609 0 q 631 127 609 102 q 633 141 631 134 q 635 154 635 147 q 625 190 635 163 q 601 251 615 217 q 572 315 586 285 q 557 315 564 315 q 473 324 515 315 l 473 222 q 475 196 473 203 q 489 174 477 189 q 525 129 509 149 q 541 74 541 110 q 518 17 541 35 q 459 0 496 0 l 127 0 q 68 18 90 0 q 46 74 46 35 q 60 126 46 109 q 93 153 74 142 q 125 178 111 163 q 139 222 139 192 l 139 717 q 125 761 139 747 q 93 786 111 776 q 60 813 74 797 q 46 865 46 830 q 68 921 46 903 q 127 939 90 939 l 505 939 q 636 929 567 939 q 769 898 705 920 q 887 838 834 876 q 970 744 939 800 q 1001 610 1001 688 m 473 802 l 473 443 q 507 441 488 441 q 625 489 589 441 q 661 613 661 536 q 613 747 661 692 q 484 802 566 802 l 473 802 z "},"S":{"ha":896,"x_min":61,"x_max":851,"o":"m 462 -20 q 405 -17 433 -20 q 349 -9 376 -14 q 324 -6 336 -7 q 299 -4 312 -4 q 243 -14 271 -4 q 188 -24 216 -24 q 133 -3 149 -24 q 111 54 118 19 q 94 138 102 96 q 78 223 86 181 q 76 240 76 231 q 99 290 76 272 q 152 307 123 307 q 198 290 178 307 q 236 245 217 272 q 280 193 255 219 q 342 149 304 167 q 437 132 380 132 q 506 147 471 132 q 541 203 541 162 q 524 248 541 232 q 484 273 507 264 q 438 288 460 282 q 300 336 367 309 q 179 403 233 363 q 93 503 125 443 q 61 649 61 562 q 108 818 61 749 q 234 921 155 886 q 406 956 313 956 q 461 953 434 956 q 516 943 489 950 q 561 931 538 938 q 607 925 584 925 q 653 943 633 925 q 701 960 673 960 q 747 944 730 960 q 775 903 764 927 q 792 857 785 879 l 846 684 q 851 654 851 667 q 827 601 851 621 q 772 581 804 581 q 728 596 743 581 q 700 634 714 612 q 598 753 654 705 q 451 802 542 802 q 390 785 418 802 q 363 731 363 768 q 384 679 363 699 q 433 649 404 660 q 488 629 463 637 q 614 582 553 608 q 724 517 675 555 q 801 422 772 478 q 829 286 829 366 q 798 152 829 210 q 715 56 767 94 q 597 -1 663 18 q 462 -20 531 -20 z "},"T":{"ha":973,"x_min":20,"x_max":956,"o":"m 325 939 l 650 939 q 687 940 669 939 q 723 946 705 942 q 765 956 744 951 q 806 961 785 961 q 882 931 861 961 q 915 854 904 901 l 952 699 q 956 671 956 684 q 933 615 956 635 q 876 595 911 595 q 829 614 846 595 q 800 660 812 633 q 773 714 787 687 q 737 760 760 741 q 674 779 714 779 l 654 779 l 654 222 q 668 179 654 194 q 699 153 682 164 q 730 124 716 142 q 743 74 743 107 q 721 17 743 35 q 662 0 699 0 l 313 0 q 254 18 276 0 q 231 75 231 36 q 245 124 231 107 q 276 153 258 141 q 307 179 294 164 q 321 222 321 193 l 321 779 l 301 779 q 238 760 261 779 q 201 714 216 741 q 175 660 187 687 q 146 613 163 632 q 100 595 130 595 q 42 615 64 595 q 20 671 20 635 q 23 699 20 684 l 60 854 q 93 931 71 901 q 169 961 115 961 q 207 956 189 961 q 245 947 226 951 q 284 941 264 943 q 325 939 304 939 z "},"U":{"ha":1139,"x_min":28,"x_max":1120,"o":"m 861 292 q 859 355 861 323 q 854 418 857 387 l 833 716 q 818 762 830 753 q 774 783 806 771 q 723 809 740 795 q 705 863 705 823 q 726 919 705 899 q 783 939 747 939 l 1043 939 q 1099 919 1078 939 q 1120 863 1120 899 q 1106 815 1120 831 q 1073 790 1093 799 q 1032 774 1053 781 q 998 752 1012 766 q 984 711 984 739 l 984 707 l 1014 420 q 1019 350 1017 385 q 1021 281 1021 315 q 976 127 1021 187 q 860 33 931 67 q 706 -14 788 -1 q 549 -27 624 -27 q 397 -12 471 -27 q 264 39 323 3 q 169 136 204 75 q 134 288 134 197 q 137 361 134 325 q 144 434 141 397 l 163 725 l 163 729 q 150 761 163 751 q 116 776 136 770 q 75 789 96 781 q 41 814 55 797 q 28 863 28 831 q 49 919 28 899 q 105 939 70 939 l 547 939 q 604 919 583 939 q 625 863 625 899 q 612 815 625 830 q 578 793 600 800 q 534 774 557 786 q 505 752 511 764 q 497 717 498 741 l 482 500 q 476 410 479 455 q 473 319 473 365 q 524 184 473 225 q 665 142 574 142 q 758 156 713 142 q 832 202 803 170 q 861 292 861 235 z "},"V":{"ha":1115,"x_min":33,"x_max":1097,"o":"m 722 865 q 745 921 722 904 q 805 939 768 939 l 1015 939 q 1074 921 1051 939 q 1097 865 1097 903 q 1077 813 1097 827 q 1029 783 1057 799 q 989 742 1002 767 q 966 690 976 718 l 775 178 q 758 123 764 149 q 751 65 751 97 q 734 18 751 37 q 688 0 717 0 l 431 0 q 385 20 399 0 q 370 68 370 39 q 363 115 370 92 q 348 159 356 138 l 147 704 q 126 748 136 733 q 90 781 117 763 q 47 813 62 800 q 33 865 33 827 q 56 921 33 904 q 115 939 79 939 l 505 939 q 564 921 541 939 q 587 865 587 904 q 573 820 587 836 q 541 795 559 805 q 509 772 523 785 q 495 734 495 759 q 498 710 495 722 q 505 686 500 698 l 651 275 l 811 711 q 817 741 817 728 q 803 773 817 762 q 770 795 789 785 q 736 820 751 805 q 722 865 722 836 z "},"W":{"ha":1444,"x_min":-5,"x_max":1465,"o":"m 1136 865 q 1158 921 1136 903 q 1217 939 1181 939 l 1384 939 q 1443 921 1421 939 q 1465 865 1465 903 q 1451 820 1465 834 q 1415 791 1438 806 q 1379 762 1391 774 q 1360 733 1367 749 q 1345 690 1354 717 l 1202 192 q 1184 68 1184 131 q 1169 20 1184 40 q 1124 0 1154 0 l 905 0 q 861 20 876 0 q 846 68 846 41 q 842 111 846 90 q 831 152 838 132 l 734 475 l 644 192 q 631 145 636 169 q 627 96 627 121 q 624 52 627 74 q 608 15 621 29 q 566 0 595 0 l 347 0 q 303 21 317 0 q 288 68 288 41 q 275 152 288 110 l 101 704 q 82 748 92 735 q 46 781 72 761 q 8 815 21 800 q -5 865 -5 831 q 17 921 -5 903 q 76 939 39 939 l 418 939 q 477 921 455 939 q 499 865 499 904 q 489 824 499 838 q 467 800 479 810 q 444 778 454 791 q 434 740 434 765 q 437 713 434 726 q 444 686 439 700 l 542 360 l 659 728 q 647 764 654 750 q 613 798 640 779 q 584 826 593 813 q 574 865 574 838 q 597 921 574 903 q 656 939 620 939 l 972 939 q 1031 921 1008 939 q 1053 865 1053 903 q 1043 824 1053 838 q 1019 800 1033 810 q 996 777 1006 789 q 985 739 985 764 q 988 713 985 726 q 994 686 991 699 l 1090 355 l 1194 711 q 1199 728 1197 720 q 1200 746 1200 737 q 1184 785 1200 770 q 1152 818 1168 800 q 1136 865 1136 835 z "},"X":{"ha":1104,"x_min":35,"x_max":1072,"o":"m 504 762 q 513 739 504 751 q 528 718 522 726 l 621 606 q 682 680 652 644 q 730 742 711 717 q 749 769 749 766 q 732 786 749 777 q 699 812 715 795 q 682 865 682 830 q 760 939 682 939 l 943 939 q 1002 923 979 939 q 1025 867 1025 907 q 1003 815 1025 834 q 957 779 980 796 q 918 743 936 762 q 882 703 899 724 l 712 498 l 940 224 q 977 185 962 198 q 1021 153 991 172 q 1058 121 1044 138 q 1072 74 1072 104 q 1049 18 1072 35 q 990 0 1027 0 l 600 0 q 540 18 564 0 q 517 74 517 35 q 528 120 517 103 q 555 146 540 136 q 583 164 571 156 q 594 184 594 172 q 576 219 594 199 q 548 249 557 238 l 469 344 l 348 206 q 330 185 342 199 q 319 161 319 171 q 334 144 319 152 q 363 121 349 136 q 378 74 378 106 q 357 18 378 37 q 300 0 336 0 l 118 0 q 59 18 81 0 q 36 74 36 35 q 52 121 36 106 q 92 153 68 136 q 145 197 120 172 q 193 248 170 222 l 376 454 l 144 731 q 85 786 117 764 q 48 818 60 804 q 35 865 35 831 q 59 921 35 903 q 118 939 82 939 l 492 939 q 551 921 528 939 q 574 865 574 904 q 557 809 574 827 q 522 784 539 792 q 504 762 504 775 z "},"Y":{"ha":1083,"x_min":24,"x_max":1059,"o":"m 825 74 q 802 17 825 35 q 743 0 779 0 l 353 0 q 293 18 317 0 q 270 74 270 35 q 287 127 270 109 q 326 155 304 144 q 364 179 347 165 q 381 222 381 193 l 381 312 l 144 704 q 121 746 129 730 q 85 780 113 762 q 40 812 56 800 q 24 865 24 825 q 47 921 24 904 q 107 939 71 939 l 493 939 q 553 921 530 939 q 576 865 576 904 q 561 814 576 831 q 528 788 547 797 q 495 769 509 779 q 480 742 480 760 q 487 713 480 728 q 501 686 494 698 l 633 459 l 778 711 q 787 729 783 719 q 791 748 791 739 q 778 772 791 764 q 748 790 765 781 q 718 816 731 799 q 705 865 705 833 q 728 921 705 904 q 787 939 751 939 l 977 939 q 1036 921 1013 939 q 1059 865 1059 904 q 1046 819 1059 833 q 1010 787 1034 804 q 975 752 987 768 q 947 711 962 736 l 715 321 l 715 222 q 731 180 715 193 q 770 156 748 166 q 809 128 792 146 q 825 74 825 111 z "},"Z":{"ha":953,"x_min":26,"x_max":919,"o":"m 909 864 q 896 812 909 839 q 868 765 882 785 l 419 151 l 586 151 q 675 172 643 151 q 726 223 708 193 q 757 283 744 253 q 788 334 770 313 q 838 355 806 355 q 895 335 870 355 q 919 281 919 316 q 914 252 919 269 l 863 83 q 830 7 850 38 q 754 -24 810 -24 q 711 -18 732 -24 q 669 -8 690 -13 q 595 0 632 0 l 102 0 q 46 20 67 0 q 26 75 26 39 q 39 127 26 100 q 67 174 52 154 l 517 787 l 358 787 q 273 772 302 787 q 229 733 243 756 q 203 686 214 709 q 177 647 193 663 q 127 631 161 631 q 74 649 102 631 q 47 695 47 667 q 48 705 47 698 l 80 854 q 113 931 90 901 q 189 961 136 961 q 269 950 230 961 q 349 939 309 939 l 833 939 q 888 919 868 939 q 909 864 909 900 z "},"a":{"ha":787,"x_min":27,"x_max":800,"o":"m 27 156 q 56 260 27 218 q 133 327 85 302 q 235 363 180 353 q 340 374 290 374 q 371 374 355 374 q 401 371 387 374 l 401 547 q 394 587 401 564 q 366 609 387 609 q 339 592 345 609 q 334 559 334 574 q 335 545 334 552 q 335 530 335 538 q 287 432 335 460 q 177 404 239 404 q 87 427 125 404 q 50 509 50 450 q 59 553 50 532 q 82 592 68 575 q 186 669 123 642 q 318 705 249 695 q 449 715 388 715 q 576 695 518 715 q 668 630 633 675 q 703 507 703 584 l 703 194 q 708 174 703 182 q 726 165 713 165 q 744 171 736 165 q 761 178 751 178 q 790 164 781 178 q 800 132 800 151 q 771 51 800 85 q 700 -2 743 16 q 614 -20 657 -20 q 511 3 563 -20 q 439 73 459 25 q 345 2 405 24 q 227 -20 285 -20 q 129 0 174 -20 q 55 60 83 20 q 27 156 27 99 m 333 216 q 346 164 333 189 q 390 140 359 140 q 401 142 396 140 l 401 282 q 378 287 390 287 q 342 261 352 287 q 333 216 333 236 z "},"b":{"ha":878,"x_min":12,"x_max":841,"o":"m 380 956 l 380 635 q 466 694 418 671 q 569 716 513 716 q 689 686 638 716 q 774 605 741 655 q 824 494 808 555 q 841 372 841 433 q 802 180 841 270 q 687 36 762 91 q 500 -20 611 -20 q 410 -5 451 -20 q 336 37 370 10 q 228 0 286 18 q 126 -18 170 -18 q 89 -3 102 -18 q 76 35 76 12 l 76 745 q 66 791 76 776 q 44 815 57 806 q 22 836 31 825 q 12 868 12 846 q 29 910 12 896 q 69 934 46 925 l 215 993 q 268 1012 241 1004 q 323 1020 295 1020 q 366 1001 351 1020 q 380 956 380 981 m 427 540 q 380 523 401 540 l 380 161 q 405 142 391 149 q 435 135 418 135 q 484 158 466 135 q 512 214 503 180 q 524 282 521 248 q 526 338 526 316 q 523 395 526 361 q 509 463 519 429 q 479 518 498 496 q 427 540 459 540 z "},"c":{"ha":731,"x_min":26,"x_max":700,"o":"m 696 494 q 650 397 696 430 q 546 363 604 363 q 450 396 486 363 q 414 490 414 429 q 407 546 414 517 q 363 574 400 574 q 319 547 334 574 q 299 484 304 519 q 294 429 294 450 q 313 317 294 370 q 374 232 332 264 q 481 199 415 199 q 557 217 519 199 q 625 254 595 236 q 665 273 654 273 q 693 256 686 273 q 700 223 700 239 q 671 117 700 162 q 595 41 642 71 q 493 -4 548 11 q 385 -20 437 -20 q 202 24 283 -20 q 74 146 121 68 q 26 328 26 225 q 72 528 26 440 q 201 666 117 615 q 399 716 285 716 q 502 704 450 716 q 598 664 554 691 q 669 595 642 637 q 696 494 696 553 z "},"d":{"ha":903,"x_min":39,"x_max":865,"o":"m 39 325 q 79 517 39 428 q 195 661 119 606 q 382 716 272 716 q 504 688 449 716 l 504 745 q 494 790 504 775 q 472 814 484 805 q 449 834 459 823 q 439 868 439 846 q 456 910 439 896 q 496 934 473 925 l 643 993 q 696 1012 669 1004 q 751 1020 723 1020 q 794 1001 779 1020 q 808 956 808 981 l 808 199 q 813 153 808 166 q 841 116 818 140 q 860 92 854 102 q 865 62 865 82 q 846 16 865 33 q 799 0 827 0 l 647 0 q 574 23 609 0 q 525 83 539 47 q 431 9 484 38 q 313 -20 378 -20 q 192 11 244 -20 q 106 91 140 41 q 56 203 73 142 q 39 325 39 264 m 353 359 q 357 300 353 334 q 371 233 361 266 q 402 178 382 200 q 456 156 423 156 q 504 174 482 156 l 504 536 q 478 554 492 547 q 447 562 464 562 q 397 539 416 562 q 369 483 378 516 q 356 415 359 449 q 353 359 353 381 z "},"e":{"ha":736,"x_min":27,"x_max":710,"o":"m 710 448 q 674 357 710 388 q 581 326 639 326 l 307 326 q 363 228 323 267 q 478 188 403 188 q 537 200 508 188 q 593 230 567 213 q 639 259 619 247 q 669 272 659 272 q 697 258 688 272 q 706 227 706 244 q 677 118 706 165 q 601 41 648 72 q 498 -4 554 11 q 388 -20 442 -20 q 200 24 281 -20 q 73 148 119 68 q 27 336 27 228 q 72 536 27 451 q 199 669 116 622 q 399 716 283 716 q 551 686 480 716 q 666 595 622 655 q 710 448 710 536 m 295 430 q 295 415 295 422 l 366 415 q 401 427 391 415 q 410 463 410 439 q 406 506 410 479 q 390 553 402 532 q 356 574 378 574 q 323 558 336 574 q 305 516 311 541 q 297 468 299 492 q 295 430 295 444 z "},"f":{"ha":589,"x_min":-1,"x_max":612,"o":"m 418 515 l 418 204 q 432 145 418 156 q 490 128 445 134 q 547 115 526 123 q 568 62 568 106 q 550 16 568 31 q 502 0 532 0 l 85 0 q 38 15 56 0 q 19 60 19 31 q 33 108 19 95 q 66 128 47 121 q 99 151 85 135 q 113 207 113 166 l 113 469 q 96 506 113 494 q 56 528 79 518 q 17 554 34 538 q -1 602 -1 570 q 18 644 -1 629 q 62 659 36 659 l 115 659 l 115 666 q 95 688 115 672 q 55 730 75 705 q 35 789 35 756 q 61 891 35 849 q 132 958 88 932 q 228 995 176 983 q 331 1006 280 1006 q 426 996 377 1006 q 517 961 475 985 q 586 900 559 938 q 612 806 612 861 q 581 718 612 751 q 493 686 549 686 q 398 720 434 686 q 363 814 363 755 q 361 855 363 835 q 349 888 359 875 q 311 901 338 901 q 274 883 283 901 q 264 840 264 864 q 284 791 264 813 q 329 750 303 770 q 373 710 354 730 q 393 665 393 689 l 393 659 l 517 659 q 560 646 542 659 q 578 606 578 633 q 551 545 578 564 q 487 520 524 526 q 418 515 450 515 z "},"g":{"ha":803,"x_min":19,"x_max":819,"o":"m 819 -54 q 784 -149 819 -111 q 693 -211 749 -187 q 573 -247 637 -235 q 449 -263 509 -259 q 350 -268 390 -268 q 281 -266 323 -268 q 194 -258 239 -264 q 109 -236 149 -251 q 44 -196 69 -222 q 19 -131 19 -170 q 57 -55 19 -82 q 149 -14 95 -27 q 108 14 124 -4 q 92 62 92 32 q 118 127 92 103 q 184 164 144 152 q 267 182 224 177 q 154 226 206 197 q 69 304 101 255 q 37 425 37 353 q 67 556 37 502 q 148 643 97 610 q 262 693 199 677 q 392 712 326 710 q 443 823 413 768 q 518 916 472 879 q 631 954 564 954 q 723 921 687 954 q 760 831 760 888 q 737 748 760 785 q 662 710 714 710 q 606 729 625 710 q 572 766 586 747 q 538 785 557 785 q 502 759 517 785 q 478 709 487 733 q 616 670 551 701 q 722 585 681 640 q 763 447 763 530 q 733 320 763 373 q 652 233 703 267 q 539 183 602 199 q 411 167 476 167 q 370 168 390 167 q 361 152 361 160 q 381 133 361 138 q 429 125 401 127 q 482 125 457 124 q 516 125 507 125 q 618 121 565 125 q 716 100 671 117 q 791 46 762 83 q 819 -54 819 10 m 380 608 q 353 592 361 608 q 343 555 345 576 q 341 520 341 534 q 343 461 341 502 q 353 377 346 421 q 376 302 361 333 q 418 271 391 271 q 448 287 439 271 q 458 322 456 302 q 460 357 460 342 q 458 418 460 377 q 449 503 456 459 q 425 577 441 547 q 380 608 409 608 m 262 -77 q 283 -110 262 -98 q 333 -128 304 -122 q 390 -136 363 -134 q 430 -138 417 -138 q 475 -133 445 -138 q 531 -117 505 -129 q 557 -84 557 -106 q 531 -41 557 -54 q 474 -27 506 -29 q 421 -25 442 -25 q 359 -26 390 -25 q 296 -28 328 -28 q 272 -51 282 -39 q 262 -77 262 -63 z "},"h":{"ha":943,"x_min":36,"x_max":913,"o":"m 349 1020 q 392 1001 377 1020 q 407 956 407 981 l 407 589 q 526 677 461 638 q 656 716 591 716 q 766 684 722 716 q 833 600 810 652 q 855 486 855 547 l 855 204 q 857 168 855 180 q 865 144 858 155 q 888 115 872 134 q 907 92 902 100 q 913 62 913 83 q 895 16 913 32 q 847 0 876 0 l 561 0 q 517 17 532 0 q 501 62 501 34 q 513 101 501 87 q 538 131 526 115 q 550 180 550 148 l 550 413 q 537 476 550 446 q 484 506 524 506 q 441 497 459 506 q 407 473 422 488 l 407 186 q 414 139 407 155 q 432 114 422 123 q 449 94 441 104 q 456 62 456 83 q 441 17 456 34 q 397 0 425 0 l 111 0 q 63 16 81 0 q 44 62 44 31 q 53 97 44 85 q 73 120 62 110 q 93 145 84 130 q 102 190 102 161 l 102 745 q 92 791 102 776 q 69 815 82 806 q 46 835 56 824 q 36 868 36 846 q 54 910 36 895 q 93 934 71 925 l 241 993 q 294 1011 267 1003 q 349 1020 321 1020 z "},"i":{"ha":495,"x_min":36,"x_max":465,"o":"m 349 716 q 392 697 376 716 q 407 652 407 678 l 407 204 q 409 166 407 185 q 424 132 410 146 q 453 102 441 113 q 465 62 465 92 q 447 16 465 32 q 399 0 428 0 l 111 0 q 63 16 81 0 q 44 62 44 31 q 56 103 44 91 q 85 132 67 115 q 101 166 99 146 q 102 204 102 186 l 102 441 q 100 469 102 454 q 89 494 98 484 q 82 499 86 497 q 76 504 79 501 q 48 529 61 519 q 36 564 36 539 q 53 606 36 591 q 93 630 70 621 l 239 689 q 293 708 265 699 q 349 716 321 716 m 247 719 q 159 732 203 719 q 86 775 115 745 q 56 857 56 805 q 86 938 56 908 q 160 979 116 967 q 247 991 204 991 q 334 979 290 991 q 409 938 378 967 q 439 857 439 908 q 409 774 439 804 q 335 731 379 744 q 247 719 290 719 z "},"j":{"ha":513,"x_min":-77,"x_max":506,"o":"m 268 719 q 180 732 224 719 q 107 775 136 745 q 77 857 77 805 q 107 938 77 908 q 181 979 137 967 q 268 991 225 991 q 355 979 311 991 q 430 938 399 967 q 460 857 460 908 q 430 774 460 804 q 356 731 400 744 q 268 719 311 719 m 357 716 q 400 697 385 716 q 416 652 416 679 l 416 275 q 430 197 416 235 q 461 123 444 160 q 492 49 479 87 q 506 -31 506 11 q 462 -168 506 -115 q 349 -244 418 -220 q 207 -268 281 -268 q 113 -258 162 -268 q 20 -226 64 -248 q -50 -166 -23 -203 q -77 -75 -77 -130 q -41 19 -77 -14 q 56 52 -4 52 q 152 16 116 52 q 187 -81 187 -21 q 194 -137 187 -112 q 240 -163 201 -163 q 292 -110 292 -163 q 264 -36 292 -73 q 201 40 237 1 q 138 119 165 78 q 111 208 111 161 l 111 444 q 99 492 111 478 q 70 513 86 506 q 42 530 54 519 q 29 566 29 540 q 47 607 29 591 q 87 631 65 623 l 243 690 q 299 708 271 700 q 357 716 328 716 z "},"k":{"ha":1019,"x_min":36,"x_max":1032,"o":"m 436 0 l 115 0 q 66 15 86 0 q 46 62 46 31 q 57 99 46 85 q 85 125 67 113 q 112 146 104 138 q 122 165 120 154 q 124 200 124 177 l 124 745 q 120 781 124 770 q 106 798 117 792 q 75 814 96 804 q 47 836 58 822 q 36 868 36 849 q 54 910 36 895 q 95 934 73 926 l 254 993 q 311 1011 282 1003 q 368 1020 339 1020 q 413 1002 397 1020 q 429 956 429 983 l 429 404 l 583 526 q 594 536 588 530 q 601 548 601 541 q 585 568 601 560 q 552 590 568 576 q 536 633 536 604 q 556 680 536 665 q 605 694 576 694 l 885 694 q 934 680 914 694 q 954 633 954 665 q 929 580 954 595 q 873 557 905 566 q 804 536 835 548 q 743 499 774 525 l 703 467 l 927 182 q 967 145 942 164 q 1012 106 991 127 q 1032 58 1032 85 q 1012 14 1032 28 q 964 0 991 0 l 639 0 q 594 17 611 0 q 577 62 577 34 q 592 101 577 88 q 623 122 608 114 q 637 143 637 131 q 630 163 637 155 q 616 180 623 172 l 508 309 l 429 245 l 429 204 q 431 161 429 182 q 452 125 433 140 q 485 100 472 110 q 498 62 498 91 q 436 0 498 0 z "},"l":{"ha":507,"x_min":36,"x_max":477,"o":"m 355 1020 q 398 1001 383 1020 q 414 956 414 982 l 414 204 q 416 166 414 184 q 433 132 418 147 q 464 103 451 114 q 477 62 477 92 q 458 16 477 31 q 410 0 439 0 l 112 0 q 64 16 83 0 q 45 62 45 31 q 54 99 45 87 q 77 120 64 111 q 99 145 90 129 q 109 195 109 161 l 109 745 q 98 793 109 778 q 72 815 87 808 q 47 834 58 823 q 36 868 36 844 q 54 910 36 895 q 94 934 71 925 l 245 993 q 299 1012 272 1004 q 355 1020 326 1020 z "},"m":{"ha":1339,"x_min":33,"x_max":1313,"o":"m 340 716 q 383 697 368 716 q 397 652 397 677 l 397 583 q 514 675 450 633 q 640 716 578 716 q 755 674 712 716 q 816 572 799 632 q 893 640 852 607 q 979 695 935 673 q 1070 716 1024 716 q 1176 683 1135 716 q 1238 596 1218 649 q 1258 486 1258 544 l 1258 204 q 1260 165 1258 189 q 1275 131 1262 142 l 1275 130 q 1301 100 1290 115 q 1313 62 1313 85 q 1295 16 1313 32 q 1247 0 1276 0 l 968 0 q 925 17 941 0 q 909 62 909 35 q 921 100 909 87 q 945 131 933 114 q 956 179 956 147 l 956 413 q 952 453 956 432 q 936 490 948 475 q 899 506 924 506 q 860 494 877 506 q 827 467 842 481 l 827 185 q 839 132 827 149 q 862 100 850 114 q 873 62 873 87 q 858 17 873 34 q 814 0 843 0 l 538 0 q 494 17 509 0 q 479 62 479 35 q 491 101 479 87 q 514 131 503 115 q 526 179 526 147 l 526 413 q 522 453 526 432 q 505 490 517 475 q 469 506 493 506 q 429 494 447 506 q 397 467 412 482 l 397 185 q 409 131 397 149 q 432 100 420 113 q 444 62 444 87 q 429 17 444 35 q 385 0 414 0 l 106 0 q 59 16 77 0 q 41 62 41 32 q 55 106 41 92 q 82 137 68 120 q 96 189 96 153 l 96 441 q 86 487 96 471 q 64 511 77 502 q 43 531 52 519 q 33 564 33 542 q 50 606 33 592 q 90 630 66 621 l 233 689 q 285 708 258 700 q 340 716 312 716 z "},"n":{"ha":932,"x_min":36,"x_max":902,"o":"m 347 716 q 390 697 375 716 q 404 652 404 677 l 404 589 q 522 677 458 639 q 650 716 587 716 q 759 684 715 716 q 824 599 802 651 q 846 486 846 547 l 846 204 q 848 167 846 185 q 863 132 850 149 q 890 102 878 113 q 902 62 902 91 q 884 16 902 32 q 836 0 865 0 l 553 0 q 509 17 524 0 q 494 62 494 34 q 506 102 494 87 q 529 133 517 117 q 541 178 541 149 l 541 413 q 529 475 541 445 q 477 506 516 506 q 436 497 453 506 q 404 473 419 488 l 404 196 q 406 159 404 178 q 419 125 407 140 q 443 97 433 108 q 452 62 452 87 q 437 17 452 34 q 393 0 422 0 l 110 0 q 62 16 81 0 q 44 62 44 32 q 53 97 44 84 q 72 120 61 109 q 91 146 83 131 q 100 189 100 162 l 100 441 q 90 487 100 471 q 68 512 81 503 q 45 532 55 521 q 36 564 36 543 q 54 606 36 591 q 93 630 71 621 l 239 689 q 292 708 265 700 q 347 716 319 716 z "},"o":{"ha":836,"x_min":37,"x_max":800,"o":"m 425 716 q 621 670 536 716 q 753 541 705 624 q 800 345 800 457 q 748 152 800 234 q 608 25 696 71 q 413 -20 520 -20 q 216 27 300 -20 q 84 158 131 73 q 37 355 37 242 q 90 546 37 465 q 231 672 142 627 q 425 716 319 716 m 463 130 q 487 148 480 130 q 496 187 494 165 q 498 220 498 208 q 492 297 498 258 q 477 372 486 335 q 464 419 473 387 q 441 485 454 450 q 411 544 427 519 q 376 568 395 568 q 354 551 361 568 q 345 512 347 533 q 342 479 342 490 q 348 421 342 461 q 364 331 353 380 q 389 236 374 281 q 423 160 404 190 q 463 130 441 130 z "},"p":{"ha":924,"x_min":36,"x_max":887,"o":"m 336 716 q 386 688 376 716 q 395 629 395 660 q 395 621 395 625 q 489 690 437 663 q 606 716 541 716 q 729 686 676 716 q 817 607 782 656 q 869 496 852 557 q 887 372 887 435 q 846 178 887 267 q 726 35 804 89 q 536 -20 648 -20 q 409 9 466 -20 l 409 -64 q 410 -100 409 -87 q 418 -123 412 -113 q 441 -151 425 -134 q 460 -176 454 -165 q 467 -206 467 -186 q 448 -252 467 -235 q 400 -268 429 -268 l 111 -268 q 63 -252 82 -268 q 44 -206 44 -237 q 53 -170 44 -182 q 74 -148 62 -157 q 95 -123 85 -138 q 104 -77 104 -107 l 104 441 q 94 487 104 472 q 70 511 83 503 q 46 530 56 519 q 36 564 36 541 q 54 606 36 590 q 93 630 72 621 l 227 689 q 280 708 253 701 q 336 716 308 716 m 463 540 q 409 520 434 540 l 409 162 q 437 142 422 150 q 472 135 453 135 q 525 157 505 135 q 556 212 545 179 q 570 279 566 245 q 573 338 573 313 q 569 398 573 364 q 553 465 565 433 q 520 518 542 497 q 463 540 498 540 z "},"q":{"ha":900,"x_min":39,"x_max":878,"o":"m 812 -268 l 525 -268 q 477 -252 496 -268 q 458 -206 458 -237 q 464 -175 458 -184 q 484 -151 470 -165 q 511 -111 507 -127 q 515 -64 515 -95 l 515 62 q 427 3 475 25 q 320 -20 378 -20 q 197 10 250 -20 q 110 90 144 40 q 57 201 75 140 q 39 325 39 262 q 80 518 39 429 q 200 662 121 607 q 389 716 278 716 q 481 702 439 716 q 557 660 523 687 q 666 697 608 679 q 768 715 725 715 q 806 700 793 715 q 820 662 820 686 l 820 -64 q 822 -101 820 -83 q 837 -136 823 -120 q 866 -165 854 -155 q 878 -206 878 -176 q 860 -252 878 -237 q 812 -268 842 -268 m 354 359 q 358 298 354 333 q 373 231 362 264 q 406 177 385 199 q 463 156 427 156 q 515 175 491 156 l 515 534 q 487 554 503 546 q 453 562 471 562 q 401 539 420 562 q 371 484 381 517 q 357 416 361 450 q 354 359 354 382 z "},"r":{"ha":743,"x_min":36,"x_max":727,"o":"m 402 402 l 402 204 q 411 151 402 165 q 460 130 420 138 q 515 114 494 123 q 536 62 536 104 q 517 16 536 31 q 469 0 499 0 l 111 0 q 63 16 82 0 q 44 62 44 31 q 53 98 44 86 q 74 120 62 111 q 95 146 86 130 q 104 195 104 162 l 104 441 q 94 487 104 471 q 70 511 83 502 q 46 531 57 519 q 36 564 36 542 q 53 606 36 591 q 93 630 71 621 l 262 697 q 296 710 279 704 q 331 716 313 716 q 366 698 355 716 q 382 657 378 680 q 389 616 387 633 q 393 591 391 604 q 396 567 395 579 q 461 673 417 629 q 582 716 505 716 q 668 689 637 716 q 713 620 700 662 q 727 530 727 577 q 715 445 727 486 q 675 377 704 404 q 594 351 646 351 q 511 368 537 351 q 477 412 485 386 q 470 463 470 437 q 465 507 469 489 q 441 524 461 524 q 414 499 422 524 q 404 444 406 473 q 402 402 402 415 z "},"s":{"ha":662,"x_min":9,"x_max":650,"o":"m 346 600 q 304 590 323 600 q 286 553 286 580 q 296 520 286 532 q 326 500 307 509 q 368 488 346 492 q 412 479 391 484 q 528 433 474 465 q 616 350 583 401 q 650 231 650 300 q 608 83 650 138 q 496 4 566 28 q 344 -20 427 -20 q 286 -14 323 -20 q 231 1 249 -9 l 231 1 q 208 8 224 4 q 185 12 193 12 q 149 -4 164 12 q 113 -21 134 -21 q 67 -2 83 -21 q 42 43 50 17 q 26 92 33 69 q 16 129 22 111 q 9 168 9 148 q 28 224 9 203 q 83 246 47 246 q 142 231 119 246 q 183 193 165 216 q 219 148 201 171 q 264 110 238 125 q 331 95 291 95 q 373 112 359 95 q 387 155 387 128 q 367 203 387 193 q 315 220 347 214 q 204 248 256 232 q 111 290 151 263 q 47 362 71 317 q 24 477 24 407 q 69 613 24 561 q 185 691 115 666 q 328 716 255 716 q 382 714 355 716 q 435 703 409 712 q 451 698 439 703 q 476 689 464 693 q 488 684 488 684 q 527 700 511 684 q 565 716 543 716 q 607 694 593 716 q 626 643 621 672 q 635 593 632 614 q 641 562 638 578 q 644 530 644 546 q 631 479 644 503 q 587 455 618 455 q 530 477 555 455 q 481 528 506 499 q 425 578 457 556 q 346 600 393 600 z "},"t":{"ha":643,"x_min":12,"x_max":619,"o":"m 347 -20 q 164 34 231 -20 q 98 210 98 88 l 98 505 q 85 549 98 534 q 55 572 72 563 q 25 594 38 581 q 12 635 12 608 q 32 679 12 663 q 78 694 52 694 l 109 694 q 148 714 128 694 q 187 764 167 734 q 229 824 207 794 q 276 873 251 853 q 331 893 301 893 q 384 874 365 893 q 403 821 403 855 l 403 694 l 557 694 q 601 682 583 694 q 619 642 619 670 q 595 584 619 604 q 537 558 571 564 q 473 551 503 551 l 403 551 l 403 283 q 416 220 403 250 q 469 191 429 191 q 514 206 495 191 q 549 236 532 221 q 585 251 566 251 q 609 234 602 251 q 616 203 616 217 q 575 85 616 135 q 472 7 534 35 q 347 -20 410 -20 z "},"u":{"ha":941,"x_min":20,"x_max":896,"o":"m 281 -20 q 174 13 217 -20 q 110 99 131 46 q 89 210 89 152 l 89 441 q 85 476 89 466 q 62 504 81 487 q 34 529 47 517 q 20 564 20 541 q 38 606 20 591 q 77 630 55 621 l 227 689 q 280 708 253 700 q 336 716 307 716 q 378 697 363 716 q 393 652 393 677 l 393 283 q 398 243 393 264 q 415 206 402 221 q 452 191 428 191 q 496 202 477 191 q 531 229 515 213 l 531 441 q 527 478 531 467 q 501 507 522 490 q 474 530 486 519 q 463 564 463 542 q 480 606 463 591 q 519 630 497 621 l 669 689 q 722 708 695 700 q 778 716 749 716 q 821 697 806 716 q 836 652 836 678 l 836 204 q 838 166 836 185 q 853 132 840 148 q 883 102 870 114 q 896 62 896 90 q 878 16 896 31 q 829 0 859 0 l 675 0 q 584 39 623 0 q 545 128 545 77 q 464 58 508 92 q 373 2 420 24 q 281 -20 327 -20 z "},"v":{"ha":871,"x_min":-2,"x_max":876,"o":"m 488 -14 l 382 -14 q 311 12 338 -14 q 268 76 284 39 l 77 509 q 59 546 66 533 q 31 576 52 559 q 6 600 15 589 q -2 633 -2 612 q 18 679 -2 664 q 66 694 38 694 l 432 694 q 477 678 460 694 q 493 633 493 662 q 480 596 493 609 q 450 574 467 583 q 420 553 433 565 q 408 517 408 541 q 411 487 408 502 q 420 459 415 473 l 524 193 l 624 448 q 633 478 629 463 q 637 509 637 494 q 624 550 637 536 q 595 572 612 563 q 565 594 578 581 q 553 633 553 607 q 572 679 553 664 q 620 694 591 694 l 808 694 q 856 680 837 694 q 876 633 876 665 q 866 597 876 608 q 840 570 857 586 q 803 528 814 547 q 780 478 793 509 q 694 272 736 376 q 603 68 651 169 q 558 8 585 31 q 488 -14 532 -14 z "},"w":{"ha":1373,"x_min":-2,"x_max":1377,"o":"m 484 -14 l 385 -14 q 313 11 339 -14 q 270 76 287 37 l 83 505 q 68 537 77 522 q 45 565 59 553 q 13 594 27 581 q -2 633 -2 607 q 18 680 -2 665 q 67 694 38 694 l 418 694 q 479 635 479 694 q 467 597 479 611 q 439 573 455 583 q 411 555 423 564 q 399 530 399 545 q 407 496 399 515 q 419 463 414 476 l 524 197 l 629 460 l 612 505 q 593 542 603 527 q 564 573 583 557 q 541 600 547 588 q 534 635 534 612 q 595 694 534 694 l 932 694 q 973 677 961 694 q 985 633 985 659 q 974 596 985 609 q 949 574 963 583 q 924 557 935 566 q 913 534 913 549 q 919 503 913 517 q 930 473 924 488 l 1032 195 l 1120 448 q 1129 478 1126 463 q 1133 509 1133 493 q 1120 546 1133 533 q 1089 567 1107 558 q 1058 591 1072 576 q 1045 633 1045 605 q 1059 677 1045 659 q 1099 694 1072 694 l 1309 694 q 1358 680 1338 694 q 1377 633 1377 665 q 1369 598 1377 609 q 1343 573 1360 587 q 1299 524 1312 548 q 1272 464 1286 500 l 1116 68 q 1000 -14 1084 -14 l 901 -14 q 829 12 856 -14 q 787 76 802 37 l 699 290 l 600 68 q 555 8 583 31 q 484 -14 527 -14 z "},"x":{"ha":836,"x_min":17,"x_max":823,"o":"m 464 555 q 469 538 464 546 q 478 524 473 531 q 534 448 505 486 l 564 488 q 578 509 572 498 q 585 534 585 521 q 570 564 585 551 q 542 593 556 577 q 527 633 527 608 q 546 679 527 663 q 593 694 564 694 l 753 694 q 801 679 783 694 q 820 633 820 664 q 808 594 820 608 q 778 565 796 581 q 681 471 726 522 q 595 367 636 420 q 696 237 645 302 q 798 109 747 173 q 815 87 807 98 q 823 62 823 77 q 804 16 823 32 q 757 0 786 0 l 420 0 q 373 16 391 0 q 355 62 355 32 q 368 107 355 83 q 381 134 381 132 q 359 170 381 137 q 304 250 337 203 q 286 219 295 233 l 286 218 q 267 193 276 206 q 258 163 258 179 q 273 135 258 147 q 302 106 288 123 q 316 62 316 90 q 298 16 316 32 q 250 0 279 0 l 83 0 q 36 16 55 0 q 17 62 17 33 q 33 106 17 91 q 69 136 48 121 q 165 231 125 178 q 241 342 205 283 q 166 446 200 399 q 123 504 133 493 q 92 538 109 522 q 57 570 75 554 q 32 597 41 584 q 22 633 22 611 q 41 679 22 664 q 89 694 60 694 l 423 694 q 471 679 452 694 q 490 633 490 664 q 477 592 490 610 q 464 555 464 574 z "},"y":{"ha":860,"x_min":-2,"x_max":865,"o":"m 312 -100 q 353 -77 338 -100 q 378 -26 368 -54 l 102 507 q 65 548 90 530 q 19 586 40 566 q -2 633 -2 606 q 17 679 -2 664 q 65 694 36 694 l 428 694 q 476 680 457 694 q 495 634 495 665 q 483 594 495 607 q 455 575 471 581 q 427 561 439 568 q 414 536 414 553 q 420 498 414 517 q 435 462 427 479 l 528 278 l 611 452 q 625 515 625 481 q 611 555 625 544 q 579 572 597 566 q 548 590 562 578 q 534 635 534 603 q 553 680 534 665 q 601 694 572 694 l 799 694 q 847 679 828 694 q 865 633 865 664 q 857 598 865 610 q 831 572 848 587 q 787 524 802 545 q 755 467 772 503 l 571 77 q 518 -36 546 24 q 453 -148 490 -96 q 366 -234 416 -201 q 244 -268 315 -268 q 126 -243 179 -268 q 43 -170 74 -218 q 12 -54 12 -121 q 40 37 12 -1 q 124 74 67 74 q 185 56 161 74 q 225 13 210 39 q 254 -39 241 -13 q 280 -83 267 -65 q 312 -100 293 -100 z "},"z":{"ha":714,"x_min":23,"x_max":708,"o":"m 696 623 q 682 570 696 595 q 652 522 668 545 l 371 119 q 449 133 416 122 q 512 171 483 144 q 574 251 542 199 q 601 291 587 274 q 644 308 614 308 q 687 292 666 308 q 708 252 708 275 q 707 244 708 247 l 667 33 q 606 -21 657 -21 q 549 -11 576 -21 q 491 0 521 0 l 139 0 q 86 7 113 0 q 41 31 59 14 q 23 81 23 48 q 32 129 23 105 q 54 172 40 153 l 340 578 q 244 556 286 576 q 162 471 203 536 q 133 431 148 448 q 89 413 119 413 q 46 430 66 413 q 25 470 25 446 q 26 478 25 475 l 63 663 q 125 716 74 716 q 182 705 155 716 q 239 694 210 694 l 599 694 q 666 681 635 694 q 696 623 696 667 z "},"&":{"ha":1207,"x_min":41,"x_max":1185,"o":"m 745 54 l 709 91 q 565 6 644 32 q 394 -20 487 -20 q 280 -9 341 -20 q 164 29 218 3 q 75 100 110 55 q 41 210 41 144 q 80 334 41 284 q 181 413 119 383 q 310 456 243 443 q 233 505 266 479 q 182 567 200 531 q 164 660 164 604 q 207 803 164 746 q 318 894 250 861 q 464 942 387 928 q 611 957 542 957 q 726 945 665 957 q 840 905 787 932 q 926 831 893 877 q 960 720 960 786 q 934 630 960 667 q 866 571 908 594 q 773 535 824 548 q 673 516 722 522 q 748 468 712 494 q 821 403 783 441 l 907 314 q 923 338 916 326 q 930 366 930 351 q 926 387 930 382 q 909 399 922 391 q 878 430 891 412 q 865 471 865 448 q 888 525 865 503 q 941 547 911 547 l 1107 547 q 1163 533 1141 547 q 1185 481 1185 519 q 1174 429 1185 447 q 1135 391 1163 410 q 1049 324 1090 361 q 969 251 1009 288 l 1045 172 q 1084 150 1061 155 q 1129 138 1107 144 q 1165 119 1151 133 q 1180 73 1180 105 q 1158 17 1180 35 q 1101 -1 1137 -1 l 878 -1 q 745 54 800 -1 m 568 842 q 501 811 524 842 q 478 739 478 780 q 504 633 478 670 q 588 564 530 596 l 589 563 q 640 635 628 587 q 651 728 651 684 q 642 779 651 752 q 615 824 633 806 q 568 842 597 842 m 357 271 q 395 177 357 211 q 492 142 434 142 q 563 150 528 142 q 626 176 597 157 l 456 350 q 416 389 433 374 q 372 336 387 373 q 357 271 357 300 z "},"?":{"ha":669,"x_min":-7,"x_max":670,"o":"m 186 477 q 206 531 186 513 q 251 568 225 550 q 306 620 290 595 q 327 676 323 645 q 331 751 331 707 q 330 788 331 761 q 325 840 330 816 q 309 864 321 864 q 297 844 300 864 q 294 801 294 823 q 294 770 294 778 q 260 638 294 691 q 138 586 225 586 q 31 627 68 586 q -7 735 -7 667 q 23 848 -7 800 q 101 928 53 897 q 208 976 150 960 q 323 992 266 992 q 453 981 391 992 q 565 943 515 970 q 642 864 614 915 q 670 732 670 812 q 613 564 670 623 q 452 488 557 505 q 449 488 451 488 q 446 487 447 488 q 422 476 429 487 q 408 453 414 466 q 391 433 402 440 q 355 376 376 399 q 294 353 335 353 q 242 370 257 353 q 210 416 227 387 q 193 445 200 432 q 186 477 186 458 m 292 -21 q 210 4 245 -21 q 154 69 174 29 q 134 153 134 109 q 154 238 134 198 q 210 302 174 277 q 292 327 245 327 q 375 302 339 327 q 431 238 410 277 q 451 153 451 199 q 431 69 451 109 q 374 4 410 29 q 292 -21 338 -21 z "},"¿":{"ha":669,"x_min":18,"x_max":694,"o":"m 396 791 q 478 765 443 791 q 534 700 514 740 q 554 616 554 660 q 534 532 554 572 q 478 468 514 492 q 396 443 443 443 q 313 467 349 443 q 257 531 277 492 q 237 616 237 571 q 257 701 237 661 q 313 766 277 741 q 396 791 349 791 m 501 292 q 483 240 501 261 q 440 203 465 219 q 395 170 415 186 q 368 124 376 154 q 358 61 360 94 q 357 5 357 28 q 358 -27 357 -3 q 363 -73 359 -51 q 379 -94 368 -94 q 391 -76 388 -94 q 393 -36 393 -57 q 393 -8 393 -15 q 407 90 393 46 q 455 158 421 133 q 550 184 489 184 q 657 143 619 184 q 694 34 694 102 q 665 -79 694 -31 q 586 -159 635 -127 q 479 -207 537 -191 q 365 -222 421 -222 q 235 -212 297 -222 q 123 -173 172 -201 q 46 -94 74 -145 q 18 38 18 -43 q 43 163 18 117 q 116 235 68 209 q 235 280 165 262 q 242 281 240 281 q 263 293 254 281 q 279 317 271 304 q 297 336 288 330 q 333 393 312 369 q 393 416 353 416 q 444 401 427 416 q 476 358 461 386 l 476 357 l 477 356 l 477 355 q 495 326 488 346 q 501 292 501 307 z "},"!":{"ha":428,"x_min":35,"x_max":395,"o":"m 215 1013 q 344 977 294 1013 q 395 855 395 940 q 391 808 395 831 q 381 761 387 784 l 296 431 q 270 376 288 399 q 215 353 252 353 q 160 376 178 353 q 134 431 142 399 l 48 761 q 38 808 42 784 q 35 855 35 831 q 85 977 35 941 q 215 1013 136 1013 m 210 -21 q 128 4 163 -21 q 73 69 93 29 q 53 153 53 109 q 73 238 53 198 q 128 302 93 277 q 210 327 163 327 q 293 302 258 327 q 349 238 329 277 q 370 153 370 199 q 349 69 370 109 q 293 4 329 29 q 210 -21 257 -21 z "},"¡":{"ha":428,"x_min":34,"x_max":395,"o":"m 222 791 q 304 765 269 791 q 360 700 340 740 q 380 616 380 660 q 360 532 380 572 q 305 468 340 492 q 222 443 269 443 q 139 467 175 443 q 83 531 103 492 q 63 616 63 570 q 83 701 63 661 q 140 766 104 741 q 222 791 176 791 m 214 -243 q 85 -208 136 -243 q 34 -86 34 -172 q 38 -38 34 -62 q 48 9 42 -14 l 133 338 q 159 394 141 371 q 214 416 177 416 q 270 394 252 416 q 296 338 288 371 l 381 9 q 391 -38 387 -14 q 395 -86 395 -62 q 344 -208 395 -172 q 214 -243 293 -243 z "},".":{"ha":416,"x_min":50,"x_max":367,"o":"m 208 -21 q 125 4 161 -21 q 70 69 90 29 q 50 153 50 109 q 70 238 50 198 q 125 302 90 277 q 208 327 161 327 q 291 302 255 327 q 347 238 326 277 q 367 153 367 199 q 347 69 367 109 q 290 4 326 29 q 208 -21 254 -21 z "},",":{"ha":416,"x_min":37,"x_max":380,"o":"m 229 -39 q 222 -21 229 -25 q 203 -17 215 -17 q 56 128 56 -17 q 98 243 56 195 q 210 292 140 292 q 309 260 272 292 q 363 177 347 227 q 380 72 380 126 q 357 -93 380 -19 q 281 -218 335 -167 q 132 -290 227 -269 q 103 -294 116 -294 q 55 -276 73 -294 q 37 -229 37 -259 q 53 -188 37 -198 q 93 -169 68 -178 q 156 -142 125 -157 q 208 -103 187 -127 q 229 -39 229 -79 z "},":":{"ha":416,"x_min":50,"x_max":367,"o":"m 208 353 q 125 378 161 353 q 70 444 90 404 q 50 528 50 484 q 70 612 50 573 q 125 676 90 652 q 208 701 161 701 q 291 677 255 701 q 347 613 326 652 q 367 528 367 574 q 347 444 367 484 q 290 378 326 404 q 208 353 254 353 m 208 -21 q 125 4 161 -21 q 70 69 90 29 q 50 153 50 109 q 70 238 50 198 q 125 302 90 277 q 208 327 161 327 q 291 302 255 327 q 347 238 326 277 q 367 153 367 199 q 347 69 367 109 q 290 4 326 29 q 208 -21 254 -21 z "},";":{"ha":416,"x_min":37,"x_max":380,"o":"m 205 353 q 123 378 158 353 q 67 444 87 404 q 47 528 47 484 q 67 612 47 572 q 123 676 87 651 q 205 701 158 701 q 288 676 252 701 q 344 612 323 652 q 364 528 364 573 q 344 443 364 484 q 288 378 323 403 q 205 353 252 353 m 230 -39 q 223 -20 230 -24 q 203 -16 216 -16 q 56 129 56 -16 q 98 244 56 196 q 210 293 141 293 q 310 260 273 293 q 363 177 347 228 q 380 73 380 127 q 358 -92 380 -18 q 282 -217 336 -166 q 132 -290 228 -268 q 104 -293 117 -293 q 55 -276 73 -293 q 37 -228 37 -259 q 53 -187 37 -197 q 94 -168 68 -177 q 157 -142 125 -157 q 209 -103 188 -127 q 230 -39 230 -78 z "},"…":{"ha":1250,"x_min":60,"x_max":1190,"o":"m 217 -21 q 135 4 170 -21 q 80 69 100 29 q 60 153 60 109 q 80 238 60 198 q 135 302 100 277 q 217 327 170 327 q 300 302 264 327 q 356 238 336 277 q 376 153 376 199 q 356 69 376 109 q 300 4 336 29 q 217 -21 264 -21 m 625 -21 q 543 4 578 -21 q 487 69 507 29 q 467 153 467 109 q 487 238 467 198 q 543 302 507 277 q 625 327 578 327 q 708 302 672 327 q 764 238 743 277 q 784 153 784 199 q 764 69 784 109 q 707 4 743 29 q 625 -21 671 -21 m 1031 -21 q 949 4 985 -21 q 893 69 913 29 q 873 153 873 109 q 893 238 873 198 q 948 302 913 277 q 1031 327 984 327 q 1114 302 1078 327 q 1170 238 1149 277 q 1190 153 1190 198 q 1170 69 1190 109 q 1114 4 1149 29 q 1031 -21 1078 -21 z "},"“":{"ha":777,"x_min":24,"x_max":733,"o":"m 176 817 q 208 789 176 789 q 318 760 277 789 q 359 657 359 731 q 312 547 359 589 q 199 505 264 505 q 100 532 139 505 q 43 606 62 560 q 24 707 24 652 q 53 853 24 785 q 135 972 81 922 q 264 1047 189 1023 q 296 1053 281 1053 q 339 1035 323 1053 q 355 992 355 1018 q 337 953 355 965 q 297 932 318 941 q 247 906 275 922 q 197 868 218 890 q 176 817 176 846 m 551 817 q 583 789 551 789 q 692 760 652 789 q 733 657 733 731 q 686 547 733 590 q 574 505 640 505 q 475 532 514 505 q 418 606 437 560 q 399 707 399 652 q 428 853 399 785 q 511 972 457 922 q 640 1047 564 1023 q 671 1053 656 1053 q 714 1035 698 1053 q 730 992 730 1018 q 712 953 730 965 q 672 932 693 941 q 622 906 650 922 q 572 868 593 890 q 551 817 551 846 z "},"”":{"ha":777,"x_min":43,"x_max":753,"o":"m 602 737 q 569 766 602 766 q 460 794 501 766 q 418 897 418 823 q 466 1007 418 965 q 578 1050 513 1050 q 677 1022 638 1050 q 734 949 715 995 q 753 848 753 903 q 724 702 753 770 q 642 583 695 633 q 513 507 588 532 q 481 502 496 502 q 438 519 456 502 q 421 562 421 536 q 440 601 421 589 q 480 623 459 613 q 531 649 503 633 q 581 687 559 665 q 602 737 602 709 m 226 737 q 193 766 226 766 q 84 794 125 766 q 43 897 43 823 q 90 1007 43 965 q 203 1050 137 1050 q 301 1022 262 1050 q 358 949 340 995 q 377 848 377 903 q 348 702 377 770 q 266 583 319 633 q 137 507 212 532 q 106 502 121 502 q 63 519 80 502 q 45 562 45 536 q 64 601 45 589 q 104 623 83 613 q 155 649 127 633 q 205 687 184 665 q 226 737 226 709 z "},"‘":{"ha":416,"x_min":24,"x_max":373,"o":"m 180 817 q 190 794 180 800 q 215 788 200 788 q 328 761 283 788 q 373 656 373 733 q 323 545 373 587 q 207 504 273 504 q 70 562 117 504 q 24 706 24 621 q 92 919 24 828 q 277 1046 161 1010 q 309 1052 293 1052 q 353 1035 336 1052 q 370 991 370 1018 q 351 952 370 964 q 311 931 332 940 q 257 906 288 922 q 203 867 227 890 q 180 817 180 845 z "},"’":{"ha":417,"x_min":43,"x_max":393,"o":"m 239 737 q 228 760 239 753 q 203 766 217 766 q 89 793 134 766 q 43 897 43 820 q 93 1009 43 968 q 210 1050 144 1050 q 347 992 301 1050 q 393 848 393 934 q 325 634 393 726 q 140 507 256 543 q 108 502 123 502 q 63 518 81 502 q 45 562 45 535 q 65 602 45 589 q 105 623 84 614 q 159 648 127 632 q 215 687 191 664 q 239 737 239 709 z "},"‚":{"ha":416,"x_min":43,"x_max":393,"o":"m 238 -26 q 227 -4 238 -10 q 202 2 216 2 q 88 30 134 2 q 43 134 43 57 q 66 215 43 180 q 128 268 90 249 q 210 286 166 286 q 347 228 301 286 q 393 84 393 170 q 361 -65 393 4 q 273 -183 330 -134 q 140 -256 216 -233 q 107 -262 122 -262 q 63 -245 81 -262 q 45 -201 45 -228 q 65 -162 45 -175 q 105 -141 84 -150 q 159 -116 127 -132 q 214 -77 191 -100 q 238 -26 238 -55 z "},"„":{"ha":777,"x_min":43,"x_max":753,"o":"m 602 -31 q 569 -2 602 -2 q 460 27 501 -2 q 418 130 418 56 q 466 240 418 197 q 578 283 513 283 q 677 255 638 283 q 734 182 715 228 q 753 81 753 136 q 689 -130 753 -36 q 513 -260 626 -224 q 481 -266 496 -266 q 438 -249 456 -266 q 421 -206 421 -232 q 440 -166 421 -179 q 480 -144 459 -153 q 530 -119 502 -135 q 580 -80 559 -102 q 602 -31 602 -58 m 226 -31 q 193 -2 226 -2 q 84 27 125 -2 q 43 130 43 56 q 90 240 43 197 q 203 283 137 283 q 301 255 262 283 q 358 182 340 228 q 377 81 377 136 q 314 -130 377 -36 q 137 -260 250 -224 q 106 -266 121 -266 q 63 -249 80 -266 q 45 -206 45 -232 q 64 -166 45 -179 q 104 -144 83 -153 q 155 -119 126 -135 q 204 -80 183 -102 q 226 -31 226 -58 z "},"«":{"ha":742,"x_min":11,"x_max":731,"o":"m 11 334 q 29 392 11 366 q 67 441 47 418 q 162 536 113 491 q 260 627 211 582 q 291 653 274 640 q 328 666 309 666 q 353 655 343 666 q 363 629 363 644 q 349 581 363 603 l 349 579 l 246 333 l 349 89 l 349 88 q 359 64 354 80 q 363 39 363 48 q 353 12 363 24 q 328 1 343 1 q 284 19 312 1 q 225 67 257 38 q 161 127 193 96 q 104 185 129 159 q 67 226 79 212 q 29 275 47 249 q 11 334 11 302 m 378 334 q 396 392 378 366 q 435 441 414 418 q 525 531 479 488 q 618 618 572 574 q 653 649 633 631 q 695 666 673 666 q 721 655 711 666 q 731 629 731 644 q 717 581 731 603 l 717 579 l 614 333 l 697 134 q 718 86 705 117 q 731 39 731 56 q 721 12 731 24 q 695 1 711 1 q 652 19 680 1 q 592 67 625 38 q 529 127 560 96 q 473 185 498 159 q 435 226 448 212 q 396 275 414 249 q 378 334 378 301 z "},"»":{"ha":742,"x_min":11,"x_max":731,"o":"m 731 334 q 713 275 731 302 q 675 226 694 248 q 586 135 633 178 q 492 49 538 92 q 456 18 477 36 q 414 1 435 1 q 389 12 399 1 q 378 39 378 24 q 384 64 378 48 q 393 88 389 80 l 393 89 l 496 333 l 393 579 l 393 581 q 382 604 386 590 q 378 629 378 618 q 389 655 378 644 q 414 666 399 666 q 451 653 434 666 q 480 628 467 640 q 579 536 529 582 q 675 441 629 491 q 713 392 695 418 q 731 334 731 366 m 363 334 q 346 275 363 301 q 307 226 328 249 q 270 186 295 213 q 212 128 244 159 q 148 67 180 96 q 89 19 116 38 q 47 1 62 1 q 21 12 31 1 q 11 39 11 24 q 23 84 11 50 q 54 164 35 119 q 93 255 73 210 q 127 334 113 300 q 93 413 113 368 q 55 504 73 458 q 23 583 36 549 q 11 628 11 617 q 21 655 11 644 q 47 666 31 666 q 89 649 68 666 q 123 618 109 631 q 217 531 170 574 q 307 441 263 488 q 346 392 328 418 q 363 334 363 366 z "},"‹":{"ha":387,"x_min":17,"x_max":370,"o":"m 17 334 q 35 392 17 366 q 73 441 52 418 q 140 510 106 477 q 210 576 175 543 q 249 613 230 594 q 290 647 269 631 q 310 660 299 654 q 334 666 321 666 q 359 655 349 666 q 370 629 370 644 q 366 607 370 618 q 358 586 363 596 l 252 334 l 355 89 l 355 88 q 365 64 360 80 q 370 39 370 48 q 359 12 370 24 q 334 1 349 1 q 291 19 318 1 q 231 67 264 38 q 167 127 199 96 q 111 185 136 159 q 73 226 85 212 q 35 275 54 248 q 17 334 17 302 z "},"›":{"ha":387,"x_min":17,"x_max":370,"o":"m 370 334 q 351 275 370 302 q 313 226 333 249 q 276 186 301 213 q 219 128 251 159 q 155 67 187 96 q 96 19 123 38 q 53 1 68 1 q 27 12 37 1 q 17 39 17 24 q 29 84 17 50 q 60 164 41 119 q 99 255 79 210 q 134 334 119 300 q 99 412 119 367 q 60 503 79 458 q 29 582 41 548 q 17 628 17 616 q 27 655 17 644 q 53 666 37 666 q 95 649 75 666 q 130 618 115 631 q 223 531 176 574 q 313 441 269 488 q 352 392 334 418 q 370 334 370 366 z "},"(":{"ha":692,"x_min":118,"x_max":692,"o":"m 118 408 q 210 726 118 585 q 460 942 301 866 q 512 963 480 951 q 578 984 545 975 q 633 992 611 992 q 672 982 652 992 q 692 949 692 971 q 670 905 692 925 q 631 871 648 885 q 592 841 612 857 q 554 809 572 826 q 462 694 503 762 q 399 553 422 627 q 376 408 376 479 q 409 229 376 313 q 501 73 443 144 q 631 -56 559 1 q 670 -89 648 -69 q 692 -132 692 -109 q 672 -165 692 -155 q 633 -176 652 -176 q 579 -167 614 -176 q 512 -146 545 -158 q 460 -125 478 -134 q 278 5 355 -75 q 159 188 201 85 q 118 408 118 291 z "},")":{"ha":692,"x_min":0,"x_max":574,"o":"m 574 408 q 532 188 574 292 q 415 4 491 85 q 233 -125 338 -77 q 180 -146 214 -134 q 113 -167 146 -158 q 60 -176 79 -176 q 20 -166 41 -176 q 0 -132 0 -155 q 19 -92 0 -109 q 54 -62 38 -75 q 188 69 128 -2 q 282 224 248 140 q 317 408 317 309 q 282 593 317 509 q 188 748 248 677 q 53 878 128 819 q 18 908 37 892 q 0 949 0 925 q 20 982 0 972 q 60 992 41 992 q 115 984 82 992 q 180 963 148 975 q 233 942 212 951 q 415 812 338 892 q 532 628 491 731 q 574 408 574 525 z "},"[":{"ha":692,"x_min":130,"x_max":681,"o":"m 371 781 l 371 40 q 392 -22 371 -6 q 457 -39 414 -39 l 602 -39 q 658 -53 635 -39 q 681 -105 681 -68 q 657 -156 681 -140 q 602 -171 633 -171 l 225 -171 q 152 -147 174 -171 q 130 -73 130 -123 l 130 892 q 151 968 130 944 q 225 991 173 991 l 602 991 q 657 976 633 991 q 681 925 681 960 q 658 873 681 888 q 602 859 635 859 l 457 859 q 392 843 414 859 q 371 781 371 827 z "},"]":{"ha":692,"x_min":19,"x_max":570,"o":"m 328 40 l 328 781 q 307 843 328 827 q 242 859 286 859 l 98 859 q 42 873 65 859 q 19 925 19 888 q 43 976 19 960 q 98 991 67 991 l 474 991 q 548 968 526 991 q 570 892 570 944 l 570 -73 q 548 -148 570 -124 q 474 -171 526 -171 l 98 -171 q 43 -156 67 -171 q 19 -105 19 -140 q 42 -53 19 -68 q 98 -39 65 -39 l 242 -39 q 307 -22 286 -39 q 328 40 328 -6 z "},"{":{"ha":692,"x_min":71,"x_max":673,"o":"m 362 410 q 373 391 362 397 q 395 386 384 386 q 471 379 429 386 q 542 350 512 372 q 572 283 572 328 q 548 219 572 250 q 493 159 524 188 q 437 100 461 130 q 414 41 414 71 q 439 -15 414 1 q 498 -35 464 -31 q 562 -38 533 -38 q 613 -40 588 -38 q 656 -56 639 -42 q 673 -105 673 -70 q 651 -155 673 -139 q 597 -171 629 -171 l 507 -171 q 402 -164 460 -171 q 289 -138 343 -157 q 198 -81 234 -118 q 163 18 163 -43 q 183 102 163 65 q 234 170 203 140 q 294 225 264 201 q 344 272 323 250 q 364 314 364 294 q 343 344 364 338 q 304 350 322 350 q 236 335 269 350 q 167 319 203 319 q 99 345 127 319 q 71 410 71 370 q 99 476 71 451 q 167 500 127 500 q 236 486 203 500 q 304 471 269 471 q 343 476 322 471 q 364 506 364 481 q 344 547 364 526 q 294 593 323 568 q 234 648 264 618 q 183 716 203 679 q 163 802 163 754 q 198 901 163 863 q 289 958 234 939 q 402 985 343 978 q 507 991 460 991 l 597 991 q 651 976 629 991 q 673 926 673 960 q 647 870 673 882 q 585 858 621 858 q 534 858 563 858 q 477 851 505 857 q 432 829 450 845 q 414 781 414 812 q 437 721 414 750 q 493 662 461 691 q 548 601 524 632 q 572 538 572 570 q 542 470 572 492 q 471 441 512 448 q 395 434 429 434 q 373 429 384 434 q 362 410 362 424 z "},"}":{"ha":692,"x_min":20,"x_max":621,"o":"m 332 410 q 321 429 332 423 q 298 435 310 435 q 223 441 264 435 q 151 470 181 448 q 121 537 121 492 q 145 602 121 572 q 200 662 169 633 q 256 719 232 690 q 279 779 279 748 q 254 836 279 819 q 195 855 229 852 q 131 859 160 859 q 79 860 104 859 q 37 876 54 862 q 20 925 20 890 q 42 975 20 959 q 96 991 65 991 l 186 991 q 291 985 233 991 q 405 958 350 978 q 495 901 459 939 q 530 802 530 863 q 510 716 530 754 q 460 648 490 679 q 400 593 430 618 q 349 547 370 568 q 329 506 329 526 q 350 476 329 481 q 390 470 372 470 q 459 485 426 470 q 527 500 492 500 q 594 475 567 500 q 621 410 621 450 q 594 345 621 370 q 527 319 566 319 q 459 334 492 319 q 390 349 426 349 q 350 344 372 349 q 329 314 329 339 q 349 272 329 294 q 399 225 370 250 q 459 170 429 201 q 510 102 490 140 q 530 18 530 65 q 495 -81 530 -43 q 405 -138 459 -118 q 291 -164 350 -157 q 186 -171 233 -171 l 96 -171 q 42 -155 65 -171 q 20 -105 20 -140 q 46 -49 20 -61 q 109 -37 73 -37 q 160 -37 132 -37 q 216 -31 189 -37 q 261 -9 243 -25 q 279 40 279 7 q 256 101 279 71 q 200 159 232 130 q 145 218 169 188 q 121 282 121 249 q 151 350 121 328 q 223 379 181 372 q 298 386 264 386 q 321 391 310 386 q 332 410 332 396 z "},"/":{"ha":655,"x_min":5,"x_max":652,"o":"m 652 943 q 642 896 652 924 q 620 840 633 867 q 597 796 607 813 q 554 709 576 752 q 511 621 532 665 q 454 501 481 562 q 401 379 427 441 l 210 -85 l 210 -85 l 208 -90 l 208 -91 q 185 -142 198 -114 q 154 -192 173 -171 q 103 -213 134 -213 q 37 -188 68 -213 q 5 -125 5 -163 q 17 -72 5 -102 q 45 -13 29 -42 q 72 38 60 17 q 180 236 126 137 q 279 437 235 334 q 349 618 317 527 q 413 802 382 710 q 441 886 427 844 q 475 966 456 927 q 506 1011 488 991 q 555 1030 524 1030 q 621 1005 591 1030 q 652 943 652 981 z "},"\\":{"ha":655,"x_min":4,"x_max":651,"o":"m 553 -213 q 505 -194 524 -213 q 475 -149 486 -174 q 454 -104 464 -127 q 435 -58 444 -81 l 255 379 q 189 530 224 456 q 117 677 154 604 q 88 734 106 698 q 50 811 69 770 q 18 888 31 852 q 4 943 4 924 q 35 1006 4 981 q 101 1030 66 1030 q 160 999 136 1030 q 199 929 184 968 q 222 862 214 889 l 248 789 q 309 612 278 701 q 378 437 340 524 q 477 235 422 334 q 585 37 531 136 q 612 -13 597 16 q 640 -71 628 -41 q 651 -125 651 -101 q 620 -188 651 -162 q 553 -213 589 -213 z "},"|":{"ha":694,"x_min":248,"x_max":448,"o":"m 273 405 q 261 669 273 537 q 248 932 248 800 q 275 1004 248 981 q 348 1027 302 1027 q 421 1004 394 1027 q 448 932 448 980 q 435 674 448 803 q 422 416 422 545 q 435 152 422 283 q 448 -112 448 20 q 421 -183 448 -159 q 348 -207 394 -207 q 275 -183 302 -207 q 248 -112 248 -159 q 261 146 248 18 q 273 405 273 275 z "},"¦":{"ha":694,"x_min":235,"x_max":435,"o":"m 435 932 q 424 739 435 836 q 412 545 412 642 q 393 488 412 505 q 335 471 374 471 q 260 545 260 471 q 248 739 260 642 q 235 932 235 836 q 262 1004 235 980 q 335 1027 290 1027 q 408 1004 381 1027 q 435 932 435 980 m 236 -114 q 248 80 236 -17 q 259 274 259 177 q 278 331 259 314 q 336 348 297 348 q 411 274 411 348 q 415 165 411 220 q 424 57 418 111 q 432 -28 429 14 q 435 -114 435 -71 q 408 -185 435 -161 q 335 -209 381 -209 q 263 -185 290 -209 q 236 -114 236 -161 z "},"-":{"ha":395,"x_min":2,"x_max":393,"o":"m 98 467 l 346 467 q 379 457 366 467 q 393 427 393 448 q 388 397 393 412 q 379 367 383 382 q 365 322 373 345 q 342 284 357 300 q 298 269 327 269 l 50 269 q 16 278 30 269 q 2 309 2 288 q 8 346 2 328 q 20 380 14 363 l 20 382 q 24 394 23 386 q 48 445 30 422 q 98 467 66 467 z "},"­":{"ha":347,"x_min":-22,"x_max":370,"o":"m 74 467 l 322 467 q 356 457 342 467 q 370 427 370 448 q 365 397 370 412 q 355 367 359 382 q 341 322 349 345 q 318 284 333 300 q 275 269 303 269 l 26 269 q -8 278 6 269 q -22 309 -22 288 q -16 346 -22 328 q -3 380 -10 363 l -3 382 q 1 394 -1 386 q 24 445 6 422 q 74 467 42 467 z "},"–":{"ha":833,"x_min":39,"x_max":794,"o":"m 39 372 q 53 434 39 405 q 105 463 66 463 l 728 463 q 781 434 768 463 q 794 372 794 405 q 781 309 794 338 q 728 279 768 279 l 105 279 q 53 309 66 279 q 39 372 39 338 z "},"—":{"ha":1186,"x_min":39,"x_max":1147,"o":"m 39 372 q 52 434 39 404 q 104 463 65 463 l 1082 463 q 1134 433 1121 463 q 1147 372 1147 404 q 1134 310 1147 340 q 1082 279 1121 279 l 104 279 q 52 310 65 279 q 39 372 39 340 z "},"_":{"ha":694,"x_min":-4,"x_max":699,"o":"m -4 -177 q 9 -115 -4 -144 q 62 -85 22 -85 l 634 -85 q 686 -115 673 -85 q 699 -177 699 -144 q 686 -239 699 -209 q 634 -269 673 -269 l 62 -269 q 9 -239 22 -269 q -4 -177 -4 -210 z "},"∙":{"ha":416,"x_min":50,"x_max":367,"o":"m 208 172 q 125 197 161 172 q 70 262 90 222 q 50 347 50 302 q 70 431 50 391 q 125 495 90 470 q 208 519 161 519 q 291 495 255 519 q 347 431 326 471 q 367 347 367 392 q 347 262 367 302 q 290 197 326 222 q 208 172 254 172 z "},"•":{"ha":926,"x_min":180,"x_max":745,"o":"m 462 86 q 325 120 389 86 q 220 213 260 154 q 180 348 180 273 q 220 483 180 424 q 325 574 260 541 q 462 608 389 608 q 600 575 536 608 q 705 484 665 542 q 745 348 745 425 q 705 212 745 271 q 600 120 665 153 q 462 86 535 86 z "},"@":{"ha":1109,"x_min":50,"x_max":1059,"o":"m 852 214 q 895 235 879 214 q 918 287 910 256 q 928 348 926 317 q 930 397 930 378 q 884 586 930 505 q 754 712 837 667 q 565 758 672 758 q 359 706 447 758 q 223 564 272 654 q 175 357 175 474 q 223 157 175 243 q 358 22 272 71 q 559 -26 445 -26 q 732 -19 640 -26 q 899 24 825 -12 q 931 40 915 31 q 966 49 947 49 q 995 39 981 49 q 1010 12 1010 28 q 982 -41 1010 -16 q 932 -78 954 -65 q 816 -125 881 -108 q 683 -150 751 -142 q 557 -157 616 -157 q 291 -92 405 -157 q 113 89 176 -27 q 50 356 50 204 q 91 559 50 465 q 204 725 132 654 q 372 835 277 795 q 575 875 467 875 q 829 813 720 875 q 999 643 938 752 q 1059 389 1059 533 q 1027 232 1059 305 q 933 112 996 158 q 781 66 871 66 q 677 86 728 66 q 607 153 627 105 q 546 89 587 112 q 460 66 505 66 q 344 114 385 66 q 302 234 302 161 q 337 349 302 304 q 427 415 372 394 q 546 437 483 437 q 578 434 566 437 l 578 500 q 578 519 578 506 q 575 544 578 532 q 563 555 572 555 q 550 541 551 555 q 549 518 549 526 q 525 483 549 494 q 471 467 500 471 q 424 463 441 463 q 379 469 404 463 q 337 488 355 474 q 319 528 319 503 q 352 604 319 576 q 436 645 386 632 q 536 662 486 658 q 621 665 587 665 q 718 647 672 665 q 791 593 763 629 q 820 499 820 556 l 820 269 q 825 233 820 252 q 852 214 829 214 m 549 291 q 555 250 549 275 q 578 218 561 226 l 578 355 l 577 355 q 562 342 568 355 q 552 314 555 329 q 549 291 549 298 m 597 239 l 601 225 l 601 227 q 597 239 601 233 z "},"©":{"ha":1081,"x_min":43,"x_max":1038,"o":"m 541 -111 q 336 -69 427 -111 q 179 46 244 -27 q 78 216 113 120 q 43 422 43 313 q 78 627 43 532 q 179 793 113 722 q 336 905 245 865 q 541 945 428 945 q 745 905 654 945 q 902 793 837 865 q 1003 627 968 722 q 1038 422 1038 532 q 1003 216 1038 312 q 903 46 968 119 q 746 -69 838 -28 q 541 -111 654 -111 m 541 8 q 743 65 657 8 q 876 216 829 122 q 922 422 922 311 q 875 626 922 534 q 742 772 828 718 q 541 827 656 827 q 338 772 424 827 q 207 627 253 718 q 161 422 161 535 q 207 215 161 309 q 337 65 252 121 q 541 8 422 8 m 807 302 q 801 268 807 284 q 784 236 794 251 q 682 157 747 181 q 552 133 616 133 q 401 168 467 133 q 297 266 335 202 q 260 415 260 329 q 298 555 260 492 q 399 656 336 618 q 539 694 463 694 q 592 681 567 694 q 644 669 616 669 q 680 681 665 669 q 713 694 696 694 q 750 676 739 694 q 764 637 760 659 l 783 533 q 789 507 786 520 q 793 481 793 494 q 779 430 793 448 q 730 413 764 413 q 686 430 702 413 q 661 472 671 447 q 643 523 651 498 q 623 565 635 548 q 589 582 611 582 q 553 562 563 582 q 542 516 543 542 q 541 471 541 490 q 546 397 541 437 q 571 328 551 357 q 639 300 592 300 q 693 310 667 300 q 743 334 720 319 q 763 353 746 353 q 795 336 783 353 q 807 302 807 320 z "},"®":{"ha":1081,"x_min":43,"x_max":1038,"o":"m 541 -111 q 336 -69 427 -111 q 179 46 244 -27 q 78 216 113 120 q 43 422 43 313 q 78 627 43 532 q 179 793 113 722 q 336 905 245 865 q 541 945 428 945 q 745 905 654 945 q 902 793 837 865 q 1003 627 968 722 q 1038 422 1038 532 q 1003 216 1038 312 q 903 46 968 119 q 746 -69 838 -28 q 541 -111 654 -111 m 541 8 q 743 65 657 8 q 876 216 829 122 q 922 422 922 311 q 875 626 922 534 q 742 772 828 718 q 541 827 656 827 q 338 772 424 827 q 207 627 253 718 q 161 422 161 535 q 207 215 161 309 q 337 65 252 121 q 541 8 422 8 m 801 499 q 779 436 801 459 q 724 399 756 412 l 781 300 q 810 273 790 283 q 829 239 829 262 q 819 209 829 220 q 789 197 808 197 l 633 197 q 595 233 595 197 q 605 260 595 248 q 616 272 616 263 q 604 306 616 279 q 580 355 591 333 q 570 355 575 355 q 534 358 551 355 q 498 366 516 361 l 498 306 q 508 278 498 286 q 527 264 517 271 q 537 233 537 256 q 497 197 537 197 l 323 197 q 282 233 282 197 q 295 264 282 255 q 320 281 308 273 q 333 306 333 288 l 333 556 q 320 582 333 575 q 295 597 308 589 q 282 629 282 605 q 323 665 282 665 l 545 665 q 629 658 585 665 q 712 632 673 650 q 776 581 751 613 q 801 499 801 549 m 498 581 l 498 441 q 522 437 510 438 q 547 437 534 437 q 605 449 579 437 q 631 500 631 462 q 606 561 631 541 q 543 581 581 581 l 498 581 z "},"™":{"ha":1321,"x_min":30,"x_max":1245,"o":"m 218 1008 l 366 1008 q 414 1016 391 1008 q 463 1024 438 1024 q 509 1007 494 1024 q 530 964 524 989 q 541 914 536 939 q 549 869 545 892 q 554 823 554 846 q 541 784 554 800 q 503 768 528 768 q 468 786 479 768 q 451 827 458 804 q 435 870 445 850 q 402 895 425 890 l 402 644 q 404 623 402 633 q 413 604 406 613 l 414 597 q 435 572 429 587 q 440 541 440 558 q 389 487 440 487 l 195 487 q 144 541 144 487 q 169 597 144 578 l 169 604 q 179 623 176 612 q 181 644 181 633 l 181 895 q 150 870 159 890 q 134 827 140 850 q 116 786 127 803 q 81 768 105 768 q 43 784 56 768 q 30 823 30 800 q 35 870 30 847 q 44 916 39 892 q 55 964 50 939 q 75 1007 60 989 q 120 1024 89 1024 q 169 1016 145 1024 q 218 1008 193 1008 m 719 545 q 707 503 719 518 q 667 488 695 488 l 595 488 q 543 542 543 488 q 574 601 543 581 q 588 644 587 623 l 601 852 l 601 858 q 590 894 601 882 q 567 919 578 906 q 556 958 556 932 q 608 1010 556 1010 l 761 1010 q 829 982 809 1010 q 863 913 849 954 l 897 813 l 930 913 q 963 982 943 955 q 1032 1010 983 1010 l 1188 1010 q 1240 958 1240 1010 q 1228 919 1240 934 q 1205 892 1217 905 q 1193 861 1193 880 l 1193 857 l 1205 645 q 1216 608 1206 621 q 1236 582 1226 595 q 1245 546 1245 569 q 1233 505 1245 522 q 1195 488 1221 488 l 993 488 q 941 542 941 488 q 953 581 941 568 q 976 605 964 593 q 987 639 987 617 l 987 645 l 980 745 l 924 585 q 897 526 913 555 q 842 496 880 496 q 781 525 798 496 q 751 589 764 554 l 691 755 l 683 644 l 683 641 q 692 609 683 624 q 710 579 701 595 q 719 545 719 564 z "},"*":{"ha":833,"x_min":38,"x_max":804,"o":"m 393 427 q 388 353 393 395 q 364 282 383 312 q 300 252 345 252 q 242 267 274 252 q 181 306 210 281 q 133 358 152 330 q 114 414 114 387 q 136 473 114 450 q 191 510 159 496 q 250 534 222 524 q 326 565 289 548 q 392 613 363 583 q 355 616 374 616 q 281 605 317 616 q 209 581 245 593 q 134 569 173 569 q 63 595 89 569 q 38 666 38 621 q 46 724 38 690 q 69 789 54 757 q 107 842 84 821 q 160 863 130 863 q 222 838 193 863 q 278 776 250 812 q 335 704 305 739 q 404 648 366 668 q 377 728 397 692 q 333 797 357 764 q 292 861 309 829 q 275 928 275 892 q 298 990 275 969 q 355 1018 321 1010 q 421 1025 389 1025 q 486 1017 452 1025 q 544 988 520 1009 q 567 928 567 968 q 550 861 567 892 q 509 797 532 829 q 465 729 485 765 q 439 649 444 693 q 505 705 475 669 q 563 777 535 740 q 620 838 591 813 q 684 863 649 863 q 736 842 714 863 q 773 790 758 821 q 796 725 789 758 q 804 669 804 692 q 779 596 804 623 q 708 569 755 569 q 634 581 670 569 q 562 605 597 593 q 487 616 526 616 q 451 613 469 616 q 530 561 484 581 q 623 522 577 541 q 699 479 668 504 q 729 412 729 454 q 710 357 729 385 q 661 306 690 329 q 600 268 631 282 q 542 253 568 253 q 478 283 497 253 q 454 354 458 313 q 449 427 450 395 q 445 512 448 470 q 421 591 441 553 q 398 511 401 553 q 393 427 394 469 z "},"†":{"ha":1000,"x_min":123,"x_max":877,"o":"m 565 -161 q 547 -200 565 -190 q 503 -211 528 -211 q 456 -200 477 -211 q 436 -159 436 -190 q 424 -2 436 -81 q 383 149 412 76 q 337 267 362 204 q 311 389 311 330 q 330 473 311 437 q 375 539 349 509 q 425 598 401 570 q 460 656 449 626 q 377 619 416 646 q 300 570 338 593 q 220 547 262 547 q 158 570 179 547 q 131 627 138 593 q 123 694 123 661 q 131 761 123 726 q 159 819 138 795 q 220 842 180 842 q 303 819 264 842 q 379 768 341 795 q 462 730 418 741 q 424 799 450 767 q 376 862 398 831 q 353 928 353 893 q 376 990 353 970 q 433 1018 399 1011 q 500 1025 467 1025 q 566 1018 532 1025 q 624 990 600 1010 q 647 928 647 969 q 624 861 647 892 q 575 798 602 829 q 537 729 549 766 q 621 767 582 740 q 697 819 659 795 q 780 842 736 842 q 842 819 821 842 q 870 761 863 795 q 877 694 877 726 q 870 627 877 661 q 842 570 863 593 q 780 547 821 547 q 699 570 736 547 q 622 620 661 593 q 539 657 584 646 q 576 601 551 628 q 628 543 601 573 q 673 475 654 513 q 692 387 692 437 q 666 265 692 329 q 618 147 640 201 q 577 -4 589 74 q 565 -161 565 -82 z "},"‡":{"ha":1000,"x_min":123,"x_max":877,"o":"m 692 419 q 672 332 692 370 q 625 262 652 294 q 573 200 597 231 q 537 135 548 170 q 621 172 582 145 q 697 221 659 198 q 780 245 736 245 q 844 223 823 245 q 870 167 864 201 q 877 99 877 134 q 869 33 877 68 q 841 -25 861 -1 q 780 -49 820 -49 q 698 -25 736 -49 q 621 25 660 -2 q 537 62 582 52 q 575 -12 548 22 q 624 -82 602 -47 q 647 -160 647 -118 q 623 -220 647 -199 q 565 -249 600 -241 q 499 -257 531 -257 q 433 -249 467 -257 q 376 -220 399 -241 q 353 -160 353 -199 q 376 -83 353 -119 q 424 -13 398 -48 q 461 62 450 22 q 378 24 416 51 q 302 -26 340 -3 q 220 -49 264 -49 q 160 -25 181 -49 q 131 33 139 -1 q 123 99 123 68 q 130 166 123 133 q 157 222 136 200 q 220 245 178 245 q 299 222 261 245 q 377 174 338 200 q 460 136 417 148 q 426 202 450 171 q 375 266 401 233 q 330 336 349 298 q 311 422 311 374 q 329 511 311 472 q 374 582 348 549 q 425 645 401 615 q 460 709 449 675 q 377 671 416 697 q 300 622 338 645 q 220 600 262 600 q 158 623 179 600 q 131 680 138 646 q 123 746 123 713 q 131 813 123 779 q 159 870 138 847 q 220 894 180 894 q 302 870 264 894 q 378 820 340 847 q 462 783 417 793 q 425 861 451 825 q 376 931 399 897 q 353 1004 353 966 q 376 1067 353 1046 q 432 1095 399 1088 q 499 1102 466 1102 q 566 1095 532 1102 q 624 1066 600 1087 q 647 1004 647 1046 q 624 929 647 964 q 574 859 601 895 q 536 783 547 823 q 621 820 582 793 q 698 870 660 847 q 780 894 736 894 q 842 870 821 894 q 870 813 863 847 q 877 746 877 779 q 870 679 877 713 q 843 622 863 645 q 780 600 822 600 q 701 622 739 600 q 622 671 662 645 q 538 709 583 698 q 575 647 550 677 q 627 584 600 616 q 673 511 654 551 q 692 419 692 471 z "},"'":{"ha":317,"x_min":25,"x_max":294,"o":"m 152 507 q 101 532 119 507 q 78 586 83 557 l 33 831 q 25 907 25 870 q 57 1016 25 975 q 161 1057 90 1057 q 262 1017 231 1057 q 294 911 294 976 q 291 871 294 891 q 285 832 289 852 l 233 584 q 207 529 227 551 q 152 507 188 507 z "},"\"":{"ha":600,"x_min":13,"x_max":589,"o":"m 448 507 q 398 533 416 507 q 375 586 380 559 l 330 831 q 322 907 322 870 q 354 1016 322 975 q 458 1057 386 1057 q 558 1017 527 1057 q 589 911 589 976 q 586 872 589 892 q 580 832 584 852 l 529 584 q 503 529 522 551 q 448 507 484 507 m 139 507 q 90 533 107 507 q 66 586 72 558 l 21 831 q 15 870 18 850 q 13 908 13 889 q 45 1017 13 976 q 149 1057 77 1057 q 249 1017 218 1057 q 280 911 280 977 q 271 832 280 874 l 220 584 q 194 529 213 551 q 139 507 175 507 z "},"^":{"ha":694,"x_min":63,"x_max":633,"o":"m 633 513 q 613 460 633 481 q 561 439 593 439 q 503 463 531 439 q 460 510 475 486 l 348 693 l 235 510 q 193 463 220 486 q 135 439 165 439 q 83 460 103 439 q 63 513 63 481 q 69 549 63 532 q 83 584 75 567 l 198 846 q 256 929 218 892 q 348 967 293 967 q 440 929 403 967 q 498 846 477 892 l 613 584 q 627 550 621 567 q 633 513 633 532 z "},"~":{"ha":926,"x_min":71,"x_max":856,"o":"m 625 296 q 541 314 581 296 q 463 355 500 332 q 388 396 425 378 q 312 414 351 414 q 250 396 269 414 q 219 355 230 378 q 193 314 208 332 q 144 296 178 296 q 86 326 100 296 q 71 393 71 355 q 103 504 71 453 q 188 585 136 554 q 299 615 240 615 q 392 597 345 615 q 482 555 439 579 q 559 514 525 532 q 612 496 593 496 q 669 508 649 496 q 700 538 689 520 q 720 575 711 557 q 742 605 728 593 q 783 617 756 617 q 842 588 827 617 q 856 521 856 558 q 823 409 856 460 q 738 327 791 358 q 625 296 686 296 z "},"+":{"ha":833,"x_min":79,"x_max":755,"o":"m 419 110 q 361 126 389 110 q 334 178 334 143 l 334 375 l 144 375 q 95 401 111 375 q 79 457 79 428 q 95 515 79 487 q 145 543 111 543 l 334 543 l 334 742 q 362 792 334 777 q 419 808 389 808 q 474 792 449 808 q 500 742 500 776 l 500 543 l 690 543 q 740 515 724 543 q 755 457 755 487 q 739 401 755 428 q 690 375 724 375 l 500 375 l 500 176 q 474 126 500 143 q 419 110 449 110 z "},"±":{"ha":833,"x_min":79,"x_max":755,"o":"m 418 212 q 361 229 388 212 q 334 279 334 245 l 334 477 l 144 477 q 95 504 111 477 q 79 559 79 530 q 95 617 79 589 q 145 645 111 645 l 334 645 l 334 844 q 361 894 334 878 q 418 910 389 910 q 474 894 449 910 q 499 844 499 878 l 499 645 l 690 645 q 739 617 724 645 q 755 559 755 589 q 739 504 755 530 q 690 477 724 477 l 499 477 l 499 278 q 474 228 499 245 q 418 212 448 212 m 79 77 q 96 135 79 107 q 146 163 112 163 l 690 163 q 739 135 724 163 q 755 77 755 107 q 739 21 755 48 q 690 -5 724 -5 l 144 -5 q 95 21 111 -5 q 79 77 79 48 z "},"÷":{"ha":833,"x_min":79,"x_max":755,"o":"m 416 633 q 326 674 362 633 q 290 768 290 715 q 326 861 290 821 q 416 900 362 900 q 508 861 471 900 q 545 768 545 822 q 508 674 545 714 q 416 633 471 633 m 79 457 q 95 515 79 487 q 145 543 111 543 l 690 543 q 740 515 724 543 q 755 457 755 487 q 739 401 755 428 q 690 375 724 375 l 144 375 q 95 401 111 375 q 79 457 79 428 m 416 21 q 326 61 362 21 q 290 155 290 102 q 326 248 290 208 q 416 287 362 287 q 508 248 471 287 q 545 155 545 209 q 508 61 545 101 q 416 21 471 21 z "},"×":{"ha":833,"x_min":140,"x_max":701,"o":"m 224 161 q 167 190 194 161 q 140 248 140 218 q 150 284 140 267 q 172 313 159 300 l 307 459 l 169 608 q 151 635 158 620 q 143 667 143 650 q 170 726 143 698 q 227 755 196 755 q 258 747 243 755 q 283 727 272 739 l 419 581 l 556 728 q 581 748 567 740 q 611 755 595 755 q 652 742 631 755 q 687 707 673 728 q 701 667 701 686 q 692 635 701 650 q 672 608 684 621 l 532 458 l 676 303 q 694 278 687 292 q 701 248 701 264 q 674 189 701 216 q 615 163 648 163 q 557 189 581 163 l 420 336 l 286 192 q 258 170 275 179 q 224 161 242 161 z "},"=":{"ha":833,"x_min":79,"x_max":755,"o":"m 79 594 q 95 652 79 624 q 145 680 111 680 l 690 680 q 740 652 724 680 q 755 594 755 624 q 739 538 755 565 q 690 511 724 511 l 144 511 q 95 538 111 511 q 79 594 79 565 m 79 323 q 95 381 79 353 q 145 409 111 409 l 690 409 q 740 381 724 409 q 755 323 755 353 q 739 267 755 293 q 690 241 724 241 l 144 241 q 95 267 111 241 q 79 323 79 294 z "},"<":{"ha":694,"x_min":71,"x_max":607,"o":"m 607 176 q 590 116 607 140 q 532 92 572 92 q 485 102 513 92 q 430 127 456 113 q 387 153 403 141 l 148 328 q 136 337 142 333 q 123 345 130 340 q 85 396 98 363 q 71 458 71 428 q 85 522 71 489 q 123 572 98 554 q 136 581 130 577 q 148 589 142 585 l 387 765 q 430 791 403 777 q 485 815 456 805 q 532 825 513 825 q 589 802 572 825 q 607 741 607 778 q 587 681 607 703 q 538 637 566 658 l 301 459 l 538 281 q 587 237 566 260 q 607 176 607 214 z "},">":{"ha":694,"x_min":87,"x_max":623,"o":"m 309 153 q 266 127 292 141 q 211 102 239 113 q 163 92 183 92 q 105 116 123 92 q 87 176 87 140 q 109 237 87 214 q 157 281 130 260 l 395 459 l 157 637 q 109 681 130 658 q 87 741 87 703 q 105 802 87 778 q 163 825 123 825 q 211 815 183 825 q 266 791 239 805 q 309 765 292 777 l 559 581 q 607 528 591 558 q 623 458 623 498 q 603 383 623 412 q 547 328 583 355 l 309 153 z "},"≤":{"ha":694,"x_min":63,"x_max":631,"o":"m 598 299 q 581 239 598 262 q 524 215 564 215 q 460 231 490 215 q 401 262 429 248 l 399 262 q 379 275 387 269 l 172 451 q 161 460 167 456 q 149 468 155 464 q 111 518 123 486 q 98 581 98 551 q 161 704 98 658 q 172 712 169 709 l 379 888 q 409 906 393 899 q 439 920 425 913 q 480 939 460 930 q 524 948 500 948 q 581 924 564 948 q 598 863 598 900 q 582 809 598 829 q 542 769 566 790 l 324 581 l 543 393 q 583 353 567 372 q 598 299 598 334 m 63 85 q 77 142 63 113 q 124 172 91 172 l 571 172 q 618 142 605 172 q 631 85 631 113 q 617 31 631 58 q 571 3 604 3 l 123 3 q 77 31 92 3 q 63 85 63 58 z "},"≥":{"ha":694,"x_min":63,"x_max":631,"o":"m 260 243 q 218 224 239 233 q 174 215 197 215 q 116 238 134 215 q 98 299 98 262 q 115 354 98 334 q 155 394 131 373 l 373 581 l 155 770 q 115 810 131 790 q 98 863 98 829 q 116 924 98 901 q 174 948 134 948 q 233 933 204 948 q 288 905 262 919 l 289 905 q 304 898 296 902 q 318 888 311 893 l 524 712 q 536 703 530 707 q 549 694 543 699 q 598 581 598 650 q 586 518 598 550 q 548 468 574 487 q 536 460 542 464 q 524 451 530 456 l 318 275 q 290 258 307 264 q 260 243 274 251 m 63 84 q 77 141 63 112 q 124 170 91 170 l 571 170 q 618 141 604 170 q 631 84 631 112 q 617 29 631 57 q 571 1 604 1 l 123 1 q 77 29 92 1 q 63 84 63 57 z "},"≈":{"ha":694,"x_min":10,"x_max":686,"o":"m 479 488 q 412 506 445 488 q 347 547 379 524 q 285 588 315 570 q 224 606 254 606 q 177 588 193 606 q 152 547 162 570 q 127 506 142 524 q 81 488 113 488 q 24 518 37 488 q 10 585 10 549 q 37 690 10 639 q 109 774 63 741 q 211 807 154 807 q 293 789 251 807 q 371 747 334 771 q 432 706 407 724 q 464 688 457 688 q 520 706 503 688 q 547 748 537 724 q 570 791 556 772 q 616 809 584 809 q 672 779 659 809 q 686 713 686 749 q 658 606 686 657 q 584 521 631 554 q 479 488 537 488 m 479 143 q 411 161 444 143 q 347 202 378 179 q 285 244 315 226 q 224 262 254 262 q 177 244 193 262 q 152 202 161 226 q 127 161 142 179 q 81 143 112 143 q 24 173 37 143 q 10 239 10 203 q 36 346 10 294 q 108 430 62 397 q 211 463 153 463 q 293 445 251 463 q 371 403 334 427 q 432 361 407 379 q 464 343 457 343 q 520 361 503 343 q 547 404 537 380 q 570 446 556 428 q 616 465 584 465 q 672 434 659 465 q 686 368 686 404 q 659 261 686 313 q 585 176 631 209 q 479 143 538 143 z "},"≠":{"ha":833,"x_min":79,"x_max":755,"o":"m 161 -4 q 125 11 140 -4 q 111 46 111 25 q 123 86 111 66 l 214 241 l 144 241 q 95 267 111 241 q 79 323 79 294 q 95 381 79 353 q 145 409 111 409 l 314 409 l 375 511 l 144 511 q 95 538 111 511 q 79 594 79 565 q 95 652 79 624 q 145 680 111 680 l 475 680 l 585 865 q 605 903 595 883 q 631 937 616 923 q 670 951 646 951 q 707 935 693 951 q 722 896 722 918 q 717 871 722 883 q 706 848 713 859 l 604 680 l 690 680 q 740 652 724 680 q 755 594 755 624 q 739 538 755 565 q 690 511 724 511 l 502 511 l 440 409 l 690 409 q 740 381 724 409 q 755 323 755 353 q 739 267 755 293 q 690 241 724 241 l 338 241 l 235 71 q 216 41 227 58 q 192 9 205 23 q 161 -4 178 -4 z "},"¬":{"ha":694,"x_min":59,"x_max":623,"o":"m 59 494 q 79 558 59 528 q 136 588 98 588 l 526 588 q 598 559 574 588 q 623 484 623 530 l 623 245 q 598 186 623 208 q 537 163 573 163 q 474 186 500 163 q 448 246 448 208 l 448 404 l 134 404 q 78 433 97 404 q 59 494 59 461 z "},"#":{"ha":833,"x_min":8,"x_max":827,"o":"m 437 685 q 532 688 483 685 q 540 742 536 715 q 547 795 544 768 q 553 837 549 811 q 564 888 556 863 q 585 931 571 913 q 622 948 599 948 q 671 931 650 948 q 691 884 691 914 q 676 792 691 844 q 649 698 662 740 l 652 699 q 707 704 680 702 q 762 706 734 706 q 809 688 792 706 q 827 640 827 671 q 810 590 827 610 q 761 571 793 571 q 688 573 724 571 q 615 578 652 576 q 600 518 607 548 q 587 458 593 488 l 574 389 q 618 393 595 391 q 672 399 645 397 q 727 401 700 401 q 793 335 793 401 q 775 285 793 304 q 726 266 758 266 q 639 269 683 266 q 552 276 595 273 l 517 98 q 508 53 514 78 q 488 8 501 27 q 448 -10 474 -10 q 399 7 420 -10 q 378 54 378 24 q 389 124 378 83 q 414 204 400 164 q 438 274 429 245 q 440 279 439 277 q 369 279 404 279 q 297 277 333 278 q 282 195 289 236 q 268 112 275 153 q 258 63 264 92 q 238 12 252 34 q 196 -10 224 -10 q 147 7 168 -10 q 127 54 127 24 q 137 123 127 83 q 161 201 147 162 q 184 269 175 240 q 186 275 185 272 q 131 274 159 274 q 76 273 104 273 q 8 338 8 271 q 78 406 8 406 q 150 403 114 406 q 222 395 186 399 q 244 487 234 441 q 262 580 254 533 q 186 578 224 578 q 111 577 149 577 q 43 644 43 577 q 113 711 43 711 q 197 707 155 711 q 281 697 239 703 q 289 751 285 723 l 297 810 q 306 865 300 832 q 326 923 311 897 q 370 948 340 948 q 419 931 399 948 q 439 884 439 913 q 424 787 439 843 q 394 686 408 732 q 437 685 416 685 m 486 584 q 426 584 456 584 q 365 583 395 583 q 340 484 352 533 q 318 385 329 434 q 360 381 339 382 q 403 380 382 380 q 470 381 435 380 q 495 482 484 431 q 515 583 506 532 q 486 584 500 584 z "},"¤":{"ha":833,"x_min":79,"x_max":755,"o":"m 417 180 q 302 202 355 180 l 227 122 q 195 99 214 108 q 157 90 177 90 q 103 114 125 90 q 80 170 80 138 q 89 209 80 190 q 111 242 98 227 l 178 313 q 146 442 146 371 q 177 568 146 511 l 111 637 q 89 671 98 652 q 79 711 79 690 q 103 766 79 743 q 157 790 126 790 q 195 781 177 790 q 227 758 214 772 l 301 679 q 417 701 355 701 q 529 681 477 701 l 606 762 q 637 785 619 776 q 675 794 656 794 q 731 771 707 794 q 755 715 755 747 q 746 676 755 695 q 723 644 736 658 l 656 572 q 689 442 689 515 q 654 309 689 368 l 723 236 q 746 203 736 222 q 755 164 755 184 q 731 109 755 133 q 676 85 708 85 q 637 95 656 85 q 606 119 619 104 l 528 200 q 417 180 476 180 m 418 310 q 505 350 474 310 q 536 442 536 390 q 505 534 536 494 q 418 573 474 573 q 333 534 363 573 q 302 442 302 494 q 333 350 302 391 q 418 310 363 310 z "},"$":{"ha":833,"x_min":63,"x_max":786,"o":"m 478 -37 q 463 -95 478 -68 q 412 -121 448 -121 q 359 -94 375 -121 q 344 -35 344 -66 q 346 5 344 -16 q 247 22 297 9 q 156 60 197 35 q 89 124 114 85 q 63 220 63 163 q 96 311 63 276 q 187 347 130 347 q 279 308 244 347 q 315 214 315 269 l 315 169 q 357 89 315 114 q 362 120 359 104 q 368 153 365 136 q 377 233 374 193 q 381 315 380 274 q 278 364 332 339 q 176 424 224 389 q 99 511 129 459 q 69 641 69 563 q 112 790 69 730 q 224 885 155 851 q 371 930 293 920 q 368 964 369 947 q 366 998 366 981 q 381 1057 366 1031 q 433 1083 395 1083 q 485 1055 470 1083 q 500 996 500 1027 q 499 964 500 979 q 496 932 498 948 q 623 904 562 926 q 725 834 685 881 q 764 710 764 787 q 751 648 764 679 q 713 595 738 616 q 654 574 689 574 q 556 609 600 574 q 512 701 512 643 l 512 769 q 483 846 512 818 q 480 828 481 837 q 477 809 478 819 q 466 707 469 758 q 463 604 463 656 q 568 555 512 579 q 673 498 624 530 q 754 418 723 466 q 786 296 786 370 q 743 139 786 199 q 629 47 699 78 q 476 7 558 16 q 478 -37 478 -16 m 344 751 q 360 689 344 715 q 402 642 376 663 q 399 724 401 683 q 390 805 396 764 q 386 828 388 817 q 382 851 385 840 q 353 805 362 834 q 344 751 344 777 m 454 157 q 460 123 457 140 q 466 90 463 106 q 500 119 487 100 q 514 168 514 139 q 494 232 514 205 q 443 280 475 259 q 447 219 444 250 q 454 157 450 188 z "},"¥":{"ha":833,"x_min":24,"x_max":810,"o":"m 113 304 q 121 333 113 318 q 146 348 130 348 l 262 348 l 229 429 l 145 429 q 120 443 127 429 q 113 473 113 458 q 121 502 113 487 q 146 516 130 516 l 194 516 l 117 703 q 99 745 107 729 q 70 779 91 760 q 35 815 46 801 q 24 865 24 830 q 45 921 24 903 q 104 939 67 939 l 407 939 q 464 921 444 939 q 485 865 485 903 q 476 821 485 842 q 448 786 468 800 l 454 781 q 437 767 445 776 q 430 747 430 759 q 434 728 430 737 q 443 709 438 718 l 443 707 q 448 697 446 703 q 452 686 451 691 l 500 526 l 541 640 q 553 677 547 659 q 568 713 559 696 l 568 715 q 578 751 578 734 q 562 782 578 769 l 568 791 q 543 823 550 802 q 536 865 536 844 q 557 921 536 903 q 614 939 578 939 l 730 939 q 788 921 767 939 q 810 865 810 903 q 800 821 810 836 q 772 786 791 806 q 739 740 753 765 q 715 689 725 715 l 650 516 l 698 516 q 724 502 715 516 q 732 473 732 488 q 725 443 732 456 q 698 429 717 429 l 616 429 l 586 348 l 698 348 q 724 334 715 348 q 732 304 732 319 q 725 274 732 288 q 698 260 717 260 l 583 260 l 583 222 q 594 175 583 191 q 619 149 605 159 q 645 122 633 138 q 656 75 656 106 q 634 18 656 37 q 576 0 613 0 l 271 0 q 213 18 235 0 q 192 75 192 37 q 203 122 192 105 q 229 150 214 138 q 255 177 243 162 q 266 219 266 192 l 266 260 l 145 260 q 120 274 127 260 q 113 304 113 289 z "},"€":{"ha":833,"x_min":22,"x_max":797,"o":"m 22 398 q 30 427 22 412 q 55 441 38 441 l 99 441 q 99 456 99 449 q 101 513 99 485 l 53 513 q 29 527 35 513 q 22 557 22 542 q 30 585 22 570 q 52 600 37 600 l 113 600 q 188 789 134 707 q 332 919 242 872 q 547 966 421 966 q 620 959 578 966 q 702 935 662 951 q 769 891 742 918 q 795 825 795 864 q 787 768 795 795 q 770 712 779 740 q 753 665 764 691 q 714 640 743 640 q 665 659 677 640 q 643 709 652 678 q 624 763 635 732 q 592 818 612 794 q 542 842 572 842 q 498 804 515 842 q 471 710 481 766 q 457 600 462 654 l 560 600 q 586 586 578 600 q 594 557 594 572 q 586 527 594 541 q 560 513 578 513 l 453 513 q 452 483 452 496 q 453 441 452 465 l 517 441 q 543 427 535 441 q 551 397 551 413 q 544 368 551 382 q 517 354 536 354 l 456 354 l 456 353 q 461 293 458 328 q 476 226 465 258 q 508 172 487 193 q 564 150 529 150 q 628 168 604 150 q 665 212 651 186 q 688 265 678 239 q 710 310 697 292 q 745 328 722 328 q 784 311 772 328 q 797 269 797 294 q 795 251 797 257 q 687 48 768 123 q 471 -27 606 -27 q 280 27 356 -27 q 161 168 203 81 q 106 354 119 254 l 53 354 q 29 369 35 354 q 22 398 22 383 z "},"£":{"ha":833,"x_min":48,"x_max":781,"o":"m 48 131 q 94 261 48 208 q 219 315 140 315 q 271 312 243 315 q 271 319 271 315 q 263 357 271 338 q 243 395 256 376 l 128 395 q 100 406 111 395 q 89 433 89 416 q 127 478 89 470 l 169 487 q 113 568 138 525 q 89 663 89 612 q 122 806 89 748 q 212 899 155 864 q 338 948 268 933 q 481 964 408 964 q 632 937 564 964 q 741 853 701 910 q 781 705 781 796 q 744 583 781 631 q 628 535 707 535 q 503 588 547 535 q 459 718 459 640 q 459 769 459 743 q 459 819 460 794 q 458 843 458 831 q 456 867 458 855 q 456 872 456 869 q 453 876 455 876 q 441 860 446 876 q 436 822 437 844 q 434 781 434 800 q 433 755 433 762 q 424 616 433 686 q 408 478 414 547 l 524 478 q 548 465 539 478 q 557 437 557 452 q 549 409 557 422 q 524 395 541 395 l 403 395 q 398 343 401 369 q 385 293 394 317 q 454 281 419 286 q 526 275 490 275 q 610 290 580 275 q 658 325 640 305 q 691 359 675 345 q 732 374 707 374 q 771 347 764 374 q 779 295 779 319 q 767 182 779 239 q 728 77 755 125 q 656 1 701 30 q 543 -28 610 -28 q 457 -6 496 -28 q 398 61 418 16 q 392 79 396 66 q 387 96 387 91 q 389 111 387 103 q 391 126 391 119 q 378 142 391 142 q 365 128 369 142 q 361 108 361 114 q 315 4 361 36 q 203 -28 269 -28 q 87 14 127 -28 q 48 131 48 56 z "},"¢":{"ha":833,"x_min":39,"x_max":789,"o":"m 479 329 q 479 256 479 292 q 481 184 479 220 q 509 182 494 182 q 598 197 556 182 q 680 237 641 212 q 705 255 692 245 q 734 264 718 264 q 762 247 755 264 q 769 214 769 231 q 743 130 769 165 q 675 71 717 95 q 584 33 633 47 q 491 15 536 20 q 492 -19 492 -2 q 493 -52 493 -35 q 481 -92 493 -75 q 444 -109 469 -109 q 407 -91 418 -109 q 396 -50 396 -73 q 397 -18 396 -34 q 398 13 397 -3 q 271 36 334 17 q 155 92 208 56 q 71 181 102 127 q 39 308 39 235 q 90 487 39 414 q 221 600 140 559 q 398 649 303 640 q 397 699 397 675 q 410 740 397 724 q 448 755 422 755 q 483 736 473 755 q 493 696 493 718 q 492 650 493 675 q 589 636 538 647 q 686 602 641 625 q 761 544 732 580 q 789 457 789 509 q 756 364 789 402 q 666 326 722 326 q 589 352 615 326 q 554 417 564 377 q 545 498 545 456 q 527 533 545 522 q 486 549 508 545 l 485 543 q 480 436 481 489 q 479 329 479 382 m 297 388 q 327 271 297 319 q 410 201 357 223 q 411 252 410 227 q 411 303 411 277 q 410 421 411 362 q 405 538 409 480 l 404 547 q 324 490 351 534 q 297 388 297 446 z "},"ƒ":{"ha":833,"x_min":-59,"x_max":835,"o":"m 575 686 q 574 671 575 676 l 703 671 q 780 596 780 671 q 750 543 780 561 q 690 526 721 526 l 561 526 l 517 54 q 490 -102 510 -28 q 432 -232 471 -175 q 331 -320 394 -288 q 172 -353 267 -353 q 66 -338 120 -353 q -23 -289 13 -324 q -59 -190 -59 -253 q -27 -103 -59 -138 q 58 -68 4 -68 q 135 -91 106 -68 q 185 -143 165 -113 q 226 -195 206 -172 q 275 -217 245 -217 q 315 -202 298 -217 q 331 -163 331 -186 q 311 -116 331 -141 q 264 -61 290 -91 q 217 4 237 -32 q 197 82 197 39 q 197 96 197 92 l 229 477 l 229 481 q 212 511 229 500 q 172 529 196 522 q 124 545 149 536 q 84 568 100 553 q 68 609 68 583 q 90 656 68 642 q 140 671 111 671 l 256 671 l 273 806 q 372 1015 289 943 q 591 1087 454 1087 q 672 1080 629 1087 q 751 1056 714 1073 q 811 1007 788 1038 q 835 928 835 977 q 799 838 835 867 q 704 810 762 810 q 647 826 669 810 q 608 866 624 842 q 577 913 592 890 q 545 954 563 937 q 502 970 528 970 q 467 956 480 970 q 454 920 454 941 q 473 866 454 891 q 515 815 491 842 q 557 758 538 789 q 575 686 575 727 z "},"%":{"ha":1126,"x_min":20,"x_max":1106,"o":"m 284 966 q 416 932 361 966 q 498 839 470 898 q 527 706 527 780 q 500 559 527 627 q 417 451 473 492 q 273 410 361 410 q 81 487 143 410 q 20 687 20 564 q 51 831 20 768 q 142 930 83 894 q 284 966 201 966 m 823 857 q 802 789 823 831 q 753 700 782 747 q 695 612 724 653 q 652 547 667 571 q 632 519 644 535 q 604 503 621 503 q 572 517 587 503 q 558 549 558 531 q 559 560 558 555 q 562 571 561 566 q 568 600 566 585 q 570 628 570 614 q 576 694 572 653 q 588 782 580 736 q 611 870 596 829 q 650 938 626 911 q 709 964 674 964 q 763 949 736 964 q 806 909 789 934 q 823 857 823 885 m 276 500 q 287 516 283 500 q 292 553 290 532 q 294 594 294 575 q 294 619 294 613 l 294 735 q 294 765 294 743 q 292 814 294 788 q 286 858 290 840 q 274 877 281 877 q 262 860 266 877 q 256 821 258 844 q 253 778 254 798 q 253 751 253 758 l 253 645 q 253 614 253 637 q 256 564 254 591 q 262 519 258 538 q 276 500 267 500 m 864 526 q 995 492 941 526 q 1078 398 1049 457 q 1106 265 1106 339 q 1079 118 1106 186 q 996 10 1052 51 q 852 -31 940 -31 q 661 46 723 -31 q 600 246 600 123 q 631 390 600 327 q 721 490 662 454 q 864 526 781 526 m 309 85 q 332 165 309 122 q 384 250 355 209 q 433 322 414 292 q 457 365 441 336 q 492 417 473 393 q 528 441 511 441 q 558 428 545 441 q 572 397 572 415 q 566 365 572 380 q 559 333 561 349 q 555 303 557 318 q 552 274 553 289 q 543 195 549 244 q 525 97 538 146 q 488 13 513 47 q 421 -21 463 -21 q 344 11 380 -21 q 309 85 309 43 m 856 60 q 866 75 863 60 q 871 112 869 91 q 873 152 873 134 q 873 177 873 171 l 873 295 q 873 325 873 302 q 871 374 873 348 q 865 418 869 399 q 853 437 861 437 q 841 421 846 437 q 835 383 837 405 q 833 342 833 361 q 833 317 833 323 l 833 197 q 833 168 833 190 q 836 121 833 146 q 842 78 838 96 q 856 60 847 60 z "},"‰":{"ha":1735,"x_min":71,"x_max":1655,"o":"m 323 966 q 497 904 431 966 q 564 732 564 841 q 500 547 564 618 q 319 475 437 475 q 137 538 202 475 q 71 720 71 601 q 141 901 71 835 q 323 966 210 966 m 959 859 q 953 823 959 840 q 937 789 947 805 q 868 699 909 740 q 785 619 827 658 q 737 574 761 597 q 691 526 713 551 q 674 510 684 517 q 652 503 665 503 q 619 515 635 503 q 602 547 602 528 q 614 589 602 557 q 641 660 625 621 q 672 733 657 699 q 692 782 686 767 q 714 837 702 806 q 745 897 727 867 q 786 945 762 926 q 841 964 810 964 q 895 950 868 964 q 941 911 922 935 q 959 859 959 888 m 320 559 q 350 580 340 559 q 364 631 360 601 q 369 688 368 661 q 369 729 369 716 q 368 767 369 742 q 363 819 368 792 q 348 864 359 846 q 319 883 338 883 q 287 863 298 883 q 271 813 275 842 q 267 756 267 784 q 267 713 267 728 q 268 674 267 699 q 273 622 269 648 q 289 577 277 595 q 320 559 300 559 m 881 464 q 1055 401 989 464 q 1122 229 1122 338 q 1058 43 1122 115 q 877 -28 994 -28 q 695 35 760 -28 q 630 216 630 98 q 699 397 630 331 q 881 464 768 464 m 1416 464 q 1590 401 1524 464 q 1655 229 1655 338 q 1592 43 1655 114 q 1411 -28 1528 -28 q 1229 35 1293 -28 q 1164 216 1164 98 q 1233 398 1164 332 q 1416 464 1302 464 m 241 84 q 261 153 241 117 q 311 223 281 189 q 372 287 340 258 q 427 338 404 317 q 466 374 446 355 q 503 412 485 393 q 523 432 512 422 q 548 441 533 441 q 581 429 566 441 q 597 397 597 416 q 586 350 597 377 q 562 295 575 322 q 540 248 548 267 q 513 175 528 220 q 476 85 497 130 q 426 9 454 40 q 359 -21 397 -21 q 304 -7 331 -21 q 259 31 277 7 q 241 84 241 55 m 878 56 q 908 77 898 56 q 922 127 918 98 q 927 185 926 157 q 927 226 927 213 q 926 264 927 239 q 921 316 926 290 q 906 361 916 342 q 876 380 896 380 q 844 359 855 380 q 829 310 833 339 q 825 253 825 281 q 825 210 825 225 q 826 171 825 197 q 831 119 827 146 q 847 74 836 93 q 878 56 858 56 m 1412 56 q 1442 77 1432 56 q 1456 127 1452 98 q 1460 185 1460 157 q 1461 226 1461 213 q 1460 264 1461 239 q 1455 316 1459 290 q 1440 361 1450 342 q 1410 380 1430 380 q 1378 359 1389 380 q 1364 310 1368 339 q 1359 253 1360 281 q 1359 210 1359 225 q 1360 171 1359 197 q 1365 119 1361 146 q 1381 74 1370 93 q 1412 56 1392 56 z "},"°":{"ha":575,"x_min":60,"x_max":517,"o":"m 288 967 q 407 938 355 967 q 488 857 458 908 q 517 738 517 805 q 486 623 517 672 q 404 547 456 574 q 288 519 353 519 q 172 548 224 519 q 90 627 120 576 q 60 743 60 677 q 90 859 60 808 q 171 938 119 909 q 288 967 223 967 m 288 838 q 224 809 248 838 q 201 743 201 781 q 225 677 201 705 q 288 650 249 650 q 352 676 327 650 q 376 741 376 703 q 353 809 376 781 q 288 838 330 838 z "},"ª":{"ha":527,"x_min":-61,"x_max":605,"o":"m -42 857 q -34 895 -42 876 q -14 928 -26 913 q 77 994 22 971 q 191 1024 131 1016 q 303 1032 251 1032 q 412 1016 362 1032 q 491 960 461 999 q 522 855 522 922 l 522 590 q 526 572 522 580 q 543 565 531 565 q 557 571 551 565 q 572 576 564 576 q 597 564 589 576 q 605 536 605 552 q 580 466 605 495 q 517 422 555 437 q 444 407 480 407 q 355 426 400 407 q 292 487 310 446 q 212 426 264 445 q 111 407 159 407 q -9 445 43 407 q -61 557 -61 484 q -36 646 -61 610 q 30 703 -11 682 q 118 734 71 724 q 208 743 165 743 q 234 743 221 743 q 259 740 246 742 l 259 890 q 254 922 259 903 q 231 941 248 941 q 210 925 213 941 q 206 895 206 908 q 171 796 206 825 q 69 767 136 767 q -9 786 24 767 q -42 857 -42 805 m 205 608 q 216 565 205 585 q 254 545 227 545 q 260 545 257 545 l 259 546 l 259 665 q 241 668 251 668 q 213 646 220 668 q 205 608 205 625 z "},"º":{"ha":558,"x_min":-49,"x_max":608,"o":"m 285 1031 q 453 992 380 1031 q 567 882 526 954 q 608 715 608 811 q 563 550 608 620 q 442 443 517 481 q 275 405 366 405 q 106 444 179 405 q -8 555 33 484 q -49 723 -49 627 q -3 886 -49 817 q 119 994 43 956 q 285 1031 195 1031 m 319 533 q 337 548 332 533 q 344 579 342 562 q 345 604 345 596 q 340 654 345 619 q 326 731 335 688 q 304 813 317 774 q 276 879 292 853 q 243 905 261 905 q 226 890 231 905 q 219 858 220 876 q 218 833 218 841 q 222 783 218 818 q 236 706 227 748 q 257 624 245 663 q 286 559 270 585 q 319 533 301 533 z "},"§":{"ha":1000,"x_min":99,"x_max":916,"o":"m 322 -296 q 273 -304 297 -296 q 224 -313 250 -313 q 176 -295 186 -313 q 155 -247 165 -277 l 155 -245 q 150 -228 153 -237 q 144 -211 147 -219 q 133 -172 140 -196 q 120 -123 125 -147 q 114 -85 114 -99 q 136 -45 114 -58 q 181 -31 158 -31 q 221 -44 207 -31 q 250 -75 235 -57 q 356 -158 302 -134 q 489 -181 410 -181 q 539 -177 509 -181 q 595 -159 570 -172 q 619 -119 619 -146 q 596 -80 619 -93 q 543 -61 572 -66 q 494 -52 513 -55 q 420 -35 457 -45 q 348 -12 384 -24 q 227 45 284 12 q 135 131 170 79 q 99 258 99 182 q 146 398 99 345 q 262 478 194 452 q 168 567 205 514 q 130 695 130 620 q 161 814 130 765 q 242 896 191 864 q 353 942 292 927 q 473 957 414 957 q 533 955 503 957 q 591 947 562 953 q 639 936 615 942 q 687 930 663 930 q 728 945 709 930 q 772 960 747 960 q 822 937 808 960 q 848 886 836 914 q 872 829 856 867 q 903 754 889 791 q 916 699 916 717 q 895 653 916 669 q 846 637 873 637 q 813 647 823 637 q 789 674 803 657 q 668 785 734 745 q 509 826 601 826 q 462 821 490 826 q 411 804 433 817 q 389 766 389 791 q 415 720 389 736 q 476 695 442 703 q 532 682 511 687 q 653 650 590 671 q 772 595 717 629 q 863 510 828 561 q 897 388 897 459 q 849 249 897 303 q 731 165 801 194 q 828 78 789 130 q 867 -49 867 26 q 834 -170 867 -120 q 748 -250 802 -219 q 631 -294 694 -280 q 509 -309 568 -309 q 453 -307 481 -309 q 397 -303 425 -306 q 359 -298 378 -301 q 322 -296 341 -296 m 500 245 q 550 234 524 241 q 602 220 576 228 q 650 245 629 228 q 671 295 671 263 q 644 346 671 328 q 582 372 617 363 q 523 385 547 380 q 465 398 495 391 q 404 415 435 406 q 354 392 376 409 q 331 344 331 376 q 350 301 331 319 q 397 273 369 284 q 453 256 425 262 q 500 245 481 250 z "},"¶":{"ha":833,"x_min":-33,"x_max":848,"o":"m 769 0 l 244 0 q 203 20 218 0 q 189 64 189 39 q 207 130 189 109 q 249 161 225 151 q 292 185 273 171 q 310 230 310 199 l 310 372 q 273 366 292 370 q 237 363 255 363 q 39 439 111 363 q -33 639 -33 515 q -4 782 -33 713 q 80 895 24 850 q 218 939 136 939 l 775 939 q 826 918 805 939 q 847 867 847 898 q 833 814 847 833 q 802 781 820 795 q 771 748 785 767 q 758 694 758 728 l 758 245 q 767 192 758 210 q 789 166 776 175 q 817 149 803 157 q 839 126 830 141 q 848 79 848 111 q 826 23 848 45 q 769 0 803 0 m 582 261 l 582 678 q 574 730 582 703 q 534 757 566 757 q 495 729 505 757 q 486 678 486 701 l 486 261 q 495 211 486 238 q 534 183 505 183 q 574 210 566 183 q 582 261 582 237 z "},"¹":{"ha":557,"x_min":24,"x_max":541,"o":"m 30 874 q 44 909 30 899 q 78 922 58 920 q 116 925 98 925 q 192 929 158 925 q 267 948 227 934 q 307 961 286 956 q 349 966 328 966 q 391 956 373 966 q 408 918 408 945 l 408 574 q 428 544 408 551 q 475 534 448 537 q 521 522 501 531 q 541 486 541 512 q 523 450 541 459 q 481 440 504 440 l 84 440 q 43 450 62 440 q 24 486 24 459 q 38 518 24 509 q 75 531 53 528 q 118 537 96 534 q 154 547 140 539 q 169 574 169 555 l 169 781 q 151 821 169 817 q 105 825 134 825 q 54 832 78 825 q 30 874 30 840 z "},"²":{"ha":557,"x_min":27,"x_max":525,"o":"m 27 502 q 46 561 27 539 q 95 593 66 582 q 197 646 155 621 q 259 713 238 671 q 280 834 280 755 q 279 858 280 841 q 274 890 279 875 q 260 905 270 905 q 243 891 245 905 q 240 868 240 878 l 240 809 q 209 743 240 764 q 136 722 177 722 q 63 747 91 722 q 35 818 35 772 q 58 891 35 862 q 117 936 81 920 q 194 960 153 953 q 270 966 235 966 q 378 953 323 966 q 470 905 433 940 q 507 804 507 870 q 477 722 507 755 q 403 667 446 689 q 321 630 360 645 l 263 607 q 325 598 294 604 q 387 593 356 593 q 419 604 409 593 q 434 627 429 614 q 449 650 440 640 q 479 660 458 660 q 515 643 505 660 q 525 603 525 625 q 510 511 525 555 q 462 438 495 467 q 374 410 429 410 q 302 424 336 410 q 249 473 269 438 q 247 479 248 477 q 243 484 245 481 l 243 486 l 241 487 l 241 488 q 235 500 240 491 q 226 510 229 510 q 215 494 216 510 q 212 471 214 478 q 181 421 208 433 q 121 410 155 410 q 52 434 77 410 q 27 502 27 458 z "},"³":{"ha":556,"x_min":35,"x_max":540,"o":"m 533 572 q 508 487 533 521 q 444 434 484 453 q 359 406 404 414 q 271 398 313 398 q 201 402 241 398 q 123 419 161 407 q 60 457 85 432 q 35 522 35 481 q 70 591 35 567 q 144 615 104 615 q 218 593 192 615 q 243 522 243 570 q 246 482 243 503 q 275 461 249 461 q 302 477 294 461 q 312 512 310 492 q 314 545 314 532 q 306 596 314 569 q 267 623 298 623 l 231 623 q 195 634 210 623 q 180 668 180 645 q 189 700 180 686 q 212 723 197 713 l 300 787 l 217 787 q 176 775 186 787 q 162 747 165 763 q 148 718 158 730 q 109 706 138 706 q 72 716 88 706 q 56 749 56 726 q 58 796 56 772 q 64 842 61 819 q 72 892 67 870 q 91 926 76 913 q 140 939 106 939 l 479 939 q 521 926 503 939 q 540 887 540 913 q 520 847 540 865 q 484 818 500 829 l 340 714 q 361 715 350 715 q 443 699 404 715 q 508 651 482 683 q 533 572 533 620 z "},"∕":{"ha":185,"x_min":-134,"x_max":380,"o":"m 380 857 q 362 791 380 828 q 321 719 345 754 q 281 660 298 684 q 265 636 273 648 q 250 613 257 625 q 227 574 242 601 q 195 525 212 548 q 162 503 178 503 q 131 516 144 503 q 117 548 117 530 q 118 557 117 553 q 120 566 119 562 q 125 602 123 584 q 130 637 127 620 q 133 675 132 656 q 136 713 134 694 q 145 782 138 741 q 167 866 153 824 q 206 936 182 908 q 268 964 231 964 q 321 949 295 964 q 363 909 347 934 q 380 857 380 885 m -134 85 q -111 164 -134 121 q -58 250 -87 208 q -9 322 -28 292 q 12 357 2 340 q 33 393 22 375 q 54 424 42 407 q 85 441 66 441 q 116 428 103 441 q 130 397 130 414 q 125 365 130 380 q 117 333 120 349 q 117 323 117 328 q 116 313 117 319 q 111 247 114 288 q 99 160 107 206 q 76 73 91 114 q 38 5 62 31 q -21 -21 14 -21 q -98 11 -62 -21 q -134 85 -134 43 z "},"¼":{"ha":1298,"x_min":71,"x_max":1219,"o":"m 78 874 q 96 912 78 900 q 138 925 114 925 q 220 934 182 925 q 299 956 258 943 q 326 963 313 960 q 353 966 339 966 q 391 955 376 966 q 406 918 406 944 l 406 574 q 420 545 406 553 q 452 532 434 536 q 484 518 470 528 q 498 486 498 509 q 481 450 498 460 q 441 440 465 440 l 128 440 q 88 450 105 440 q 71 486 71 460 q 85 518 71 508 q 118 532 99 528 q 153 542 137 536 q 169 554 165 547 q 172 574 172 561 l 172 781 q 167 812 172 800 q 138 825 162 825 q 96 835 113 825 q 78 874 78 846 m 652 500 q 619 513 635 500 q 604 545 604 526 q 614 589 604 561 q 636 647 624 618 q 654 692 648 675 q 679 766 664 721 q 714 856 694 810 q 763 931 734 901 q 829 962 791 962 q 883 947 857 962 q 928 909 910 933 q 947 857 947 885 q 921 777 947 817 q 861 700 895 736 q 800 637 826 664 l 690 523 q 674 507 682 514 q 652 500 666 500 m 821 369 q 804 415 821 394 q 788 463 788 436 q 810 521 788 501 q 865 549 833 541 q 928 557 898 557 q 985 549 957 557 q 1032 522 1013 541 q 1050 468 1050 503 q 1034 418 1050 442 q 995 373 1018 393 q 953 338 972 353 l 779 214 l 904 214 q 923 241 909 231 l 1041 336 q 1064 353 1053 346 q 1090 359 1076 359 q 1122 324 1122 359 l 1124 214 l 1166 214 q 1202 207 1186 214 q 1219 176 1219 199 q 1204 140 1219 150 q 1166 131 1190 131 l 1124 131 q 1139 105 1126 113 q 1168 91 1152 97 q 1195 76 1183 85 q 1207 46 1207 66 q 1190 11 1207 21 q 1150 1 1172 1 l 864 1 q 825 11 842 1 q 807 46 807 21 q 820 78 807 69 q 849 91 832 87 q 881 103 867 96 q 901 131 896 111 l 691 131 q 652 144 668 131 q 636 181 636 157 q 648 216 636 199 q 675 243 661 234 l 764 294 q 800 327 780 302 q 821 369 821 351 m 552 439 q 585 426 570 439 q 600 395 600 413 q 589 348 600 382 q 565 279 578 314 q 545 229 551 245 q 511 134 528 181 q 467 42 493 86 q 429 -4 451 16 q 374 -24 408 -24 q 319 -10 347 -24 q 275 28 292 4 q 257 81 257 52 q 275 147 257 113 q 321 214 294 181 q 377 275 349 246 q 427 326 406 304 q 468 369 448 347 q 509 412 488 391 q 528 430 518 421 q 552 439 538 439 z "},"½":{"ha":1298,"x_min":71,"x_max":1219,"o":"m 78 874 q 96 912 78 900 q 138 925 114 925 q 218 933 182 925 q 296 956 255 942 q 323 963 310 960 q 350 966 336 966 q 388 955 374 966 q 403 918 403 944 l 403 574 q 416 545 403 553 q 447 532 430 536 q 478 518 465 528 q 492 486 492 509 q 475 450 492 460 q 436 440 459 440 l 128 440 q 88 450 105 440 q 71 486 71 460 q 86 519 71 511 q 120 532 101 528 q 155 543 140 535 q 170 574 170 551 l 170 781 q 164 812 170 800 q 136 825 159 825 q 94 836 111 825 q 78 874 78 847 m 640 500 q 606 513 622 500 q 591 545 591 526 q 598 585 591 559 q 616 637 606 610 q 630 678 625 663 q 654 754 640 707 q 690 849 669 801 q 741 929 711 897 q 808 962 770 962 q 863 947 836 962 q 908 909 890 933 q 926 857 926 886 q 920 820 926 838 q 905 787 914 803 q 839 695 878 737 q 761 612 801 652 q 721 570 741 591 q 681 528 701 549 q 663 509 673 519 q 640 500 653 500 m 698 66 q 721 128 698 106 q 776 160 743 150 q 870 204 826 181 q 942 266 915 228 q 970 370 970 304 l 970 391 q 969 419 970 400 q 962 453 968 437 q 942 469 956 469 q 916 451 919 469 q 913 417 913 433 l 913 373 q 881 307 913 328 q 808 287 849 287 q 735 311 764 287 q 706 382 706 336 q 731 456 706 427 q 795 502 756 485 q 876 525 833 518 q 953 531 918 531 q 1036 524 993 531 q 1115 500 1078 517 q 1175 450 1152 482 q 1198 369 1198 418 q 1166 286 1198 319 q 1088 231 1133 253 q 1004 195 1042 210 l 941 172 q 1008 163 975 168 q 1075 158 1041 158 q 1109 168 1098 158 q 1126 191 1120 178 q 1142 214 1133 204 q 1171 224 1151 224 q 1208 208 1197 224 q 1219 168 1219 191 q 1218 155 1219 159 q 1198 66 1213 108 q 1151 -1 1183 24 q 1063 -26 1119 -26 q 983 -11 1019 -26 q 925 45 947 4 l 925 45 q 915 62 923 50 q 902 75 907 75 q 888 61 889 75 q 885 39 886 48 q 854 -14 880 -1 q 792 -26 828 -26 q 723 -2 749 -26 q 698 66 698 22 m 541 439 q 574 426 559 439 q 589 395 589 413 q 582 362 589 385 q 567 314 575 338 q 554 279 558 290 q 529 199 544 250 q 492 98 514 149 q 440 12 470 47 q 371 -24 410 -24 q 316 -9 343 -24 q 272 29 290 5 q 254 82 254 53 q 280 161 254 119 q 340 241 307 203 q 399 305 374 279 l 500 412 q 518 430 509 422 q 541 439 526 439 z "},"¾":{"ha":1298,"x_min":83,"x_max":1219,"o":"m 954 856 q 930 780 954 821 q 873 701 905 739 q 819 636 842 663 l 723 524 q 708 508 716 515 q 687 500 699 500 q 654 513 669 500 q 639 545 639 526 q 653 615 639 572 q 675 686 667 658 q 695 760 684 714 q 726 852 707 806 q 771 930 744 899 q 838 962 799 962 q 891 947 865 962 q 936 908 918 932 q 954 856 954 884 m 552 572 q 513 467 552 505 q 418 414 475 429 q 305 398 361 398 q 237 402 275 398 q 164 420 199 407 q 106 457 129 433 q 83 522 83 481 q 117 591 83 566 q 191 615 150 615 q 260 596 231 615 q 289 532 289 576 l 289 494 q 293 473 289 486 q 309 461 296 461 q 327 476 321 461 q 333 510 332 492 q 334 536 334 528 q 333 567 334 547 q 325 606 331 588 q 303 623 318 623 l 270 623 q 235 634 249 623 q 220 668 220 645 q 228 700 220 687 q 250 723 235 712 l 330 787 l 258 787 q 220 775 229 787 q 207 747 210 763 q 193 718 203 730 q 154 706 183 706 q 118 716 134 706 q 102 749 102 726 q 105 796 102 772 q 110 842 107 819 q 117 892 113 870 q 135 926 121 913 q 184 939 150 939 l 498 939 q 540 926 522 939 q 559 887 559 913 q 539 848 559 866 q 504 818 519 829 l 373 714 q 397 715 385 715 q 506 676 459 715 q 552 572 552 637 m 667 181 q 692 232 667 209 q 749 275 717 254 q 806 318 781 296 q 831 369 831 341 q 815 415 831 393 q 799 463 799 436 q 821 521 799 500 q 874 549 842 541 q 937 557 907 557 q 993 549 965 557 q 1039 521 1021 541 q 1057 468 1057 502 q 1025 395 1057 428 q 963 338 992 361 l 805 214 l 914 214 q 932 241 920 231 l 1050 336 q 1073 352 1061 345 q 1099 359 1084 359 q 1131 324 1131 359 l 1132 214 l 1167 214 q 1203 207 1187 214 q 1219 176 1219 199 q 1205 141 1219 151 q 1167 131 1191 131 l 1133 131 q 1146 104 1135 113 q 1172 90 1158 96 q 1198 75 1187 84 q 1208 46 1208 66 q 1192 11 1208 20 q 1152 1 1175 1 l 880 1 q 841 11 858 1 q 824 46 824 21 q 839 79 824 70 q 873 95 854 88 q 901 107 892 102 q 911 131 909 113 l 722 131 q 683 144 699 131 q 667 181 667 157 m 327 81 q 353 163 327 119 q 414 249 379 208 q 472 317 448 290 l 551 410 q 570 429 560 419 q 594 439 580 439 q 627 426 612 439 q 642 395 642 413 q 631 343 642 376 q 614 291 620 311 l 595 220 q 576 152 587 193 q 548 71 565 111 q 505 3 531 31 q 443 -24 479 -24 q 389 -9 416 -24 q 345 29 362 5 q 327 81 327 53 z "},"´":{"ha":694,"x_min":151,"x_max":545,"o":"m 151 749 q 155 773 151 758 q 165 795 159 788 l 256 897 q 265 911 261 904 q 273 926 269 919 q 331 997 295 966 q 414 1028 366 1028 q 505 996 465 1028 q 545 911 545 964 q 512 828 545 859 q 439 774 479 797 q 424 765 431 770 q 407 758 416 761 l 241 713 l 240 713 l 239 712 q 222 708 231 711 q 204 704 214 704 q 168 715 184 704 q 151 749 151 727 z "},"˝":{"ha":694,"x_min":39,"x_max":656,"o":"m 39 753 q 55 813 39 783 q 83 869 71 843 q 116 941 100 905 q 157 1000 131 977 q 232 1024 183 1024 q 310 994 277 1024 q 342 918 342 964 q 327 866 342 893 q 289 815 312 838 q 244 782 267 793 l 124 725 q 105 716 115 720 q 84 713 95 713 q 53 724 66 713 q 39 753 39 734 m 342 760 q 351 798 342 782 l 403 893 q 408 904 406 899 q 412 913 410 909 q 459 988 429 956 q 540 1021 490 1021 q 620 993 585 1021 q 656 917 656 964 q 631 846 656 873 q 574 795 606 819 q 562 786 568 791 q 548 779 555 782 l 429 730 q 410 723 420 726 q 389 719 399 719 q 356 730 370 719 q 342 760 342 741 z "},"`":{"ha":694,"x_min":151,"x_max":545,"o":"m 281 1028 q 365 997 330 1028 q 422 926 399 966 q 430 911 426 919 q 439 897 434 904 l 530 795 q 540 773 536 788 q 545 749 545 758 q 528 715 545 727 q 491 704 511 704 q 472 707 481 704 q 454 713 463 710 l 288 758 q 272 765 279 761 q 256 774 264 770 q 183 828 216 796 q 151 910 151 859 q 190 996 151 964 q 281 1028 230 1028 z "},"ˆ":{"ha":694,"x_min":67,"x_max":628,"o":"m 628 807 q 610 770 628 783 q 571 757 593 757 q 542 763 556 757 q 517 778 528 769 l 348 899 l 178 778 q 153 763 166 769 q 123 757 139 757 q 84 770 102 757 q 67 806 67 783 q 88 858 67 836 l 225 998 q 237 1011 232 1004 q 286 1055 257 1038 q 348 1072 314 1072 q 407 1057 387 1072 q 452 1017 427 1042 l 607 858 q 628 807 628 836 z "},"ˇ":{"ha":694,"x_min":67,"x_max":628,"o":"m 453 806 q 407 765 428 780 q 348 750 386 750 q 278 771 300 750 q 225 823 255 792 l 88 964 q 67 1015 67 986 q 85 1052 67 1038 q 124 1065 102 1065 q 153 1059 140 1065 q 178 1044 166 1053 l 348 922 l 517 1044 q 542 1059 528 1053 q 570 1065 555 1065 q 610 1052 592 1065 q 628 1015 628 1038 q 607 964 628 986 l 453 806 z "},"˘":{"ha":694,"x_min":69,"x_max":625,"o":"m 347 881 q 444 893 402 881 q 525 947 486 906 q 546 968 536 959 q 572 977 555 977 q 613 955 601 977 q 625 908 625 932 q 600 813 625 852 q 533 750 574 774 q 443 715 492 726 q 347 704 394 704 q 252 715 300 704 q 161 750 203 726 q 95 813 120 774 q 69 908 69 852 q 81 955 69 932 q 121 977 93 977 q 148 969 139 977 q 167 951 156 962 q 249 894 209 907 q 347 881 289 881 z "},"˜":{"ha":694,"x_min":42,"x_max":652,"o":"m 488 706 q 393 727 438 706 q 307 768 348 747 q 224 789 265 789 q 178 776 191 789 q 158 746 165 763 q 139 715 151 728 q 97 703 127 703 q 53 726 63 703 q 42 778 42 749 q 82 910 42 854 q 205 966 122 966 q 302 945 257 966 q 388 904 347 924 q 471 883 430 883 q 516 896 503 883 q 537 926 530 909 q 556 956 544 943 q 597 969 568 969 q 642 946 631 969 q 652 895 652 923 q 612 762 652 818 q 488 706 571 706 z "},"ˉ":{"ha":694,"x_min":39,"x_max":655,"o":"m 39 819 q 59 882 39 858 q 119 906 79 906 l 576 906 q 635 882 616 906 q 655 820 655 858 q 635 758 655 782 q 576 734 616 734 l 119 734 q 60 758 80 734 q 39 819 39 781 z "},"¨":{"ha":694,"x_min":39,"x_max":655,"o":"m 180 737 q 79 769 119 737 q 39 865 39 801 q 79 962 39 930 q 180 994 119 994 q 281 962 241 994 q 320 865 320 930 q 280 769 320 801 q 180 737 241 737 m 513 737 q 412 769 452 737 q 373 865 373 800 q 412 962 373 930 q 513 994 452 994 q 615 963 576 994 q 655 865 655 931 q 615 769 655 800 q 513 737 575 737 z "},"˙":{"ha":694,"x_min":205,"x_max":587,"o":"m 395 719 q 308 732 352 719 q 234 775 264 745 q 205 857 205 805 q 235 938 205 908 q 309 979 264 967 q 395 991 353 991 q 483 979 438 991 q 557 938 527 967 q 587 857 587 908 q 557 774 587 804 q 483 731 528 744 q 395 719 439 719 z "},"˚":{"ha":694,"x_min":115,"x_max":580,"o":"m 347 699 q 273 705 313 699 q 197 728 233 712 q 138 773 161 745 q 115 846 115 802 q 138 918 115 889 q 197 962 161 946 q 273 985 233 978 q 347 991 313 991 q 421 985 381 991 q 498 962 462 978 q 557 917 534 945 q 580 846 580 889 q 557 774 580 802 q 498 729 534 745 q 422 705 462 712 q 347 699 382 699 m 349 904 q 308 899 331 904 q 267 881 284 894 q 250 846 250 869 q 267 810 250 823 q 308 792 284 798 q 349 787 331 787 q 389 792 366 787 q 429 810 412 798 q 446 846 446 823 q 429 881 446 869 q 389 899 412 894 q 349 904 366 904 z "},"¸":{"ha":694,"x_min":117,"x_max":577,"o":"m 316 13 l 420 13 l 361 -73 q 376 -73 368 -73 q 438 -77 404 -73 q 504 -92 473 -81 q 556 -126 536 -104 q 577 -185 577 -149 q 552 -252 577 -227 q 487 -291 526 -277 q 407 -309 448 -304 q 336 -314 366 -314 q 282 -311 318 -314 q 209 -298 247 -307 q 144 -274 171 -290 q 117 -233 117 -258 q 131 -198 117 -212 q 167 -184 145 -184 q 191 -188 179 -184 q 214 -197 203 -192 l 214 -197 l 216 -199 l 218 -199 q 266 -213 241 -210 q 315 -216 290 -216 q 343 -214 326 -216 q 373 -205 359 -212 q 387 -184 387 -199 q 363 -160 387 -164 q 309 -157 340 -156 q 254 -153 277 -157 q 231 -130 231 -149 q 241 -101 231 -120 q 267 -59 252 -81 q 296 -16 282 -36 q 316 13 310 3 z "},"˛":{"ha":694,"x_min":104,"x_max":591,"o":"m 473 52 l 505 1 q 456 -19 484 -7 q 399 -47 427 -31 q 353 -85 372 -64 q 334 -132 334 -106 q 349 -162 334 -152 q 382 -177 363 -173 q 417 -181 401 -181 q 469 -175 447 -181 q 515 -153 490 -168 q 530 -144 523 -148 q 546 -140 537 -140 q 578 -154 566 -140 q 591 -186 591 -168 q 563 -252 591 -226 q 494 -295 536 -279 q 410 -318 453 -311 q 338 -325 368 -325 q 263 -319 303 -325 q 187 -297 223 -313 q 127 -254 151 -282 q 104 -182 104 -226 q 131 -101 104 -136 q 200 -40 157 -66 q 293 3 243 -15 q 391 33 343 21 q 473 52 438 45 z "},"́":{"ha":0,"x_min":39,"x_max":370,"o":"m 39 749 q 51 795 39 767 q 78 852 63 824 q 102 897 93 880 q 136 958 118 928 q 179 1008 153 988 q 245 1028 205 1028 q 332 995 295 1028 q 370 910 370 962 q 330 815 370 853 q 241 758 290 778 l 129 713 q 110 707 119 709 q 90 704 101 704 q 55 716 70 704 q 39 749 39 728 z "},"̀":{"ha":0,"x_min":39,"x_max":369,"o":"m 163 1028 q 229 1008 203 1028 q 273 958 255 988 q 307 897 291 928 q 331 852 316 880 q 357 797 345 825 q 369 749 369 768 q 354 716 369 728 q 318 704 338 704 q 267 716 294 704 q 218 738 239 728 q 137 775 178 755 q 67 826 96 795 q 39 910 39 858 q 76 995 39 962 q 163 1028 113 1028 z "},"̂":{"ha":0,"x_min":40,"x_max":542,"o":"m 542 753 q 525 717 542 730 q 486 703 507 703 q 457 709 471 703 q 432 724 444 715 l 291 833 l 150 724 q 125 709 138 715 q 96 703 111 703 q 58 717 75 703 q 40 753 40 730 q 60 806 40 782 l 170 935 q 222 987 197 966 q 291 1009 247 1009 q 360 987 335 1009 q 412 935 385 966 l 522 806 q 542 753 542 782 z "},"̃":{"ha":0,"x_min":39,"x_max":524,"o":"m 391 706 q 314 727 349 706 q 250 768 279 747 q 195 789 221 789 q 162 776 172 789 q 146 746 153 763 q 127 715 139 728 q 90 703 116 703 q 48 727 57 703 q 39 778 39 751 q 52 863 39 820 q 94 936 64 907 q 173 966 123 966 q 249 945 214 966 q 314 904 284 924 q 368 883 343 883 q 402 896 393 883 q 418 926 412 909 q 435 956 423 943 q 473 969 446 969 q 515 945 507 969 q 524 895 524 921 q 512 809 524 853 q 470 736 499 766 q 391 706 441 706 z "},"̈":{"ha":0,"x_min":39,"x_max":678,"o":"m 182 696 q 80 728 121 696 q 39 825 39 759 q 80 922 39 890 q 182 954 121 954 q 284 922 244 954 q 325 825 325 890 q 284 728 325 760 q 182 696 243 696 m 534 696 q 431 728 472 696 q 391 825 391 759 q 432 922 391 890 q 534 954 473 954 q 637 922 596 954 q 678 825 678 891 q 637 728 678 759 q 534 696 595 696 z "},"̊":{"ha":0,"x_min":39,"x_max":418,"o":"m 229 699 q 139 713 182 699 q 67 760 96 728 q 39 846 39 793 q 67 931 39 899 q 139 977 96 963 q 229 991 183 991 q 318 977 275 991 q 390 931 361 963 q 418 846 418 899 q 390 761 418 793 q 318 713 361 728 q 229 699 275 699 m 230 904 q 184 889 203 904 q 165 846 165 874 q 184 802 165 817 q 230 787 203 787 q 275 803 256 787 q 293 846 293 819 q 275 889 293 873 q 230 904 257 904 z "},"̧":{"ha":0,"x_min":39,"x_max":414,"o":"m 188 13 l 280 13 l 242 -73 q 259 -73 250 -73 q 332 -82 296 -73 q 390 -117 367 -92 q 414 -185 414 -141 q 381 -265 414 -237 q 303 -303 349 -293 q 216 -314 257 -314 q 168 -311 197 -314 q 110 -298 139 -307 q 60 -274 80 -290 q 39 -233 39 -258 q 51 -199 39 -214 q 83 -184 62 -184 q 136 -200 110 -184 q 193 -216 162 -216 q 221 -209 209 -216 q 233 -184 233 -201 q 218 -159 233 -163 q 186 -155 202 -155 q 150 -153 172 -155 q 129 -130 129 -151 q 141 -89 129 -118 q 168 -30 153 -60 q 188 13 182 0 z "},"Æ":{"ha":1437,"x_min":3,"x_max":1401,"o":"m 524 74 q 539 128 524 111 q 574 154 554 145 q 609 177 594 163 q 624 222 624 191 l 624 326 l 360 326 l 332 275 q 317 241 323 259 q 311 204 311 223 q 325 165 311 178 q 355 143 338 152 q 386 119 373 134 q 399 74 399 104 q 377 18 399 35 q 317 0 354 0 l 85 0 q 26 18 49 0 q 3 74 3 35 q 20 122 3 105 q 58 158 37 139 q 90 198 77 175 q 115 243 103 221 l 378 705 q 388 726 383 715 q 393 750 393 738 q 382 776 393 768 q 358 793 372 785 q 333 817 344 801 q 322 865 322 833 q 345 921 322 904 q 404 939 367 939 l 1063 939 q 1140 947 1101 939 q 1181 956 1160 951 q 1222 961 1201 961 q 1297 930 1276 961 q 1331 854 1317 900 q 1341 820 1334 843 q 1357 771 1349 798 q 1370 724 1364 745 q 1376 693 1376 702 q 1349 645 1376 661 q 1295 629 1322 629 q 1249 643 1266 629 q 1221 682 1232 657 q 1181 746 1201 724 q 1133 778 1161 769 q 1059 787 1104 787 l 958 787 l 958 538 l 1007 538 q 1056 555 1043 538 q 1075 593 1069 571 q 1093 631 1080 614 q 1141 647 1105 647 q 1185 631 1169 647 q 1208 590 1202 616 l 1251 418 q 1255 388 1255 404 q 1235 340 1255 358 q 1185 321 1215 321 q 1151 332 1165 321 q 1124 357 1136 342 q 1078 396 1099 391 q 1014 402 1056 402 l 958 402 l 958 264 q 977 183 958 214 q 1051 151 996 151 l 1073 151 q 1154 161 1122 151 q 1208 195 1186 170 q 1250 266 1230 220 q 1277 305 1260 290 q 1322 319 1293 319 q 1378 300 1355 319 q 1401 246 1401 281 q 1397 217 1401 231 l 1358 83 q 1324 7 1345 38 q 1249 -24 1303 -24 q 1207 -19 1227 -24 q 1166 -9 1187 -14 q 1090 0 1131 0 l 606 0 q 547 18 569 0 q 524 74 524 35 m 610 787 l 441 477 l 624 477 l 624 787 l 610 787 z "},"Œ":{"ha":1504,"x_min":47,"x_max":1476,"o":"m 47 444 q 90 656 47 564 q 208 811 132 748 q 382 906 283 874 q 595 939 481 939 l 1137 939 q 1215 947 1176 939 q 1255 956 1234 951 q 1296 961 1275 961 q 1371 930 1350 961 q 1405 854 1392 900 q 1421 805 1410 840 q 1441 738 1432 771 q 1451 692 1451 705 q 1424 645 1451 661 q 1369 629 1397 629 q 1324 643 1340 629 q 1295 682 1308 657 q 1254 746 1274 724 q 1206 778 1234 769 q 1131 787 1178 787 l 1025 787 l 1025 538 l 1093 538 q 1127 546 1118 538 q 1140 567 1137 553 q 1149 600 1143 581 q 1213 647 1164 647 q 1258 632 1242 647 q 1281 590 1274 616 l 1324 418 q 1329 388 1329 404 q 1308 340 1329 358 q 1259 321 1288 321 q 1224 332 1239 321 q 1198 357 1209 342 q 1170 389 1181 380 q 1145 400 1160 398 q 1101 402 1131 402 l 1025 402 l 1025 264 q 1045 182 1025 214 q 1120 151 1064 151 l 1145 151 q 1227 160 1196 151 q 1281 195 1259 170 q 1324 266 1303 220 q 1352 305 1336 290 q 1396 319 1367 319 q 1453 300 1430 319 q 1476 246 1476 281 q 1468 198 1476 230 q 1448 134 1459 166 q 1432 83 1438 101 q 1398 7 1419 38 q 1323 -24 1377 -24 q 1282 -19 1302 -24 q 1242 -9 1261 -14 q 1203 -2 1223 -5 q 1164 0 1183 0 l 602 0 q 391 23 491 0 q 213 97 291 45 q 91 233 136 148 q 47 444 47 319 m 437 462 q 448 359 437 413 q 483 257 458 304 q 548 181 507 210 q 649 151 589 151 l 692 151 l 692 787 l 643 787 q 541 755 581 787 q 478 673 500 724 q 446 567 455 623 q 437 462 437 511 z "},"Þ":{"ha":950,"x_min":10,"x_max":958,"o":"m 521 66 q 497 15 521 29 q 439 0 473 0 l 91 0 q 32 18 54 0 q 10 74 10 35 q 24 126 10 110 q 55 153 37 143 q 85 177 72 163 q 99 222 99 191 l 99 717 q 85 762 99 748 q 55 786 72 777 q 24 812 37 796 q 10 865 10 829 q 32 921 10 903 q 91 939 54 939 l 439 939 q 497 924 473 939 q 521 872 521 910 q 506 825 521 844 q 472 789 491 806 q 442 752 453 772 l 581 752 q 714 736 648 752 q 837 687 781 721 q 925 598 892 652 q 958 465 958 543 q 918 332 958 383 q 814 252 878 280 q 679 213 751 224 q 542 203 606 203 q 483 205 509 203 q 433 212 456 207 q 459 162 438 182 q 501 121 481 142 q 521 66 521 100 m 436 625 l 433 625 l 433 323 q 470 321 449 321 q 529 342 509 321 q 558 394 550 363 q 566 458 566 426 q 554 539 566 501 q 514 601 543 577 q 436 625 486 625 z "},"Ð":{"ha":1114,"x_min":34,"x_max":1075,"o":"m 56 74 q 70 127 56 111 q 103 154 84 144 q 136 177 122 163 q 151 222 151 191 l 151 418 l 80 418 q 45 433 57 418 q 34 470 34 449 q 47 506 34 490 q 81 522 60 522 l 151 522 l 151 717 q 136 761 151 747 q 103 785 122 775 q 70 812 84 795 q 56 865 56 829 q 78 921 56 903 q 137 939 101 939 l 541 939 q 814 877 694 939 q 1005 703 935 816 q 1075 433 1075 589 q 1012 201 1075 298 q 842 52 949 104 q 606 0 736 0 l 137 0 q 78 18 100 0 q 56 74 56 35 m 576 151 l 572 151 q 654 182 623 151 q 703 259 686 212 q 726 355 720 306 q 732 441 732 404 q 723 553 732 493 q 689 666 713 612 q 623 753 665 720 q 514 787 581 787 l 484 787 l 484 522 l 553 522 q 589 507 575 522 q 602 470 602 492 q 589 433 602 448 q 553 418 576 418 l 484 418 l 484 257 q 505 180 484 210 q 576 151 525 151 z "},"Ø":{"ha":1080,"x_min":47,"x_max":1033,"o":"m 227 -92 q 195 -79 210 -92 q 180 -50 180 -66 q 189 -22 180 -37 l 239 60 q 97 231 147 124 q 47 476 47 338 q 111 732 47 621 q 285 904 174 842 q 541 966 397 966 q 770 919 667 966 l 821 1001 q 854 1019 831 1019 q 885 1006 871 1019 q 900 976 900 994 q 893 954 900 965 l 845 876 q 983 710 933 812 q 1033 479 1033 609 q 973 217 1033 331 q 803 38 913 102 q 541 -27 692 -27 q 315 17 415 -27 l 259 -73 q 227 -92 248 -92 m 394 659 q 437 380 394 519 l 610 661 q 546 773 583 724 q 464 823 509 823 q 422 805 437 823 q 402 759 408 786 q 395 704 396 732 q 394 659 394 677 m 690 281 q 684 380 690 331 q 669 478 679 429 q 661 512 666 492 q 648 557 655 532 l 476 279 q 515 207 492 243 q 565 144 538 170 q 620 119 591 119 q 662 137 647 119 q 682 181 676 155 q 689 235 688 208 q 690 281 690 262 z "},"Á":{"ha":1148,"x_min":42,"x_max":1101,"o":"m 403 74 q 380 18 403 35 q 321 0 357 0 l 125 0 q 65 17 88 0 q 42 74 42 35 q 59 122 42 106 q 98 158 77 138 q 126 197 117 176 q 144 243 136 219 l 298 705 q 306 728 302 716 q 309 753 309 740 q 299 777 309 768 q 275 795 288 786 q 251 820 261 804 q 240 865 240 836 q 263 921 240 903 q 322 939 286 939 l 810 939 q 870 921 847 939 q 892 865 892 904 q 883 822 892 837 q 861 798 873 806 q 840 779 849 789 q 830 753 830 770 q 833 731 830 742 q 840 709 836 720 l 980 298 q 997 241 991 267 q 1017 193 1004 215 q 1059 149 1029 171 q 1091 118 1082 132 q 1101 74 1101 104 q 1078 17 1101 35 q 1019 0 1055 0 l 672 0 q 612 17 635 0 q 589 74 589 35 q 601 117 589 102 q 629 142 613 133 q 657 159 645 151 q 669 178 669 167 q 666 197 669 188 q 661 216 664 207 l 639 285 l 321 285 l 318 275 q 304 239 313 259 q 295 202 295 219 q 311 171 295 183 q 349 148 328 159 q 387 120 370 137 q 403 74 403 103 m 371 436 l 591 436 l 482 776 l 371 436 m 408 1037 q 422 1084 408 1056 q 455 1139 437 1112 q 483 1182 473 1166 q 518 1236 500 1209 q 563 1281 537 1263 q 624 1299 588 1299 q 710 1266 674 1299 q 746 1183 746 1234 q 721 1106 746 1135 q 657 1058 695 1076 q 582 1026 620 1040 q 522 1005 559 1018 q 461 993 485 993 q 425 1004 441 993 q 408 1037 408 1015 z "},"À":{"ha":1148,"x_min":42,"x_max":1101,"o":"m 403 74 q 380 18 403 35 q 321 0 357 0 l 125 0 q 65 17 88 0 q 42 74 42 35 q 59 122 42 106 q 98 158 77 138 q 126 197 117 176 q 144 243 136 219 l 298 705 q 306 728 302 716 q 309 753 309 740 q 299 777 309 768 q 275 795 288 786 q 251 820 261 804 q 240 865 240 836 q 263 921 240 903 q 322 939 286 939 l 810 939 q 870 921 847 939 q 892 865 892 904 q 883 822 892 837 q 861 798 873 806 q 840 779 849 789 q 830 753 830 770 q 833 731 830 742 q 840 709 836 720 l 980 298 q 997 241 991 267 q 1017 193 1004 215 q 1059 149 1029 171 q 1091 118 1082 132 q 1101 74 1101 104 q 1078 17 1101 35 q 1019 0 1055 0 l 672 0 q 612 17 635 0 q 589 74 589 35 q 601 117 589 102 q 629 142 613 133 q 657 159 645 151 q 669 178 669 167 q 666 197 669 188 q 661 216 664 207 l 639 285 l 321 285 l 318 275 q 304 239 313 259 q 295 202 295 219 q 311 171 295 183 q 349 148 328 159 q 387 120 370 137 q 403 74 403 103 m 371 436 l 591 436 l 482 776 l 371 436 m 530 1299 q 592 1281 567 1299 q 636 1236 617 1263 q 671 1182 654 1209 q 700 1139 682 1166 q 732 1084 718 1112 q 746 1037 746 1056 q 729 1004 746 1015 q 693 993 713 993 q 633 1005 670 993 q 572 1026 595 1018 q 497 1058 535 1040 q 434 1106 459 1076 q 408 1183 408 1135 q 445 1266 408 1234 q 530 1299 481 1299 z "},"Â":{"ha":1148,"x_min":42,"x_max":1101,"o":"m 403 74 q 380 18 403 35 q 321 0 357 0 l 125 0 q 65 17 88 0 q 42 74 42 35 q 59 122 42 106 q 98 158 77 138 q 126 197 117 176 q 144 243 136 219 l 298 705 q 306 728 302 716 q 309 753 309 740 q 299 777 309 768 q 275 795 288 786 q 251 820 261 804 q 240 865 240 836 q 263 921 240 903 q 322 939 286 939 l 810 939 q 870 921 847 939 q 892 865 892 904 q 883 822 892 837 q 861 798 873 806 q 840 779 849 789 q 830 753 830 770 q 833 731 830 742 q 840 709 836 720 l 980 298 q 997 241 991 267 q 1017 193 1004 215 q 1059 149 1029 171 q 1091 118 1082 132 q 1101 74 1101 104 q 1078 17 1101 35 q 1019 0 1055 0 l 672 0 q 612 17 635 0 q 589 74 589 35 q 601 117 589 102 q 629 142 613 133 q 657 159 645 151 q 669 178 669 167 q 666 197 669 188 q 661 216 664 207 l 639 285 l 321 285 l 318 275 q 304 239 313 259 q 295 202 295 219 q 311 171 295 183 q 349 148 328 159 q 387 120 370 137 q 403 74 403 103 m 371 436 l 591 436 l 482 776 l 371 436 m 827 1050 q 811 1014 827 1027 q 774 1000 795 1000 q 744 1005 758 1000 q 715 1019 729 1010 l 574 1105 l 433 1019 q 406 1005 420 1010 q 376 1000 391 1000 q 338 1013 354 1000 q 322 1050 322 1027 q 329 1076 322 1063 q 344 1099 335 1089 l 454 1217 q 507 1267 479 1244 q 574 1291 534 1291 q 643 1268 616 1291 q 695 1217 669 1245 l 805 1099 q 821 1076 814 1089 q 827 1050 827 1063 z "},"Ã":{"ha":1148,"x_min":42,"x_max":1101,"o":"m 403 74 q 380 18 403 35 q 321 0 357 0 l 125 0 q 65 17 88 0 q 42 74 42 35 q 59 122 42 106 q 98 158 77 138 q 126 197 117 176 q 144 243 136 219 l 298 705 q 306 728 302 716 q 309 753 309 740 q 299 777 309 768 q 275 795 288 786 q 251 820 261 804 q 240 865 240 836 q 263 921 240 903 q 322 939 286 939 l 810 939 q 870 921 847 939 q 892 865 892 904 q 883 822 892 837 q 861 798 873 806 q 840 779 849 789 q 830 753 830 770 q 833 731 830 742 q 840 709 836 720 l 980 298 q 997 241 991 267 q 1017 193 1004 215 q 1059 149 1029 171 q 1091 118 1082 132 q 1101 74 1101 104 q 1078 17 1101 35 q 1019 0 1055 0 l 672 0 q 612 17 635 0 q 589 74 589 35 q 601 117 589 102 q 629 142 613 133 q 657 159 645 151 q 669 178 669 167 q 666 197 669 188 q 661 216 664 207 l 639 285 l 321 285 l 318 275 q 304 239 313 259 q 295 202 295 219 q 311 171 295 183 q 349 148 328 159 q 387 120 370 137 q 403 74 403 103 m 371 436 l 591 436 l 482 776 l 371 436 m 683 995 q 611 1012 645 995 q 547 1046 577 1029 q 488 1063 517 1063 q 454 1051 465 1063 q 436 1023 444 1039 q 418 996 429 1008 q 382 984 407 984 q 340 1008 349 984 q 332 1059 332 1033 q 345 1142 332 1101 q 387 1212 358 1184 q 465 1240 416 1240 q 537 1223 504 1240 q 601 1189 571 1206 q 661 1172 631 1172 q 695 1184 685 1172 q 712 1211 706 1196 q 730 1239 719 1227 q 766 1251 741 1251 q 808 1227 799 1251 q 817 1177 817 1203 q 804 1093 817 1135 q 762 1023 791 1051 q 683 995 732 995 z "},"Ä":{"ha":1148,"x_min":42,"x_max":1101,"o":"m 403 74 q 380 18 403 35 q 321 0 357 0 l 125 0 q 65 17 88 0 q 42 74 42 35 q 59 122 42 106 q 98 158 77 138 q 126 197 117 176 q 144 243 136 219 l 298 705 q 306 728 302 716 q 309 753 309 740 q 299 777 309 768 q 275 795 288 786 q 251 820 261 804 q 240 865 240 836 q 263 921 240 903 q 322 939 286 939 l 810 939 q 870 921 847 939 q 892 865 892 904 q 883 822 892 837 q 861 798 873 806 q 840 779 849 789 q 830 753 830 770 q 833 731 830 742 q 840 709 836 720 l 980 298 q 997 241 991 267 q 1017 193 1004 215 q 1059 149 1029 171 q 1091 118 1082 132 q 1101 74 1101 104 q 1078 17 1101 35 q 1019 0 1055 0 l 672 0 q 612 17 635 0 q 589 74 589 35 q 601 117 589 102 q 629 142 613 133 q 657 159 645 151 q 669 178 669 167 q 666 197 669 188 q 661 216 664 207 l 639 285 l 321 285 l 318 275 q 304 239 313 259 q 295 202 295 219 q 311 171 295 183 q 349 148 328 159 q 387 120 370 137 q 403 74 403 103 m 371 436 l 591 436 l 482 776 l 371 436 m 397 985 q 295 1017 336 985 q 254 1114 254 1048 q 295 1211 254 1179 q 397 1242 336 1242 q 499 1211 459 1242 q 540 1114 540 1179 q 499 1017 540 1048 q 397 985 458 985 m 749 985 q 646 1017 687 985 q 606 1114 606 1048 q 647 1211 606 1179 q 749 1242 688 1242 q 852 1211 811 1242 q 893 1114 893 1180 q 852 1017 893 1048 q 749 985 810 985 z "},"Å":{"ha":1148,"x_min":42,"x_max":1101,"o":"m 403 74 q 380 18 403 35 q 321 0 357 0 l 125 0 q 65 17 88 0 q 42 74 42 35 q 59 122 42 106 q 98 158 77 138 q 126 197 117 176 q 144 243 136 219 l 298 705 q 306 728 302 716 q 309 753 309 740 q 299 777 309 768 q 275 795 288 786 q 251 820 261 804 q 240 865 240 836 q 263 921 240 903 q 322 939 286 939 l 810 939 q 870 921 847 939 q 892 865 892 904 q 883 822 892 837 q 861 798 873 806 q 840 779 849 789 q 830 753 830 770 q 833 731 830 742 q 840 709 836 720 l 980 298 q 997 241 991 267 q 1017 193 1004 215 q 1059 149 1029 171 q 1091 118 1082 132 q 1101 74 1101 104 q 1078 17 1101 35 q 1019 0 1055 0 l 672 0 q 612 17 635 0 q 589 74 589 35 q 601 117 589 102 q 629 142 613 133 q 657 159 645 151 q 669 178 669 167 q 666 197 669 188 q 661 216 664 207 l 639 285 l 321 285 l 318 275 q 304 239 313 259 q 295 202 295 219 q 311 171 295 183 q 349 148 328 159 q 387 120 370 137 q 403 74 403 103 m 371 436 l 591 436 l 482 776 l 371 436 m 566 987 q 482 999 524 987 q 412 1041 440 1012 q 385 1120 385 1071 q 413 1199 385 1170 q 483 1240 441 1227 q 566 1253 525 1253 q 650 1240 608 1253 q 721 1199 692 1227 q 749 1120 749 1170 q 721 1041 749 1071 q 651 999 693 1012 q 566 987 608 987 m 568 1168 q 531 1155 546 1168 q 517 1120 517 1142 q 531 1084 517 1097 q 568 1072 546 1072 q 604 1084 589 1072 q 618 1120 618 1097 q 604 1155 618 1142 q 568 1168 589 1168 z "},"Ç":{"ha":1000,"x_min":47,"x_max":954,"o":"m 954 258 q 943 200 954 228 q 916 148 932 172 q 815 48 876 87 q 682 -9 753 9 q 541 -27 611 -27 q 280 36 391 -27 q 109 211 170 98 q 47 471 47 323 q 83 660 47 571 q 182 819 118 749 q 332 927 245 888 q 521 966 418 966 q 585 963 553 966 q 647 949 616 959 q 685 936 666 943 q 724 928 704 928 q 757 938 743 928 q 786 956 772 947 q 817 964 800 964 q 862 943 851 964 q 880 894 873 921 l 941 682 q 944 663 944 673 q 918 615 944 631 q 864 599 892 599 q 810 622 831 599 q 772 679 789 645 q 731 747 754 713 q 670 804 707 781 q 570 827 632 827 q 473 796 510 827 q 416 715 435 764 q 389 611 396 666 q 382 510 382 556 q 406 351 382 427 q 487 227 431 275 q 639 178 543 178 q 731 199 690 178 q 806 247 772 220 q 864 295 839 275 q 905 316 888 316 q 942 298 930 316 q 954 258 954 280 m 463 13 l 555 13 l 517 -73 q 534 -73 524 -73 q 606 -82 571 -73 q 665 -117 642 -92 q 688 -185 688 -141 q 656 -265 688 -237 q 578 -303 624 -293 q 490 -314 532 -314 q 443 -311 472 -314 q 384 -298 414 -307 q 334 -274 355 -290 q 314 -233 314 -258 q 326 -199 314 -214 q 358 -184 337 -184 q 411 -200 385 -184 q 468 -216 437 -216 q 496 -209 484 -216 q 508 -184 508 -201 q 492 -159 508 -163 q 461 -155 477 -155 q 425 -153 446 -155 q 404 -130 404 -151 q 416 -89 404 -118 q 442 -30 428 -60 q 463 13 456 0 z "},"É":{"ha":960,"x_min":63,"x_max":932,"o":"m 63 865 q 86 921 63 903 q 145 939 109 939 l 599 939 q 648 942 616 939 q 696 952 681 945 q 726 957 711 952 q 755 961 741 961 q 825 936 802 961 q 859 874 848 911 q 880 803 869 838 q 897 749 887 778 q 907 694 907 721 q 881 646 907 662 q 826 629 854 629 q 782 644 797 629 q 753 682 766 658 q 714 745 730 722 q 672 778 697 768 q 596 787 646 787 l 493 787 l 493 538 l 547 538 q 592 555 579 538 q 611 593 605 571 q 631 631 618 614 q 677 647 644 647 q 722 631 705 647 q 745 590 739 616 l 786 418 q 789 403 787 411 q 790 388 790 395 q 770 340 790 358 q 720 321 749 321 q 686 332 700 321 q 659 357 672 342 q 628 389 640 379 q 601 400 616 398 q 557 402 586 402 l 493 402 l 493 264 q 522 182 493 212 q 604 151 551 151 q 688 161 659 151 q 737 195 718 170 q 781 266 756 220 q 808 304 793 290 q 852 319 823 319 q 908 300 884 319 q 932 247 932 281 q 928 217 932 234 l 890 83 q 856 7 877 38 q 781 -24 835 -24 q 740 -19 760 -24 q 700 -9 720 -14 q 624 0 664 0 l 145 0 q 86 18 109 0 q 63 74 63 35 q 78 126 63 109 q 111 154 92 143 q 145 178 130 164 q 159 222 159 193 l 159 717 q 145 760 159 746 q 111 785 130 774 q 78 812 92 795 q 63 865 63 829 m 317 1037 q 331 1084 317 1056 q 363 1139 345 1112 q 391 1182 381 1166 q 427 1236 408 1209 q 471 1281 446 1263 q 532 1299 496 1299 q 618 1266 583 1299 q 654 1183 654 1234 q 629 1106 654 1135 q 566 1058 604 1076 q 490 1026 528 1040 q 430 1005 467 1018 q 370 993 393 993 q 333 1004 350 993 q 317 1037 317 1015 z "},"È":{"ha":960,"x_min":63,"x_max":932,"o":"m 63 865 q 86 921 63 903 q 145 939 109 939 l 599 939 q 648 942 616 939 q 696 952 681 945 q 726 957 711 952 q 755 961 741 961 q 825 936 802 961 q 859 874 848 911 q 880 803 869 838 q 897 749 887 778 q 907 694 907 721 q 881 646 907 662 q 826 629 854 629 q 782 644 797 629 q 753 682 766 658 q 714 745 730 722 q 672 778 697 768 q 596 787 646 787 l 493 787 l 493 538 l 547 538 q 592 555 579 538 q 611 593 605 571 q 631 631 618 614 q 677 647 644 647 q 722 631 705 647 q 745 590 739 616 l 786 418 q 789 403 787 411 q 790 388 790 395 q 770 340 790 358 q 720 321 749 321 q 686 332 700 321 q 659 357 672 342 q 628 389 640 379 q 601 400 616 398 q 557 402 586 402 l 493 402 l 493 264 q 522 182 493 212 q 604 151 551 151 q 688 161 659 151 q 737 195 718 170 q 781 266 756 220 q 808 304 793 290 q 852 319 823 319 q 908 300 884 319 q 932 247 932 281 q 928 217 932 234 l 890 83 q 856 7 877 38 q 781 -24 835 -24 q 740 -19 760 -24 q 700 -9 720 -14 q 624 0 664 0 l 145 0 q 86 18 109 0 q 63 74 63 35 q 78 126 63 109 q 111 154 92 143 q 145 178 130 164 q 159 222 159 193 l 159 717 q 145 760 159 746 q 111 785 130 774 q 78 812 92 795 q 63 865 63 829 m 439 1299 q 500 1281 475 1299 q 544 1236 526 1263 q 580 1182 563 1209 q 608 1139 591 1166 q 640 1084 626 1112 q 654 1037 654 1056 q 638 1004 654 1015 q 602 993 621 993 q 541 1005 578 993 q 481 1026 504 1018 q 406 1058 444 1040 q 342 1106 368 1076 q 317 1183 317 1135 q 353 1266 317 1234 q 439 1299 389 1299 z "},"Ê":{"ha":960,"x_min":63,"x_max":932,"o":"m 63 865 q 86 921 63 903 q 145 939 109 939 l 599 939 q 648 942 616 939 q 696 952 681 945 q 726 957 711 952 q 755 961 741 961 q 825 936 802 961 q 859 874 848 911 q 880 803 869 838 q 897 749 887 778 q 907 694 907 721 q 881 646 907 662 q 826 629 854 629 q 782 644 797 629 q 753 682 766 658 q 714 745 730 722 q 672 778 697 768 q 596 787 646 787 l 493 787 l 493 538 l 547 538 q 592 555 579 538 q 611 593 605 571 q 631 631 618 614 q 677 647 644 647 q 722 631 705 647 q 745 590 739 616 l 786 418 q 789 403 787 411 q 790 388 790 395 q 770 340 790 358 q 720 321 749 321 q 686 332 700 321 q 659 357 672 342 q 628 389 640 379 q 601 400 616 398 q 557 402 586 402 l 493 402 l 493 264 q 522 182 493 212 q 604 151 551 151 q 688 161 659 151 q 737 195 718 170 q 781 266 756 220 q 808 304 793 290 q 852 319 823 319 q 908 300 884 319 q 932 247 932 281 q 928 217 932 234 l 890 83 q 856 7 877 38 q 781 -24 835 -24 q 740 -19 760 -24 q 700 -9 720 -14 q 624 0 664 0 l 145 0 q 86 18 109 0 q 63 74 63 35 q 78 126 63 109 q 111 154 92 143 q 145 178 130 164 q 159 222 159 193 l 159 717 q 145 760 159 746 q 111 785 130 774 q 78 812 92 795 q 63 865 63 829 m 735 1050 q 720 1014 735 1027 q 682 1000 704 1000 q 652 1005 667 1000 q 624 1019 637 1010 l 483 1105 l 342 1019 q 314 1005 329 1010 q 284 1000 300 1000 q 247 1013 262 1000 q 231 1050 231 1027 q 237 1076 231 1063 q 252 1099 243 1089 l 362 1217 q 415 1267 388 1244 q 483 1291 442 1291 q 551 1268 525 1291 q 604 1217 577 1245 l 713 1099 q 729 1076 723 1089 q 735 1050 735 1063 z "},"Ë":{"ha":960,"x_min":63,"x_max":932,"o":"m 63 865 q 86 921 63 903 q 145 939 109 939 l 599 939 q 648 942 616 939 q 696 952 681 945 q 726 957 711 952 q 755 961 741 961 q 825 936 802 961 q 859 874 848 911 q 880 803 869 838 q 897 749 887 778 q 907 694 907 721 q 881 646 907 662 q 826 629 854 629 q 782 644 797 629 q 753 682 766 658 q 714 745 730 722 q 672 778 697 768 q 596 787 646 787 l 493 787 l 493 538 l 547 538 q 592 555 579 538 q 611 593 605 571 q 631 631 618 614 q 677 647 644 647 q 722 631 705 647 q 745 590 739 616 l 786 418 q 789 403 787 411 q 790 388 790 395 q 770 340 790 358 q 720 321 749 321 q 686 332 700 321 q 659 357 672 342 q 628 389 640 379 q 601 400 616 398 q 557 402 586 402 l 493 402 l 493 264 q 522 182 493 212 q 604 151 551 151 q 688 161 659 151 q 737 195 718 170 q 781 266 756 220 q 808 304 793 290 q 852 319 823 319 q 908 300 884 319 q 932 247 932 281 q 928 217 932 234 l 890 83 q 856 7 877 38 q 781 -24 835 -24 q 740 -19 760 -24 q 700 -9 720 -14 q 624 0 664 0 l 145 0 q 86 18 109 0 q 63 74 63 35 q 78 126 63 109 q 111 154 92 143 q 145 178 130 164 q 159 222 159 193 l 159 717 q 145 760 159 746 q 111 785 130 774 q 78 812 92 795 q 63 865 63 829 m 306 985 q 203 1017 244 985 q 163 1114 163 1048 q 204 1211 163 1179 q 306 1242 245 1242 q 408 1211 368 1242 q 448 1114 448 1179 q 408 1017 448 1048 q 306 985 367 985 m 657 985 q 555 1017 595 985 q 514 1114 514 1048 q 555 1211 514 1179 q 657 1242 596 1242 q 761 1211 720 1242 q 802 1114 802 1180 q 760 1017 802 1048 q 657 985 719 985 z "},"Í":{"ha":574,"x_min":30,"x_max":545,"o":"m 454 717 l 454 222 q 468 179 454 193 q 500 154 481 165 q 532 127 518 144 q 545 74 545 110 q 523 18 545 35 q 464 0 500 0 l 111 0 q 52 18 75 0 q 30 74 30 35 q 43 126 30 109 q 75 154 57 143 q 107 178 94 164 q 121 222 121 193 l 121 717 q 107 760 121 746 q 75 785 94 774 q 43 812 57 795 q 30 865 30 829 q 52 921 30 903 q 111 939 75 939 l 464 939 q 523 921 500 939 q 545 865 545 903 q 532 812 545 829 q 500 785 518 795 q 468 760 481 774 q 454 717 454 746 m 122 1037 q 136 1084 122 1056 q 169 1139 151 1112 q 197 1182 186 1166 q 232 1236 214 1209 q 276 1281 251 1263 q 338 1299 302 1299 q 424 1266 388 1299 q 460 1183 460 1234 q 434 1106 460 1135 q 371 1058 409 1076 q 296 1026 334 1040 q 236 1005 273 1018 q 175 993 199 993 q 139 1004 155 993 q 122 1037 122 1015 z "},"Ì":{"ha":574,"x_min":30,"x_max":545,"o":"m 454 717 l 454 222 q 468 179 454 193 q 500 154 481 165 q 532 127 518 144 q 545 74 545 110 q 523 18 545 35 q 464 0 500 0 l 111 0 q 52 18 75 0 q 30 74 30 35 q 43 126 30 109 q 75 154 57 143 q 107 178 94 164 q 121 222 121 193 l 121 717 q 107 760 121 746 q 75 785 94 774 q 43 812 57 795 q 30 865 30 829 q 52 921 30 903 q 111 939 75 939 l 464 939 q 523 921 500 939 q 545 865 545 903 q 532 812 545 829 q 500 785 518 795 q 468 760 481 774 q 454 717 454 746 m 244 1299 q 306 1281 281 1299 q 350 1236 331 1263 q 385 1182 368 1209 q 414 1139 396 1166 q 446 1084 431 1112 q 460 1037 460 1056 q 443 1004 460 1015 q 407 993 427 993 q 347 1005 384 993 q 286 1026 309 1018 q 211 1058 249 1040 q 148 1106 173 1076 q 122 1183 122 1135 q 158 1266 122 1234 q 244 1299 195 1299 z "},"Î":{"ha":574,"x_min":30,"x_max":545,"o":"m 454 717 l 454 222 q 468 179 454 193 q 500 154 481 165 q 532 127 518 144 q 545 74 545 110 q 523 18 545 35 q 464 0 500 0 l 111 0 q 52 18 75 0 q 30 74 30 35 q 43 126 30 109 q 75 154 57 143 q 107 178 94 164 q 121 222 121 193 l 121 717 q 107 760 121 746 q 75 785 94 774 q 43 812 57 795 q 30 865 30 829 q 52 921 30 903 q 111 939 75 939 l 464 939 q 523 921 500 939 q 545 865 545 903 q 532 812 545 829 q 500 785 518 795 q 468 760 481 774 q 454 717 454 746 m 541 1050 q 525 1014 541 1027 q 488 1000 509 1000 q 457 1005 472 1000 q 429 1019 443 1010 l 288 1105 l 147 1019 q 120 1005 134 1010 q 90 1000 105 1000 q 52 1013 68 1000 q 36 1050 36 1027 q 42 1076 36 1063 q 58 1099 49 1089 l 168 1217 q 220 1267 193 1244 q 288 1291 248 1291 q 356 1268 330 1291 q 409 1217 382 1245 l 519 1099 q 534 1076 528 1089 q 541 1050 541 1063 z "},"Ï":{"ha":574,"x_min":-32,"x_max":607,"o":"m 454 717 l 454 222 q 468 179 454 193 q 500 154 481 165 q 532 127 518 144 q 545 74 545 110 q 523 18 545 35 q 464 0 500 0 l 111 0 q 52 18 75 0 q 30 74 30 35 q 43 126 30 109 q 75 154 57 143 q 107 178 94 164 q 121 222 121 193 l 121 717 q 107 760 121 746 q 75 785 94 774 q 43 812 57 795 q 30 865 30 829 q 52 921 30 903 q 111 939 75 939 l 464 939 q 523 921 500 939 q 545 865 545 903 q 532 812 545 829 q 500 785 518 795 q 468 760 481 774 q 454 717 454 746 m 111 985 q 9 1017 50 985 q -32 1114 -32 1048 q 9 1211 -32 1179 q 111 1242 50 1242 q 213 1211 173 1242 q 254 1114 254 1179 q 213 1017 254 1048 q 111 985 172 985 m 463 985 q 360 1017 401 985 q 319 1114 319 1048 q 360 1211 319 1179 q 463 1242 401 1242 q 566 1211 525 1242 q 607 1114 607 1180 q 566 1017 607 1048 q 463 985 524 985 z "},"Ñ":{"ha":1153,"x_min":36,"x_max":1114,"o":"m 429 74 q 406 17 429 35 q 347 0 383 0 l 143 0 q 83 17 106 0 q 60 74 60 35 q 77 127 60 110 q 115 154 93 144 q 153 180 136 165 q 169 228 169 195 l 169 635 q 157 704 169 682 q 112 758 144 726 q 63 809 90 779 q 36 872 36 839 q 58 921 36 904 q 110 939 80 939 l 321 939 q 369 935 351 939 q 400 920 386 931 q 433 887 414 909 l 853 406 l 853 711 q 837 760 853 745 q 799 785 821 774 q 762 811 778 795 q 745 865 745 828 q 768 921 745 904 q 828 939 791 939 l 1031 939 q 1091 921 1067 939 q 1114 865 1114 903 q 1094 808 1114 823 q 1043 774 1074 793 q 1013 750 1021 762 q 1006 711 1006 738 l 1006 317 q 1011 253 1006 286 q 1033 192 1016 220 q 1068 136 1049 165 q 1088 74 1088 106 q 1068 20 1088 41 q 1015 0 1048 0 l 784 0 q 738 13 755 0 q 721 57 721 26 q 701 100 721 77 q 669 138 682 123 l 321 541 l 321 228 q 329 189 321 201 q 359 164 336 178 q 409 130 389 145 q 429 74 429 115 m 686 995 q 614 1012 648 995 q 550 1046 580 1029 q 490 1063 519 1063 q 457 1051 467 1063 q 439 1023 446 1039 q 421 996 432 1008 q 385 984 410 984 q 343 1008 352 984 q 334 1059 334 1033 q 348 1142 334 1101 q 390 1212 361 1184 q 468 1240 419 1240 q 540 1223 507 1240 q 604 1189 574 1206 q 663 1172 634 1172 q 698 1184 688 1172 q 715 1211 709 1196 q 732 1239 722 1227 q 768 1251 743 1251 q 810 1227 802 1251 q 819 1177 819 1203 q 806 1093 819 1135 q 764 1023 793 1051 q 686 995 735 995 z "},"Ó":{"ha":1081,"x_min":47,"x_max":1034,"o":"m 541 966 q 797 906 686 966 q 971 735 908 845 q 1034 479 1034 626 q 973 217 1034 331 q 803 38 913 102 q 541 -27 692 -27 q 277 36 388 -27 q 107 212 167 98 q 47 476 47 325 q 111 732 47 621 q 286 904 174 842 q 541 966 397 966 m 690 270 q 669 478 690 377 q 652 547 664 504 q 621 637 640 589 q 578 727 602 684 q 525 797 554 770 q 464 823 496 823 q 415 795 429 823 q 397 730 400 766 q 394 669 394 694 q 408 502 394 585 q 451 338 422 418 q 476 279 459 315 q 515 205 492 242 q 565 144 538 169 q 621 119 592 119 q 670 146 655 119 q 687 210 684 174 q 690 270 690 246 m 376 1037 q 390 1084 376 1056 q 422 1139 404 1112 q 450 1182 440 1166 q 486 1236 467 1209 q 530 1281 505 1263 q 591 1299 555 1299 q 677 1266 642 1299 q 713 1183 713 1234 q 688 1106 713 1135 q 625 1058 663 1076 q 549 1026 587 1040 q 489 1005 526 1018 q 429 993 452 993 q 392 1004 409 993 q 376 1037 376 1015 z "},"Ò":{"ha":1081,"x_min":47,"x_max":1034,"o":"m 541 966 q 797 906 686 966 q 971 735 908 845 q 1034 479 1034 626 q 973 217 1034 331 q 803 38 913 102 q 541 -27 692 -27 q 277 36 388 -27 q 107 212 167 98 q 47 476 47 325 q 111 732 47 621 q 286 904 174 842 q 541 966 397 966 m 690 270 q 669 478 690 377 q 652 547 664 504 q 621 637 640 589 q 578 727 602 684 q 525 797 554 770 q 464 823 496 823 q 415 795 429 823 q 397 730 400 766 q 394 669 394 694 q 408 502 394 585 q 451 338 422 418 q 476 279 459 315 q 515 205 492 242 q 565 144 538 169 q 621 119 592 119 q 670 146 655 119 q 687 210 684 174 q 690 270 690 246 m 498 1299 q 559 1281 534 1299 q 603 1236 585 1263 q 639 1182 622 1209 q 667 1139 650 1166 q 699 1084 685 1112 q 713 1037 713 1056 q 697 1004 713 1015 q 661 993 680 993 q 600 1005 637 993 q 540 1026 563 1018 q 465 1058 503 1040 q 401 1106 427 1076 q 376 1183 376 1135 q 412 1266 376 1234 q 498 1299 448 1299 z "},"Ô":{"ha":1081,"x_min":47,"x_max":1034,"o":"m 541 966 q 797 906 686 966 q 971 735 908 845 q 1034 479 1034 626 q 973 217 1034 331 q 803 38 913 102 q 541 -27 692 -27 q 277 36 388 -27 q 107 212 167 98 q 47 476 47 325 q 111 732 47 621 q 286 904 174 842 q 541 966 397 966 m 690 270 q 669 478 690 377 q 652 547 664 504 q 621 637 640 589 q 578 727 602 684 q 525 797 554 770 q 464 823 496 823 q 415 795 429 823 q 397 730 400 766 q 394 669 394 694 q 408 502 394 585 q 451 338 422 418 q 476 279 459 315 q 515 205 492 242 q 565 144 538 169 q 621 119 592 119 q 670 146 655 119 q 687 210 684 174 q 690 270 690 246 m 794 1050 q 779 1014 794 1027 q 741 1000 763 1000 q 711 1005 726 1000 q 683 1019 696 1010 l 542 1105 l 401 1019 q 373 1005 388 1010 q 343 1000 359 1000 q 306 1013 321 1000 q 290 1050 290 1027 q 296 1076 290 1063 q 311 1099 302 1089 l 421 1217 q 474 1267 447 1244 q 542 1291 501 1291 q 610 1268 584 1291 q 663 1217 636 1245 l 772 1099 q 788 1076 782 1089 q 794 1050 794 1063 z "},"Õ":{"ha":1081,"x_min":47,"x_max":1034,"o":"m 541 966 q 797 906 686 966 q 971 735 908 845 q 1034 479 1034 626 q 973 217 1034 331 q 803 38 913 102 q 541 -27 692 -27 q 277 36 388 -27 q 107 212 167 98 q 47 476 47 325 q 111 732 47 621 q 286 904 174 842 q 541 966 397 966 m 690 270 q 669 478 690 377 q 652 547 664 504 q 621 637 640 589 q 578 727 602 684 q 525 797 554 770 q 464 823 496 823 q 415 795 429 823 q 397 730 400 766 q 394 669 394 694 q 408 502 394 585 q 451 338 422 418 q 476 279 459 315 q 515 205 492 242 q 565 144 538 169 q 621 119 592 119 q 670 146 655 119 q 687 210 684 174 q 690 270 690 246 m 650 995 q 578 1012 612 995 q 514 1046 545 1029 q 455 1063 484 1063 q 421 1051 432 1063 q 404 1023 411 1039 q 386 996 397 1008 q 350 984 374 984 q 308 1008 317 984 q 299 1059 299 1033 q 312 1142 299 1101 q 355 1212 326 1184 q 433 1240 384 1240 q 505 1223 471 1240 q 569 1189 538 1206 q 628 1172 599 1172 q 663 1184 652 1172 q 680 1211 673 1196 q 697 1239 686 1227 q 733 1251 708 1251 q 775 1227 766 1251 q 784 1177 784 1203 q 771 1093 784 1135 q 729 1023 758 1051 q 650 995 700 995 z "},"Ö":{"ha":1081,"x_min":47,"x_max":1034,"o":"m 541 966 q 797 906 686 966 q 971 735 908 845 q 1034 479 1034 626 q 973 217 1034 331 q 803 38 913 102 q 541 -27 692 -27 q 277 36 388 -27 q 107 212 167 98 q 47 476 47 325 q 111 732 47 621 q 286 904 174 842 q 541 966 397 966 m 690 270 q 669 478 690 377 q 652 547 664 504 q 621 637 640 589 q 578 727 602 684 q 525 797 554 770 q 464 823 496 823 q 415 795 429 823 q 397 730 400 766 q 394 669 394 694 q 408 502 394 585 q 451 338 422 418 q 476 279 459 315 q 515 205 492 242 q 565 144 538 169 q 621 119 592 119 q 670 146 655 119 q 687 210 684 174 q 690 270 690 246 m 365 985 q 262 1017 303 985 q 222 1114 222 1048 q 263 1211 222 1179 q 365 1242 304 1242 q 467 1211 427 1242 q 507 1114 507 1179 q 467 1017 507 1048 q 365 985 426 985 m 716 985 q 614 1017 654 985 q 573 1114 573 1048 q 614 1211 573 1179 q 716 1242 655 1242 q 820 1211 779 1242 q 861 1114 861 1180 q 819 1017 861 1048 q 716 985 778 985 z "},"Š":{"ha":896,"x_min":61,"x_max":851,"o":"m 462 -20 q 405 -17 433 -20 q 349 -9 376 -14 q 324 -6 336 -7 q 299 -4 312 -4 q 243 -14 271 -4 q 188 -24 216 -24 q 133 -3 149 -24 q 111 54 118 19 q 94 138 102 96 q 78 223 86 181 q 76 240 76 231 q 99 290 76 272 q 152 307 123 307 q 198 290 178 307 q 236 245 217 272 q 280 193 255 219 q 342 149 304 167 q 437 132 380 132 q 506 147 471 132 q 541 203 541 162 q 524 248 541 232 q 484 273 507 264 q 438 288 460 282 q 300 336 367 309 q 179 403 233 363 q 93 503 125 443 q 61 649 61 562 q 108 818 61 749 q 234 921 155 886 q 406 956 313 956 q 461 953 434 956 q 516 943 489 950 q 561 931 538 938 q 607 925 584 925 q 653 943 633 925 q 701 960 673 960 q 747 944 730 960 q 775 903 764 927 q 792 857 785 879 l 846 684 q 851 654 851 667 q 827 601 851 621 q 772 581 804 581 q 728 596 743 581 q 700 634 714 612 q 598 753 654 705 q 451 802 542 802 q 390 785 418 802 q 363 731 363 768 q 384 679 363 699 q 433 649 404 660 q 488 629 463 637 q 614 582 553 608 q 724 517 675 555 q 801 422 772 478 q 829 286 829 366 q 798 152 829 210 q 715 56 767 94 q 597 -1 663 18 q 462 -20 531 -20 m 570 1068 q 517 1018 545 1041 q 450 995 490 995 q 382 1018 410 995 q 329 1068 354 1041 l 219 1187 q 204 1209 210 1196 q 197 1235 197 1221 q 213 1272 197 1258 q 251 1286 229 1286 q 281 1280 267 1286 q 309 1267 296 1275 l 450 1180 l 591 1267 q 619 1280 604 1275 q 649 1286 633 1286 q 686 1272 671 1286 q 702 1236 702 1258 q 696 1210 702 1222 q 680 1187 690 1197 l 570 1068 z "},"Ú":{"ha":1139,"x_min":28,"x_max":1120,"o":"m 861 292 q 859 355 861 323 q 854 418 857 387 l 833 716 q 818 762 830 753 q 774 783 806 771 q 723 809 740 795 q 705 863 705 823 q 726 919 705 899 q 783 939 747 939 l 1043 939 q 1099 919 1078 939 q 1120 863 1120 899 q 1106 815 1120 831 q 1073 790 1093 799 q 1032 774 1053 781 q 998 752 1012 766 q 984 711 984 739 l 984 707 l 1014 420 q 1019 350 1017 385 q 1021 281 1021 315 q 976 127 1021 187 q 860 33 931 67 q 706 -14 788 -1 q 549 -27 624 -27 q 397 -12 471 -27 q 264 39 323 3 q 169 136 204 75 q 134 288 134 197 q 137 361 134 325 q 144 434 141 397 l 163 725 l 163 729 q 150 761 163 751 q 116 776 136 770 q 75 789 96 781 q 41 814 55 797 q 28 863 28 831 q 49 919 28 899 q 105 939 70 939 l 547 939 q 604 919 583 939 q 625 863 625 899 q 612 815 625 830 q 578 793 600 800 q 534 774 557 786 q 505 752 511 764 q 497 717 498 741 l 482 500 q 476 410 479 455 q 473 319 473 365 q 524 184 473 225 q 665 142 574 142 q 758 156 713 142 q 832 202 803 170 q 861 292 861 235 m 404 1037 q 418 1084 404 1056 q 451 1139 433 1112 q 479 1182 469 1166 q 514 1236 496 1209 q 558 1281 533 1263 q 620 1299 584 1299 q 706 1266 670 1299 q 742 1183 742 1234 q 716 1106 742 1135 q 653 1058 691 1076 q 578 1026 616 1040 q 518 1005 555 1018 q 457 993 481 993 q 421 1004 437 993 q 404 1037 404 1015 z "},"Ù":{"ha":1139,"x_min":28,"x_max":1120,"o":"m 861 292 q 859 355 861 323 q 854 418 857 387 l 833 716 q 818 762 830 753 q 774 783 806 771 q 723 809 740 795 q 705 863 705 823 q 726 919 705 899 q 783 939 747 939 l 1043 939 q 1099 919 1078 939 q 1120 863 1120 899 q 1106 815 1120 831 q 1073 790 1093 799 q 1032 774 1053 781 q 998 752 1012 766 q 984 711 984 739 l 984 707 l 1014 420 q 1019 350 1017 385 q 1021 281 1021 315 q 976 127 1021 187 q 860 33 931 67 q 706 -14 788 -1 q 549 -27 624 -27 q 397 -12 471 -27 q 264 39 323 3 q 169 136 204 75 q 134 288 134 197 q 137 361 134 325 q 144 434 141 397 l 163 725 l 163 729 q 150 761 163 751 q 116 776 136 770 q 75 789 96 781 q 41 814 55 797 q 28 863 28 831 q 49 919 28 899 q 105 939 70 939 l 547 939 q 604 919 583 939 q 625 863 625 899 q 612 815 625 830 q 578 793 600 800 q 534 774 557 786 q 505 752 511 764 q 497 717 498 741 l 482 500 q 476 410 479 455 q 473 319 473 365 q 524 184 473 225 q 665 142 574 142 q 758 156 713 142 q 832 202 803 170 q 861 292 861 235 m 526 1299 q 588 1281 563 1299 q 632 1236 613 1263 q 667 1182 650 1209 q 696 1139 678 1166 q 728 1084 713 1112 q 742 1037 742 1056 q 725 1004 742 1015 q 689 993 709 993 q 629 1005 666 993 q 568 1026 591 1018 q 493 1058 531 1040 q 430 1106 455 1076 q 404 1183 404 1135 q 440 1266 404 1234 q 526 1299 477 1299 z "},"Û":{"ha":1139,"x_min":28,"x_max":1120,"o":"m 861 292 q 859 355 861 323 q 854 418 857 387 l 833 716 q 818 762 830 753 q 774 783 806 771 q 723 809 740 795 q 705 863 705 823 q 726 919 705 899 q 783 939 747 939 l 1043 939 q 1099 919 1078 939 q 1120 863 1120 899 q 1106 815 1120 831 q 1073 790 1093 799 q 1032 774 1053 781 q 998 752 1012 766 q 984 711 984 739 l 984 707 l 1014 420 q 1019 350 1017 385 q 1021 281 1021 315 q 976 127 1021 187 q 860 33 931 67 q 706 -14 788 -1 q 549 -27 624 -27 q 397 -12 471 -27 q 264 39 323 3 q 169 136 204 75 q 134 288 134 197 q 137 361 134 325 q 144 434 141 397 l 163 725 l 163 729 q 150 761 163 751 q 116 776 136 770 q 75 789 96 781 q 41 814 55 797 q 28 863 28 831 q 49 919 28 899 q 105 939 70 939 l 547 939 q 604 919 583 939 q 625 863 625 899 q 612 815 625 830 q 578 793 600 800 q 534 774 557 786 q 505 752 511 764 q 497 717 498 741 l 482 500 q 476 410 479 455 q 473 319 473 365 q 524 184 473 225 q 665 142 574 142 q 758 156 713 142 q 832 202 803 170 q 861 292 861 235 m 823 1050 q 807 1014 823 1027 q 770 1000 791 1000 q 740 1005 754 1000 q 711 1019 725 1010 l 570 1105 l 429 1019 q 402 1005 416 1010 q 372 1000 387 1000 q 334 1013 350 1000 q 318 1050 318 1027 q 325 1076 318 1063 q 340 1099 331 1089 l 450 1217 q 503 1267 475 1244 q 570 1291 530 1291 q 638 1268 612 1291 q 691 1217 665 1245 l 801 1099 q 817 1076 810 1089 q 823 1050 823 1063 z "},"Ü":{"ha":1139,"x_min":28,"x_max":1120,"o":"m 861 292 q 859 355 861 323 q 854 418 857 387 l 833 716 q 818 762 830 753 q 774 783 806 771 q 723 809 740 795 q 705 863 705 823 q 726 919 705 899 q 783 939 747 939 l 1043 939 q 1099 919 1078 939 q 1120 863 1120 899 q 1106 815 1120 831 q 1073 790 1093 799 q 1032 774 1053 781 q 998 752 1012 766 q 984 711 984 739 l 984 707 l 1014 420 q 1019 350 1017 385 q 1021 281 1021 315 q 976 127 1021 187 q 860 33 931 67 q 706 -14 788 -1 q 549 -27 624 -27 q 397 -12 471 -27 q 264 39 323 3 q 169 136 204 75 q 134 288 134 197 q 137 361 134 325 q 144 434 141 397 l 163 725 l 163 729 q 150 761 163 751 q 116 776 136 770 q 75 789 96 781 q 41 814 55 797 q 28 863 28 831 q 49 919 28 899 q 105 939 70 939 l 547 939 q 604 919 583 939 q 625 863 625 899 q 612 815 625 830 q 578 793 600 800 q 534 774 557 786 q 505 752 511 764 q 497 717 498 741 l 482 500 q 476 410 479 455 q 473 319 473 365 q 524 184 473 225 q 665 142 574 142 q 758 156 713 142 q 832 202 803 170 q 861 292 861 235 m 393 985 q 291 1017 332 985 q 250 1114 250 1048 q 291 1211 250 1179 q 393 1242 332 1242 q 495 1211 455 1242 q 536 1114 536 1179 q 495 1017 536 1048 q 393 985 454 985 m 745 985 q 642 1017 683 985 q 602 1114 602 1048 q 643 1211 602 1179 q 745 1242 684 1242 q 848 1211 807 1242 q 889 1114 889 1180 q 848 1017 889 1048 q 745 985 806 985 z "},"Ý":{"ha":1083,"x_min":24,"x_max":1059,"o":"m 825 74 q 802 17 825 35 q 743 0 779 0 l 353 0 q 293 18 317 0 q 270 74 270 35 q 287 127 270 109 q 326 155 304 144 q 364 179 347 165 q 381 222 381 193 l 381 312 l 144 704 q 121 746 129 730 q 85 780 113 762 q 40 812 56 800 q 24 865 24 825 q 47 921 24 904 q 107 939 71 939 l 493 939 q 553 921 530 939 q 576 865 576 904 q 561 814 576 831 q 528 788 547 797 q 495 769 509 779 q 480 742 480 760 q 487 713 480 728 q 501 686 494 698 l 633 459 l 778 711 q 787 729 783 719 q 791 748 791 739 q 778 772 791 764 q 748 790 765 781 q 718 816 731 799 q 705 865 705 833 q 728 921 705 904 q 787 939 751 939 l 977 939 q 1036 921 1013 939 q 1059 865 1059 904 q 1046 819 1059 833 q 1010 787 1034 804 q 975 752 987 768 q 947 711 962 736 l 715 321 l 715 222 q 731 180 715 193 q 770 156 748 166 q 809 128 792 146 q 825 74 825 111 m 376 1037 q 391 1084 376 1056 q 423 1139 405 1112 q 451 1182 441 1166 q 487 1236 468 1209 q 531 1281 505 1263 q 592 1299 556 1299 q 678 1266 642 1299 q 714 1183 714 1234 q 689 1106 714 1135 q 626 1058 663 1076 q 550 1026 588 1040 q 490 1005 527 1018 q 429 993 453 993 q 393 1004 410 993 q 376 1037 376 1015 z "},"Ÿ":{"ha":1083,"x_min":24,"x_max":1059,"o":"m 825 74 q 802 17 825 35 q 743 0 779 0 l 353 0 q 293 18 317 0 q 270 74 270 35 q 287 127 270 109 q 326 155 304 144 q 364 179 347 165 q 381 222 381 193 l 381 312 l 144 704 q 121 746 129 730 q 85 780 113 762 q 40 812 56 800 q 24 865 24 825 q 47 921 24 904 q 107 939 71 939 l 493 939 q 553 921 530 939 q 576 865 576 904 q 561 814 576 831 q 528 788 547 797 q 495 769 509 779 q 480 742 480 760 q 487 713 480 728 q 501 686 494 698 l 633 459 l 778 711 q 787 729 783 719 q 791 748 791 739 q 778 772 791 764 q 748 790 765 781 q 718 816 731 799 q 705 865 705 833 q 728 921 705 904 q 787 939 751 939 l 977 939 q 1036 921 1013 939 q 1059 865 1059 904 q 1046 819 1059 833 q 1010 787 1034 804 q 975 752 987 768 q 947 711 962 736 l 715 321 l 715 222 q 731 180 715 193 q 770 156 748 166 q 809 128 792 146 q 825 74 825 111 m 366 985 q 263 1017 304 985 q 222 1114 222 1048 q 263 1211 222 1179 q 366 1242 304 1242 q 468 1211 427 1242 q 508 1114 508 1179 q 467 1017 508 1048 q 366 985 427 985 m 717 985 q 614 1017 655 985 q 574 1114 574 1048 q 615 1211 574 1179 q 717 1242 656 1242 q 820 1211 779 1242 q 861 1114 861 1180 q 820 1017 861 1048 q 717 985 779 985 z "},"æ":{"ha":1110,"x_min":20,"x_max":1097,"o":"m 1097 448 q 1062 357 1097 388 q 968 326 1027 326 l 691 326 q 748 228 707 267 q 863 188 788 188 q 951 209 914 188 q 1014 251 988 230 q 1056 272 1039 272 q 1085 258 1076 272 q 1094 227 1094 244 q 1065 118 1094 164 q 988 41 1036 71 q 884 -5 941 10 q 774 -20 828 -20 q 619 1 690 -20 q 496 66 547 22 q 425 15 469 34 q 333 -12 380 -3 q 248 -20 286 -20 q 136 -2 189 -20 q 52 56 84 16 q 20 163 20 96 q 50 265 20 224 q 127 330 79 306 q 229 365 174 354 q 333 375 283 375 q 362 374 347 375 q 395 371 378 374 l 395 547 q 388 587 395 564 q 358 609 380 609 q 333 594 339 609 q 327 561 327 580 q 328 530 328 543 q 280 432 328 460 q 170 404 232 404 q 79 427 117 404 q 42 509 42 450 q 50 553 42 532 q 71 592 58 574 q 157 666 104 639 q 268 704 209 692 q 380 715 327 715 q 491 697 440 715 q 587 644 541 679 q 679 698 631 680 q 785 716 727 716 q 937 686 866 716 q 1053 595 1008 655 q 1097 448 1097 536 m 679 430 q 679 415 679 422 l 753 415 q 788 427 778 415 q 798 463 798 439 q 793 506 798 479 q 778 553 789 532 q 742 574 766 574 q 708 557 721 574 q 689 516 695 541 q 681 468 683 492 q 679 430 679 444 m 326 216 q 337 157 326 189 q 384 126 349 126 q 431 148 410 126 q 395 282 401 206 q 370 288 384 288 q 335 262 345 288 q 326 216 326 236 z "},"œ":{"ha":1228,"x_min":31,"x_max":1199,"o":"m 401 716 q 528 691 467 716 q 627 610 589 665 q 637 593 631 606 q 742 683 678 650 q 895 716 806 716 q 1045 685 975 716 q 1157 595 1114 654 q 1199 448 1199 535 q 1164 357 1199 388 q 1070 326 1129 326 l 793 326 q 850 228 810 267 q 966 188 890 188 q 1053 209 1016 188 q 1116 251 1090 230 q 1158 272 1142 272 q 1187 258 1178 272 q 1196 227 1196 244 q 1167 119 1196 165 q 1093 42 1139 73 q 992 -4 1047 11 q 883 -20 937 -20 q 745 9 805 -20 q 645 87 685 37 q 537 8 600 35 q 405 -20 475 -20 q 209 27 293 -20 q 78 158 125 74 q 31 355 31 243 q 80 541 31 459 q 214 669 130 623 q 401 716 298 716 m 781 430 q 781 415 781 422 l 855 415 q 890 427 881 415 q 900 463 900 439 q 896 506 900 479 q 880 553 892 532 q 844 574 868 574 q 810 557 823 574 q 791 516 798 541 q 783 468 785 492 q 781 430 781 444 m 460 130 q 485 149 477 130 q 494 189 492 167 q 496 222 496 212 q 491 298 496 260 q 475 372 485 336 q 463 417 472 386 q 440 484 454 448 q 410 544 427 519 q 373 568 393 568 q 349 550 357 568 q 339 510 341 532 q 337 477 337 488 q 343 401 337 439 q 358 326 349 363 q 370 280 361 312 q 392 214 379 249 q 423 155 406 180 q 460 130 440 130 z "},"þ":{"ha":924,"x_min":12,"x_max":886,"o":"m 331 1086 q 374 1067 359 1086 q 389 1022 389 1048 l 389 632 q 481 693 431 670 q 594 716 532 716 q 755 666 690 716 q 853 538 820 616 q 886 372 886 459 q 843 175 886 264 q 718 33 799 86 q 525 -20 637 -20 q 389 11 448 -20 l 389 -134 q 391 -172 389 -152 q 408 -205 393 -192 q 440 -234 427 -220 q 452 -275 452 -248 q 433 -321 452 -306 q 385 -337 414 -337 l 88 -337 q 40 -321 59 -337 q 20 -275 20 -306 q 33 -234 20 -249 q 65 -205 46 -220 q 82 -172 81 -193 q 84 -134 84 -152 l 84 811 q 73 860 84 846 q 48 881 62 874 q 23 898 34 888 q 12 935 12 909 q 29 977 12 962 q 69 1000 46 991 l 220 1059 q 274 1078 247 1069 q 331 1086 302 1086 m 452 540 q 389 517 417 540 l 389 164 q 421 143 404 151 q 461 135 439 135 q 518 156 496 135 q 552 210 541 178 q 568 277 564 243 q 572 338 572 312 q 568 401 572 366 q 550 467 563 435 q 514 519 537 499 q 452 540 490 540 z "},"ð":{"ha":836,"x_min":37,"x_max":808,"o":"m 206 767 q 173 785 185 767 q 160 821 160 802 q 169 846 160 837 q 190 862 177 855 l 327 930 q 278 968 303 953 q 232 996 256 981 q 209 1042 209 1010 q 234 1082 209 1072 q 283 1093 260 1093 q 295 1093 289 1093 q 307 1091 301 1093 q 410 1064 360 1083 q 503 1017 459 1046 l 629 1080 q 659 1087 642 1087 q 691 1071 679 1087 q 704 1035 704 1055 q 693 1008 704 1018 q 669 991 683 998 l 588 951 q 707 800 658 885 q 782 622 756 715 q 808 435 808 528 q 768 205 808 309 q 641 40 727 102 q 418 -22 555 -22 q 212 29 297 -22 q 82 169 127 79 q 37 377 37 259 q 73 541 37 463 q 175 669 109 619 q 334 718 241 718 q 469 672 419 718 q 436 765 456 719 q 390 852 416 812 l 230 773 q 206 767 216 767 m 353 452 q 362 343 353 395 q 372 295 364 329 q 394 222 380 260 q 425 158 407 184 q 463 131 442 131 q 490 149 481 131 q 503 192 499 167 q 506 241 506 218 q 506 275 506 264 q 504 333 506 304 q 496 390 502 361 q 486 436 494 406 q 464 496 477 465 q 433 548 451 526 q 393 569 415 569 q 365 545 373 569 q 355 492 356 521 q 353 452 353 464 z "},"ø":{"ha":836,"x_min":37,"x_max":800,"o":"m 231 -98 q 198 -85 212 -98 q 183 -54 183 -73 q 189 -33 183 -43 l 219 25 q 85 156 134 71 q 37 355 37 241 q 90 546 37 465 q 231 672 142 627 q 425 716 319 716 q 536 703 484 716 l 575 779 q 610 802 587 802 q 643 789 628 802 q 659 758 659 777 q 654 741 659 750 l 618 671 q 751 542 703 627 q 800 345 800 458 q 748 152 800 234 q 608 25 696 71 q 413 -20 520 -20 q 300 -6 353 -20 l 266 -72 q 252 -90 260 -82 q 231 -98 243 -98 m 364 326 q 370 304 366 315 l 444 478 q 413 541 430 513 q 376 568 395 568 q 353 550 361 568 q 344 511 346 532 q 342 479 342 490 q 349 402 342 441 q 364 326 355 363 m 463 130 q 487 148 480 130 q 496 188 494 166 q 498 220 498 210 q 492 297 498 258 q 477 372 486 335 q 475 381 476 376 q 471 393 473 386 l 397 216 q 427 156 410 182 q 463 130 444 130 z "},"ß":{"ha":897,"x_min":35,"x_max":859,"o":"m 859 263 q 833 125 859 191 q 755 20 807 60 q 626 -21 703 -21 q 564 -12 602 -21 q 497 20 526 -2 q 467 80 467 43 q 479 125 467 114 q 509 138 491 137 q 544 142 526 139 q 573 161 561 145 q 585 220 585 178 q 572 327 585 273 q 530 423 559 381 q 452 477 500 465 l 452 96 q 434 28 452 56 q 372 0 416 0 l 125 0 q 75 16 95 0 q 55 63 55 31 q 70 109 55 97 q 103 127 84 121 q 137 148 123 133 q 152 201 152 162 l 152 458 q 144 496 152 484 q 113 518 136 507 q 61 547 86 532 q 35 599 35 563 q 65 649 35 639 q 126 659 95 659 q 142 659 134 659 q 159 659 151 659 q 199 895 161 812 q 314 1009 237 978 q 517 1041 392 1041 q 610 1030 562 1041 q 700 994 658 1020 q 768 920 742 967 q 794 801 794 873 q 748 653 794 711 q 631 566 702 595 q 801 471 743 547 q 859 263 859 394 m 452 652 l 452 589 q 508 640 491 605 q 530 714 526 674 q 535 788 535 754 q 524 878 535 840 q 484 916 513 916 q 461 888 468 916 q 452 820 454 861 q 451 733 450 778 q 452 652 452 688 z "},"ı":{"ha":495,"x_min":36,"x_max":465,"o":"m 349 716 q 392 697 376 716 q 407 652 407 678 l 407 204 q 409 166 407 185 q 424 132 410 146 q 453 102 441 113 q 465 62 465 92 q 447 16 465 32 q 399 0 428 0 l 111 0 q 63 16 81 0 q 44 62 44 31 q 56 103 44 91 q 85 132 67 115 q 101 166 99 146 q 102 204 102 186 l 102 441 q 100 469 102 454 q 89 494 98 484 q 82 499 86 497 q 76 504 79 501 q 48 529 61 519 q 36 564 36 539 q 53 606 36 591 q 93 630 70 621 l 239 689 q 293 708 265 699 q 349 716 321 716 z "},"":{"ha":983,"x_min":-1,"x_max":954,"o":"m 418 515 l 418 64 q 405 17 418 34 q 370 0 392 0 l 67 0 q 33 15 46 0 q 19 60 19 31 q 33 108 19 95 q 66 128 47 121 q 99 151 85 135 q 113 207 113 166 l 113 469 q 96 506 113 494 q 56 528 79 518 q 17 554 34 538 q -1 602 -1 570 q 18 644 -1 629 q 62 659 36 659 l 115 659 l 115 666 q 95 688 115 672 q 55 730 75 705 q 35 789 35 756 q 61 891 35 849 q 132 958 88 932 q 228 995 176 983 q 331 1006 280 1006 q 451 989 389 1006 q 557 932 514 972 q 630 975 585 963 q 718 987 675 987 q 805 975 760 987 q 879 933 849 963 q 909 852 909 904 q 880 770 909 800 q 805 727 850 740 q 718 715 761 715 q 655 721 687 715 q 597 741 623 727 q 493 686 567 686 q 398 720 434 686 q 363 814 363 755 q 361 855 363 835 q 349 888 359 875 q 311 901 338 901 q 274 883 283 901 q 264 840 264 864 q 284 791 264 813 q 329 750 303 770 q 373 710 354 730 q 393 665 393 689 l 393 659 l 517 659 q 551 651 535 659 q 573 629 566 644 l 717 685 q 771 704 744 696 q 828 712 799 712 q 871 693 856 712 q 887 648 887 674 l 887 200 q 889 162 887 180 q 907 128 892 143 q 940 100 927 110 q 954 58 954 90 q 934 12 954 27 q 886 -4 915 -4 l 583 -4 q 535 11 554 -4 q 515 58 515 26 q 526 96 515 84 q 549 117 536 108 q 572 141 562 125 q 582 192 582 157 l 582 437 q 570 485 582 470 q 543 507 558 499 q 517 528 527 515 q 467 517 493 519 q 418 515 441 515 z "},"":{"ha":977,"x_min":-1,"x_max":947,"o":"m 418 515 l 418 62 q 405 16 418 31 q 370 0 392 0 l 67 0 q 33 15 46 0 q 19 60 19 31 q 33 108 19 95 q 66 128 47 121 q 99 151 85 135 q 113 207 113 166 l 113 469 q 96 506 113 494 q 56 528 79 518 q 17 554 34 538 q -1 602 -1 570 q 18 644 -1 629 q 62 659 36 659 l 115 659 l 115 666 q 95 688 115 672 q 55 730 75 705 q 35 789 35 756 q 61 891 35 849 q 132 958 88 932 q 228 995 176 983 q 331 1006 280 1006 q 452 989 389 1006 q 558 932 515 971 q 564 934 560 932 l 715 993 q 769 1012 742 1004 q 825 1020 796 1020 q 868 1001 853 1020 q 884 956 884 982 l 884 204 q 886 166 884 184 q 903 132 888 147 q 934 103 921 114 q 947 62 947 92 q 928 16 947 31 q 880 0 909 0 l 582 0 q 534 16 553 0 q 515 62 515 31 q 524 99 515 87 q 547 120 534 111 q 569 145 559 129 q 578 195 578 161 l 578 716 q 493 686 547 686 q 398 720 434 686 q 363 814 363 755 q 361 855 363 835 q 349 888 359 875 q 311 901 338 901 q 274 883 283 901 q 264 840 264 864 q 284 791 264 813 q 329 750 303 770 q 373 710 354 730 q 393 665 393 689 l 393 659 l 517 659 q 560 646 542 659 q 578 606 578 633 q 551 545 578 564 q 487 520 524 526 q 418 515 450 515 z "},"á":{"ha":787,"x_min":27,"x_max":800,"o":"m 27 156 q 56 260 27 218 q 133 327 85 302 q 235 363 180 353 q 340 374 290 374 q 371 374 355 374 q 401 371 387 374 l 401 547 q 394 587 401 564 q 366 609 387 609 q 339 592 345 609 q 334 559 334 574 q 335 545 334 552 q 335 530 335 538 q 287 432 335 460 q 177 404 239 404 q 87 427 125 404 q 50 509 50 450 q 59 553 50 532 q 82 592 68 575 q 186 669 123 642 q 318 705 249 695 q 449 715 388 715 q 576 695 518 715 q 668 630 633 675 q 703 507 703 584 l 703 194 q 708 174 703 182 q 726 165 713 165 q 744 171 736 165 q 761 178 751 178 q 790 164 781 178 q 800 132 800 151 q 771 51 800 85 q 700 -2 743 16 q 614 -20 657 -20 q 511 3 563 -20 q 439 73 459 25 q 345 2 405 24 q 227 -20 285 -20 q 129 0 174 -20 q 55 60 83 20 q 27 156 27 99 m 333 216 q 346 164 333 189 q 390 140 359 140 q 401 142 396 140 l 401 282 q 378 287 390 287 q 342 261 352 287 q 333 216 333 236 m 231 794 q 243 840 231 812 q 270 897 255 869 q 294 942 285 925 q 328 1003 310 972 q 371 1053 345 1033 q 437 1073 397 1073 q 524 1040 487 1073 q 562 955 562 1007 q 522 860 562 898 q 433 803 481 823 l 321 758 q 302 751 311 754 q 282 749 293 749 q 247 761 262 749 q 231 794 231 772 z "},"à":{"ha":787,"x_min":27,"x_max":800,"o":"m 27 156 q 56 260 27 218 q 133 327 85 302 q 235 363 180 353 q 340 374 290 374 q 371 374 355 374 q 401 371 387 374 l 401 547 q 394 587 401 564 q 366 609 387 609 q 339 592 345 609 q 334 559 334 574 q 335 545 334 552 q 335 530 335 538 q 287 432 335 460 q 177 404 239 404 q 87 427 125 404 q 50 509 50 450 q 59 553 50 532 q 82 592 68 575 q 186 669 123 642 q 318 705 249 695 q 449 715 388 715 q 576 695 518 715 q 668 630 633 675 q 703 507 703 584 l 703 194 q 708 174 703 182 q 726 165 713 165 q 744 171 736 165 q 761 178 751 178 q 790 164 781 178 q 800 132 800 151 q 771 51 800 85 q 700 -2 743 16 q 614 -20 657 -20 q 511 3 563 -20 q 439 73 459 25 q 345 2 405 24 q 227 -20 285 -20 q 129 0 174 -20 q 55 60 83 20 q 27 156 27 99 m 333 216 q 346 164 333 189 q 390 140 359 140 q 401 142 396 140 l 401 282 q 378 287 390 287 q 342 261 352 287 q 333 216 333 236 m 355 1073 q 421 1053 395 1073 q 465 1003 447 1033 q 498 942 483 972 q 523 897 508 925 q 549 841 537 869 q 561 794 561 813 q 546 761 561 772 q 510 749 530 749 q 458 761 486 749 q 410 783 431 773 q 329 820 370 800 q 259 871 288 840 q 231 955 231 903 q 268 1040 231 1007 q 355 1073 305 1073 z "},"â":{"ha":787,"x_min":27,"x_max":800,"o":"m 27 156 q 56 260 27 218 q 133 327 85 302 q 235 363 180 353 q 340 374 290 374 q 371 374 355 374 q 401 371 387 374 l 401 547 q 394 587 401 564 q 366 609 387 609 q 339 592 345 609 q 334 559 334 574 q 335 545 334 552 q 335 530 335 538 q 287 432 335 460 q 177 404 239 404 q 87 427 125 404 q 50 509 50 450 q 59 553 50 532 q 82 592 68 575 q 186 669 123 642 q 318 705 249 695 q 449 715 388 715 q 576 695 518 715 q 668 630 633 675 q 703 507 703 584 l 703 194 q 708 174 703 182 q 726 165 713 165 q 744 171 736 165 q 761 178 751 178 q 790 164 781 178 q 800 132 800 151 q 771 51 800 85 q 700 -2 743 16 q 614 -20 657 -20 q 511 3 563 -20 q 439 73 459 25 q 345 2 405 24 q 227 -20 285 -20 q 129 0 174 -20 q 55 60 83 20 q 27 156 27 99 m 333 216 q 346 164 333 189 q 390 140 359 140 q 401 142 396 140 l 401 282 q 378 287 390 287 q 342 261 352 287 q 333 216 333 236 m 647 798 q 630 762 647 775 q 591 748 612 748 q 562 754 576 748 q 537 769 549 760 l 396 878 l 255 769 q 230 754 243 760 q 201 748 216 748 q 163 762 180 748 q 145 798 145 775 q 165 850 145 827 l 275 979 q 327 1032 302 1010 q 396 1054 352 1054 q 465 1032 440 1054 q 517 979 490 1010 l 627 850 q 647 798 647 827 z "},"ã":{"ha":787,"x_min":27,"x_max":800,"o":"m 27 156 q 56 260 27 218 q 133 327 85 302 q 235 363 180 353 q 340 374 290 374 q 371 374 355 374 q 401 371 387 374 l 401 547 q 394 587 401 564 q 366 609 387 609 q 339 592 345 609 q 334 559 334 574 q 335 545 334 552 q 335 530 335 538 q 287 432 335 460 q 177 404 239 404 q 87 427 125 404 q 50 509 50 450 q 59 553 50 532 q 82 592 68 575 q 186 669 123 642 q 318 705 249 695 q 449 715 388 715 q 576 695 518 715 q 668 630 633 675 q 703 507 703 584 l 703 194 q 708 174 703 182 q 726 165 713 165 q 744 171 736 165 q 761 178 751 178 q 790 164 781 178 q 800 132 800 151 q 771 51 800 85 q 700 -2 743 16 q 614 -20 657 -20 q 511 3 563 -20 q 439 73 459 25 q 345 2 405 24 q 227 -20 285 -20 q 129 0 174 -20 q 55 60 83 20 q 27 156 27 99 m 333 216 q 346 164 333 189 q 390 140 359 140 q 401 142 396 140 l 401 282 q 378 287 390 287 q 342 261 352 287 q 333 216 333 236 m 505 751 q 429 771 464 751 q 365 813 394 792 q 310 833 336 833 q 277 821 287 833 q 260 790 267 808 q 242 760 254 773 q 205 747 231 747 q 163 772 172 747 q 154 823 154 796 q 166 908 154 865 q 208 981 179 951 q 288 1010 237 1010 q 364 990 329 1010 q 428 948 399 969 q 483 928 458 928 q 517 941 507 928 q 532 971 527 954 q 549 1001 538 988 q 588 1014 561 1014 q 630 990 621 1014 q 639 939 639 966 q 626 854 639 898 q 585 781 614 810 q 505 751 555 751 z "},"ä":{"ha":787,"x_min":27,"x_max":800,"o":"m 27 156 q 56 260 27 218 q 133 327 85 302 q 235 363 180 353 q 340 374 290 374 q 371 374 355 374 q 401 371 387 374 l 401 547 q 394 587 401 564 q 366 609 387 609 q 339 592 345 609 q 334 559 334 574 q 335 545 334 552 q 335 530 335 538 q 287 432 335 460 q 177 404 239 404 q 87 427 125 404 q 50 509 50 450 q 59 553 50 532 q 82 592 68 575 q 186 669 123 642 q 318 705 249 695 q 449 715 388 715 q 576 695 518 715 q 668 630 633 675 q 703 507 703 584 l 703 194 q 708 174 703 182 q 726 165 713 165 q 744 171 736 165 q 761 178 751 178 q 790 164 781 178 q 800 132 800 151 q 771 51 800 85 q 700 -2 743 16 q 614 -20 657 -20 q 511 3 563 -20 q 439 73 459 25 q 345 2 405 24 q 227 -20 285 -20 q 129 0 174 -20 q 55 60 83 20 q 27 156 27 99 m 333 216 q 346 164 333 189 q 390 140 359 140 q 401 142 396 140 l 401 282 q 378 287 390 287 q 342 261 352 287 q 333 216 333 236 m 220 741 q 117 772 158 741 q 77 869 77 804 q 118 966 77 935 q 220 998 159 998 q 322 966 281 998 q 362 869 362 935 q 321 773 362 804 q 220 741 281 741 m 571 741 q 469 772 509 741 q 428 869 428 804 q 469 966 428 935 q 571 998 510 998 q 674 967 633 998 q 715 869 715 936 q 674 772 715 804 q 571 741 633 741 z "},"å":{"ha":787,"x_min":27,"x_max":800,"o":"m 27 156 q 56 260 27 218 q 133 327 85 302 q 235 363 180 353 q 340 374 290 374 q 371 374 355 374 q 401 371 387 374 l 401 547 q 394 587 401 564 q 366 609 387 609 q 339 592 345 609 q 334 559 334 574 q 335 545 334 552 q 335 530 335 538 q 287 432 335 460 q 177 404 239 404 q 87 427 125 404 q 50 509 50 450 q 59 553 50 532 q 82 592 68 575 q 186 669 123 642 q 318 705 249 695 q 449 715 388 715 q 576 695 518 715 q 668 630 633 675 q 703 507 703 584 l 703 194 q 708 174 703 182 q 726 165 713 165 q 744 171 736 165 q 761 178 751 178 q 790 164 781 178 q 800 132 800 151 q 771 51 800 85 q 700 -2 743 16 q 614 -20 657 -20 q 511 3 563 -20 q 439 73 459 25 q 345 2 405 24 q 227 -20 285 -20 q 129 0 174 -20 q 55 60 83 20 q 27 156 27 99 m 333 216 q 346 164 333 189 q 390 140 359 140 q 401 142 396 140 l 401 282 q 378 287 390 287 q 342 261 352 287 q 333 216 333 236 m 396 743 q 307 758 350 743 q 235 805 263 772 q 207 890 207 838 q 235 976 207 943 q 307 1022 263 1008 q 396 1036 351 1036 q 486 1022 442 1036 q 557 976 529 1008 q 586 890 586 943 q 557 805 586 838 q 486 758 529 773 q 396 743 442 743 m 397 949 q 352 934 371 949 q 332 890 332 919 q 352 847 332 862 q 397 832 371 832 q 442 848 424 832 q 460 890 460 863 q 443 933 460 918 q 397 949 425 949 z "},"ç":{"ha":731,"x_min":26,"x_max":700,"o":"m 696 494 q 650 397 696 430 q 546 363 604 363 q 450 396 486 363 q 414 490 414 429 q 407 546 414 517 q 363 574 400 574 q 319 547 334 574 q 299 484 304 519 q 294 429 294 450 q 313 317 294 370 q 374 232 332 264 q 481 199 415 199 q 557 217 519 199 q 625 254 595 236 q 665 273 654 273 q 693 256 686 273 q 700 223 700 239 q 671 117 700 162 q 595 41 642 71 q 493 -4 548 11 q 385 -20 437 -20 q 202 24 283 -20 q 74 146 121 68 q 26 328 26 225 q 72 528 26 440 q 201 666 117 615 q 399 716 285 716 q 502 704 450 716 q 598 664 554 691 q 669 595 642 637 q 696 494 696 553 m 329 13 l 421 13 l 383 -73 q 400 -73 391 -73 q 473 -82 437 -73 q 531 -117 508 -92 q 555 -185 555 -141 q 523 -265 555 -237 q 444 -303 490 -293 q 357 -314 398 -314 q 309 -311 338 -314 q 251 -298 280 -307 q 201 -274 221 -290 q 180 -233 180 -258 q 192 -199 180 -214 q 224 -184 203 -184 q 277 -200 251 -184 q 334 -216 303 -216 q 362 -209 350 -216 q 374 -184 374 -201 q 359 -159 374 -163 q 328 -155 343 -155 q 291 -153 313 -155 q 270 -130 270 -151 q 282 -89 270 -118 q 309 -30 294 -60 q 329 13 323 0 z "},"é":{"ha":736,"x_min":27,"x_max":710,"o":"m 710 448 q 674 357 710 388 q 581 326 639 326 l 307 326 q 363 228 323 267 q 478 188 403 188 q 537 200 508 188 q 593 230 567 213 q 639 259 619 247 q 669 272 659 272 q 697 258 688 272 q 706 227 706 244 q 677 118 706 165 q 601 41 648 72 q 498 -4 554 11 q 388 -20 442 -20 q 200 24 281 -20 q 73 148 119 68 q 27 336 27 228 q 72 536 27 451 q 199 669 116 622 q 399 716 283 716 q 551 686 480 716 q 666 595 622 655 q 710 448 710 536 m 295 430 q 295 415 295 422 l 366 415 q 401 427 391 415 q 410 463 410 439 q 406 506 410 479 q 390 553 402 532 q 356 574 378 574 q 323 558 336 574 q 305 516 311 541 q 297 468 299 492 q 295 430 295 444 m 204 794 q 216 840 204 812 q 243 897 228 869 q 267 942 258 925 q 300 1003 283 972 q 344 1053 318 1033 q 410 1073 370 1073 q 497 1040 460 1073 q 534 955 534 1007 q 494 860 534 898 q 406 803 454 823 l 294 758 q 275 751 284 754 q 255 749 266 749 q 219 761 235 749 q 204 794 204 772 z "},"è":{"ha":736,"x_min":27,"x_max":710,"o":"m 710 448 q 674 357 710 388 q 581 326 639 326 l 307 326 q 363 228 323 267 q 478 188 403 188 q 537 200 508 188 q 593 230 567 213 q 639 259 619 247 q 669 272 659 272 q 697 258 688 272 q 706 227 706 244 q 677 118 706 165 q 601 41 648 72 q 498 -4 554 11 q 388 -20 442 -20 q 200 24 281 -20 q 73 148 119 68 q 27 336 27 228 q 72 536 27 451 q 199 669 116 622 q 399 716 283 716 q 551 686 480 716 q 666 595 622 655 q 710 448 710 536 m 295 430 q 295 415 295 422 l 366 415 q 401 427 391 415 q 410 463 410 439 q 406 506 410 479 q 390 553 402 532 q 356 574 378 574 q 323 558 336 574 q 305 516 311 541 q 297 468 299 492 q 295 430 295 444 m 328 1073 q 394 1053 368 1073 q 438 1003 420 1033 q 471 942 456 972 q 495 897 481 925 q 522 841 510 869 q 534 794 534 813 q 518 761 534 772 q 483 749 503 749 q 431 761 458 749 q 382 783 404 773 q 302 820 343 800 q 232 871 260 840 q 204 955 204 903 q 241 1040 204 1007 q 328 1073 278 1073 z "},"ê":{"ha":736,"x_min":27,"x_max":710,"o":"m 710 448 q 674 357 710 388 q 581 326 639 326 l 307 326 q 363 228 323 267 q 478 188 403 188 q 537 200 508 188 q 593 230 567 213 q 639 259 619 247 q 669 272 659 272 q 697 258 688 272 q 706 227 706 244 q 677 118 706 165 q 601 41 648 72 q 498 -4 554 11 q 388 -20 442 -20 q 200 24 281 -20 q 73 148 119 68 q 27 336 27 228 q 72 536 27 451 q 199 669 116 622 q 399 716 283 716 q 551 686 480 716 q 666 595 622 655 q 710 448 710 536 m 295 430 q 295 415 295 422 l 366 415 q 401 427 391 415 q 410 463 410 439 q 406 506 410 479 q 390 553 402 532 q 356 574 378 574 q 323 558 336 574 q 305 516 311 541 q 297 468 299 492 q 295 430 295 444 m 620 798 q 603 762 620 775 q 564 748 585 748 q 535 754 549 748 q 510 769 522 760 l 369 878 l 228 769 q 203 754 216 760 q 174 748 189 748 q 136 762 153 748 q 118 798 118 775 q 138 850 118 827 l 248 979 q 300 1032 275 1010 q 369 1054 325 1054 q 438 1032 413 1054 q 490 979 463 1010 l 600 850 q 620 798 620 827 z "},"ë":{"ha":736,"x_min":27,"x_max":710,"o":"m 710 448 q 674 357 710 388 q 581 326 639 326 l 307 326 q 363 228 323 267 q 478 188 403 188 q 537 200 508 188 q 593 230 567 213 q 639 259 619 247 q 669 272 659 272 q 697 258 688 272 q 706 227 706 244 q 677 118 706 165 q 601 41 648 72 q 498 -4 554 11 q 388 -20 442 -20 q 200 24 281 -20 q 73 148 119 68 q 27 336 27 228 q 72 536 27 451 q 199 669 116 622 q 399 716 283 716 q 551 686 480 716 q 666 595 622 655 q 710 448 710 536 m 295 430 q 295 415 295 422 l 366 415 q 401 427 391 415 q 410 463 410 439 q 406 506 410 479 q 390 553 402 532 q 356 574 378 574 q 323 558 336 574 q 305 516 311 541 q 297 468 299 492 q 295 430 295 444 m 193 741 q 90 772 131 741 q 50 869 50 804 q 91 966 50 935 q 193 998 132 998 q 295 966 254 998 q 335 869 335 935 q 294 773 335 804 q 193 741 254 741 m 544 741 q 441 772 482 741 q 401 869 401 804 q 442 966 401 935 q 544 998 483 998 q 647 967 606 998 q 688 869 688 936 q 647 772 688 804 q 544 741 606 741 z "},"í":{"ha":495,"x_min":36,"x_max":465,"o":"m 349 716 q 392 697 376 716 q 407 652 407 678 l 407 204 q 409 166 407 185 q 424 132 410 146 q 453 102 441 113 q 465 62 465 92 q 447 16 465 32 q 399 0 428 0 l 111 0 q 63 16 81 0 q 44 62 44 31 q 56 103 44 91 q 85 132 67 115 q 101 166 99 146 q 102 204 102 186 l 102 441 q 100 469 102 454 q 89 494 98 484 q 82 499 86 497 q 76 504 79 501 q 48 529 61 519 q 36 564 36 539 q 53 606 36 591 q 93 630 70 621 l 239 689 q 293 708 265 699 q 349 716 321 716 m 92 794 q 103 840 92 812 q 130 897 115 869 q 154 942 145 925 q 188 1003 170 972 q 231 1053 205 1033 q 297 1073 257 1073 q 385 1040 347 1073 q 422 955 422 1007 q 382 860 422 898 q 294 803 342 823 l 181 758 q 162 751 172 754 q 142 749 153 749 q 107 761 122 749 q 92 794 92 772 z "},"ì":{"ha":495,"x_min":36,"x_max":465,"o":"m 349 716 q 392 697 376 716 q 407 652 407 678 l 407 204 q 409 166 407 185 q 424 132 410 146 q 453 102 441 113 q 465 62 465 92 q 447 16 465 32 q 399 0 428 0 l 111 0 q 63 16 81 0 q 44 62 44 31 q 56 103 44 91 q 85 132 67 115 q 101 166 99 146 q 102 204 102 186 l 102 441 q 100 469 102 454 q 89 494 98 484 q 82 499 86 497 q 76 504 79 501 q 48 529 61 519 q 36 564 36 539 q 53 606 36 591 q 93 630 70 621 l 239 689 q 293 708 265 699 q 349 716 321 716 m 216 1073 q 281 1053 256 1073 q 325 1003 307 1033 q 359 942 343 972 q 383 897 368 925 q 409 841 397 869 q 421 794 421 813 q 406 761 421 772 q 370 749 391 749 q 319 761 346 749 q 270 783 292 773 q 189 820 231 800 q 120 871 148 840 q 92 955 92 903 q 129 1040 92 1007 q 216 1073 165 1073 z "},"î":{"ha":495,"x_min":-33,"x_max":528,"o":"m 349 716 q 392 697 376 716 q 407 652 407 678 l 407 204 q 409 166 407 185 q 424 132 410 146 q 453 102 441 113 q 465 62 465 92 q 447 16 465 32 q 399 0 428 0 l 111 0 q 63 16 81 0 q 44 62 44 31 q 56 103 44 91 q 85 132 67 115 q 101 166 99 146 q 102 204 102 186 l 102 441 q 100 469 102 454 q 89 494 98 484 q 82 499 86 497 q 76 504 79 501 q 48 529 61 519 q 36 564 36 539 q 53 606 36 591 q 93 630 70 621 l 239 689 q 293 708 265 699 q 349 716 321 716 m 528 807 q 510 770 528 783 q 471 757 492 757 q 442 763 456 757 q 416 778 428 769 l 248 899 l 78 778 q 52 763 66 769 q 23 757 39 757 q -16 770 1 757 q -33 806 -33 783 q -12 858 -33 836 l 125 998 q 136 1011 132 1004 q 185 1055 157 1038 q 248 1072 214 1072 q 306 1057 286 1072 q 351 1017 326 1042 l 507 858 q 528 807 528 836 z "},"ï":{"ha":495,"x_min":-60,"x_max":555,"o":"m 349 716 q 392 697 376 716 q 407 652 407 678 l 407 204 q 409 166 407 185 q 424 132 410 146 q 453 102 441 113 q 465 62 465 92 q 447 16 465 32 q 399 0 428 0 l 111 0 q 63 16 81 0 q 44 62 44 31 q 56 103 44 91 q 85 132 67 115 q 101 166 99 146 q 102 204 102 186 l 102 441 q 100 469 102 454 q 89 494 98 484 q 82 499 86 497 q 76 504 79 501 q 48 529 61 519 q 36 564 36 539 q 53 606 36 591 q 93 630 70 621 l 239 689 q 293 708 265 699 q 349 716 321 716 m 80 737 q -21 769 19 737 q -60 865 -60 801 q -21 962 -60 930 q 80 994 19 994 q 181 962 142 994 q 220 865 220 930 q 181 769 220 801 q 80 737 141 737 m 414 737 q 313 769 352 737 q 273 865 273 800 q 313 962 273 930 q 414 994 352 994 q 516 963 476 994 q 555 865 555 931 q 515 769 555 800 q 414 737 475 737 z "},"ñ":{"ha":932,"x_min":36,"x_max":902,"o":"m 347 716 q 390 697 375 716 q 404 652 404 677 l 404 589 q 522 677 458 639 q 650 716 587 716 q 759 684 715 716 q 824 599 802 651 q 846 486 846 547 l 846 204 q 848 167 846 185 q 863 132 850 149 q 890 102 878 113 q 902 62 902 91 q 884 16 902 32 q 836 0 865 0 l 553 0 q 509 17 524 0 q 494 62 494 34 q 506 102 494 87 q 529 133 517 117 q 541 178 541 149 l 541 413 q 529 475 541 445 q 477 506 516 506 q 436 497 453 506 q 404 473 419 488 l 404 196 q 406 159 404 178 q 419 125 407 140 q 443 97 433 108 q 452 62 452 87 q 437 17 452 34 q 393 0 422 0 l 110 0 q 62 16 81 0 q 44 62 44 32 q 53 97 44 84 q 72 120 61 109 q 91 146 83 131 q 100 189 100 162 l 100 441 q 90 487 100 471 q 68 512 81 503 q 45 532 55 521 q 36 564 36 543 q 54 606 36 591 q 93 630 71 621 l 239 689 q 292 708 265 700 q 347 716 319 716 m 576 751 q 499 771 534 751 q 435 813 465 792 q 380 833 406 833 q 348 821 357 833 q 331 790 338 808 q 313 760 324 773 q 275 747 301 747 q 233 772 242 747 q 224 823 224 796 q 237 908 224 865 q 279 981 250 951 q 358 1010 308 1010 q 434 990 399 1010 q 499 948 469 969 q 553 928 528 928 q 588 941 578 928 q 603 971 597 954 q 620 1001 608 988 q 659 1014 631 1014 q 701 990 692 1014 q 709 939 709 966 q 697 854 709 898 q 655 781 684 810 q 576 751 626 751 z "},"ó":{"ha":836,"x_min":37,"x_max":800,"o":"m 425 716 q 621 670 536 716 q 753 541 705 624 q 800 345 800 457 q 748 152 800 234 q 608 25 696 71 q 413 -20 520 -20 q 216 27 300 -20 q 84 158 131 73 q 37 355 37 242 q 90 546 37 465 q 231 672 142 627 q 425 716 319 716 m 463 130 q 487 148 480 130 q 496 187 494 165 q 498 220 498 208 q 492 297 498 258 q 477 372 486 335 q 464 419 473 387 q 441 485 454 450 q 411 544 427 519 q 376 568 395 568 q 354 551 361 568 q 345 512 347 533 q 342 479 342 490 q 348 421 342 461 q 364 331 353 380 q 389 236 374 281 q 423 160 404 190 q 463 130 441 130 m 254 794 q 266 840 254 812 q 293 897 278 869 q 317 942 308 925 q 351 1003 333 972 q 394 1053 368 1033 q 460 1073 420 1073 q 547 1040 510 1073 q 585 955 585 1007 q 545 860 585 898 q 456 803 505 823 l 344 758 q 325 751 334 754 q 305 749 316 749 q 270 761 285 749 q 254 794 254 772 z "},"ò":{"ha":836,"x_min":37,"x_max":800,"o":"m 425 716 q 621 670 536 716 q 753 541 705 624 q 800 345 800 457 q 748 152 800 234 q 608 25 696 71 q 413 -20 520 -20 q 216 27 300 -20 q 84 158 131 73 q 37 355 37 242 q 90 546 37 465 q 231 672 142 627 q 425 716 319 716 m 463 130 q 487 148 480 130 q 496 187 494 165 q 498 220 498 208 q 492 297 498 258 q 477 372 486 335 q 464 419 473 387 q 441 485 454 450 q 411 544 427 519 q 376 568 395 568 q 354 551 361 568 q 345 512 347 533 q 342 479 342 490 q 348 421 342 461 q 364 331 353 380 q 389 236 374 281 q 423 160 404 190 q 463 130 441 130 m 378 1073 q 444 1053 418 1073 q 488 1003 470 1033 q 522 942 506 972 q 546 897 531 925 q 572 841 560 869 q 584 794 584 813 q 569 761 584 772 q 533 749 553 749 q 481 761 509 749 q 433 783 454 773 q 352 820 393 800 q 282 871 311 840 q 254 955 254 903 q 291 1040 254 1007 q 378 1073 328 1073 z "},"ô":{"ha":836,"x_min":37,"x_max":800,"o":"m 425 716 q 621 670 536 716 q 753 541 705 624 q 800 345 800 457 q 748 152 800 234 q 608 25 696 71 q 413 -20 520 -20 q 216 27 300 -20 q 84 158 131 73 q 37 355 37 242 q 90 546 37 465 q 231 672 142 627 q 425 716 319 716 m 463 130 q 487 148 480 130 q 496 187 494 165 q 498 220 498 208 q 492 297 498 258 q 477 372 486 335 q 464 419 473 387 q 441 485 454 450 q 411 544 427 519 q 376 568 395 568 q 354 551 361 568 q 345 512 347 533 q 342 479 342 490 q 348 421 342 461 q 364 331 353 380 q 389 236 374 281 q 423 160 404 190 q 463 130 441 130 m 670 798 q 653 762 670 775 q 614 748 635 748 q 585 754 599 748 q 560 769 572 760 l 419 878 l 278 769 q 253 754 267 760 q 224 748 239 748 q 186 762 203 748 q 168 798 168 775 q 189 850 168 827 l 298 979 q 350 1032 325 1010 q 419 1054 375 1054 q 488 1032 463 1054 q 540 979 513 1010 l 650 850 q 670 798 670 827 z "},"õ":{"ha":836,"x_min":37,"x_max":800,"o":"m 425 716 q 621 670 536 716 q 753 541 705 624 q 800 345 800 457 q 748 152 800 234 q 608 25 696 71 q 413 -20 520 -20 q 216 27 300 -20 q 84 158 131 73 q 37 355 37 242 q 90 546 37 465 q 231 672 142 627 q 425 716 319 716 m 463 130 q 487 148 480 130 q 496 187 494 165 q 498 220 498 208 q 492 297 498 258 q 477 372 486 335 q 464 419 473 387 q 441 485 454 450 q 411 544 427 519 q 376 568 395 568 q 354 551 361 568 q 345 512 347 533 q 342 479 342 490 q 348 421 342 461 q 364 331 353 380 q 389 236 374 281 q 423 160 404 190 q 463 130 441 130 m 528 751 q 452 771 487 751 q 388 813 417 792 q 333 833 359 833 q 300 821 310 833 q 283 790 290 808 q 265 760 277 773 q 228 747 254 747 q 186 772 195 747 q 177 823 177 796 q 190 908 177 865 q 231 981 202 951 q 311 1010 260 1010 q 387 990 352 1010 q 451 948 422 969 q 506 928 481 928 q 540 941 530 928 q 555 971 550 954 q 572 1001 561 988 q 611 1014 584 1014 q 653 990 644 1014 q 662 939 662 966 q 649 854 662 898 q 608 781 637 810 q 528 751 578 751 z "},"ö":{"ha":836,"x_min":37,"x_max":800,"o":"m 425 716 q 621 670 536 716 q 753 541 705 624 q 800 345 800 457 q 748 152 800 234 q 608 25 696 71 q 413 -20 520 -20 q 216 27 300 -20 q 84 158 131 73 q 37 355 37 242 q 90 546 37 465 q 231 672 142 627 q 425 716 319 716 m 463 130 q 487 148 480 130 q 496 187 494 165 q 498 220 498 208 q 492 297 498 258 q 477 372 486 335 q 464 419 473 387 q 441 485 454 450 q 411 544 427 519 q 376 568 395 568 q 354 551 361 568 q 345 512 347 533 q 342 479 342 490 q 348 421 342 461 q 364 331 353 380 q 389 236 374 281 q 423 160 404 190 q 463 130 441 130 m 243 741 q 140 772 181 741 q 100 869 100 804 q 141 966 100 935 q 243 998 182 998 q 345 966 304 998 q 385 869 385 935 q 345 773 385 804 q 243 741 304 741 m 594 741 q 492 772 532 741 q 451 869 451 804 q 492 966 451 935 q 594 998 533 998 q 697 967 656 998 q 739 869 739 936 q 697 772 739 804 q 594 741 656 741 z "},"š":{"ha":662,"x_min":9,"x_max":650,"o":"m 346 600 q 304 590 323 600 q 286 553 286 580 q 296 520 286 532 q 326 500 307 509 q 368 488 346 492 q 412 479 391 484 q 528 433 474 465 q 616 350 583 401 q 650 231 650 300 q 608 83 650 138 q 496 4 566 28 q 344 -20 427 -20 q 286 -14 323 -20 q 231 1 249 -9 l 231 1 q 208 8 224 4 q 185 12 193 12 q 149 -4 164 12 q 113 -21 134 -21 q 67 -2 83 -21 q 42 43 50 17 q 26 92 33 69 q 16 129 22 111 q 9 168 9 148 q 28 224 9 203 q 83 246 47 246 q 142 231 119 246 q 183 193 165 216 q 219 148 201 171 q 264 110 238 125 q 331 95 291 95 q 373 112 359 95 q 387 155 387 128 q 367 203 387 193 q 315 220 347 214 q 204 248 256 232 q 111 290 151 263 q 47 362 71 317 q 24 477 24 407 q 69 613 24 561 q 185 691 115 666 q 328 716 255 716 q 382 714 355 716 q 435 703 409 712 q 451 698 439 703 q 476 689 464 693 q 488 684 488 684 q 527 700 511 684 q 565 716 543 716 q 607 694 593 716 q 626 643 621 672 q 635 593 632 614 q 641 562 638 578 q 644 530 644 546 q 631 479 644 503 q 587 455 618 455 q 530 477 555 455 q 481 528 506 499 q 425 578 457 556 q 346 600 393 600 m 436 806 q 390 765 411 780 q 331 750 369 750 q 261 771 283 750 q 208 823 238 792 l 71 964 q 50 1015 50 986 q 68 1052 50 1038 q 107 1065 85 1065 q 136 1059 123 1065 q 161 1044 149 1053 l 331 922 l 500 1044 q 525 1059 511 1053 q 553 1065 538 1065 q 593 1052 575 1065 q 611 1015 611 1038 q 590 964 611 986 l 436 806 z "},"ú":{"ha":941,"x_min":20,"x_max":896,"o":"m 281 -20 q 174 13 217 -20 q 110 99 131 46 q 89 210 89 152 l 89 441 q 85 476 89 466 q 62 504 81 487 q 34 529 47 517 q 20 564 20 541 q 38 606 20 591 q 77 630 55 621 l 227 689 q 280 708 253 700 q 336 716 307 716 q 378 697 363 716 q 393 652 393 677 l 393 283 q 398 243 393 264 q 415 206 402 221 q 452 191 428 191 q 496 202 477 191 q 531 229 515 213 l 531 441 q 527 478 531 467 q 501 507 522 490 q 474 530 486 519 q 463 564 463 542 q 480 606 463 591 q 519 630 497 621 l 669 689 q 722 708 695 700 q 778 716 749 716 q 821 697 806 716 q 836 652 836 678 l 836 204 q 838 166 836 185 q 853 132 840 148 q 883 102 870 114 q 896 62 896 90 q 878 16 896 31 q 829 0 859 0 l 675 0 q 584 39 623 0 q 545 128 545 77 q 464 58 508 92 q 373 2 420 24 q 281 -20 327 -20 m 304 794 q 316 840 304 812 q 343 897 328 869 q 367 942 358 925 q 401 1003 383 972 q 444 1053 418 1033 q 510 1073 470 1073 q 597 1040 560 1073 q 635 955 635 1007 q 595 860 635 898 q 507 803 555 823 l 394 758 q 375 751 385 754 q 355 749 366 749 q 320 761 335 749 q 304 794 304 772 z "}}}
